<svg width="500" height="136" viewBox="0 0 500 136" fill="none" xmlns="http://www.w3.org/2000/svg">
<path d="M0 4C0 1.79086 1.79086 0 4 0H496C498.209 0 500 1.79086 500 4V80H0V4Z" fill="#F8F8F8"/>
<g filter="url(#filter0_d)">
<rect x="200" y="30" width="100" height="100" rx="49.5" fill="white"/>
</g>
<path d="M265 63H235C232.242 63 230 65.2422 230 68V90.5C230 93.2578 232.242 95.5 235 95.5H242.5V102.062C242.5 102.828 243.375 103.273 243.992 102.82L253.75 95.5H265C267.758 95.5 270 93.2578 270 90.5V68C270 65.2422 267.758 63 265 63ZM258.914 75.7969L248.68 85.9531C248.344 86.2891 247.797 86.2891 247.461 85.9453L241.547 79.9844C241.211 79.6484 241.219 79.1016 241.555 78.7656L243.586 76.75C243.922 76.4141 244.469 76.4219 244.805 76.7578L248.094 80.0781L255.688 72.5469C256.023 72.2109 256.57 72.2188 256.906 72.5547L258.922 74.5859C259.25 74.9219 259.25 75.4688 258.914 75.7969Z" fill="#AF7FDD"/>
<path d="M466.688 35L470.359 31.3281C470.411 31.276 470.453 31.2135 470.484 31.1406C470.526 31.0573 470.547 30.9688 470.547 30.875C470.547 30.7917 470.526 30.7135 470.484 30.6406C470.453 30.5573 470.411 30.4844 470.359 30.4219L469.562 29.6406C469.5 29.5781 469.432 29.5312 469.359 29.5C469.286 29.4688 469.203 29.4531 469.109 29.4531C469.026 29.4531 468.943 29.4688 468.859 29.5C468.786 29.5312 468.719 29.5781 468.656 29.6406L464.984 33.3125L461.312 29.6406C461.26 29.5885 461.193 29.5469 461.109 29.5156C461.036 29.474 460.958 29.4531 460.875 29.4531C460.781 29.4531 460.698 29.474 460.625 29.5156C460.552 29.5469 460.484 29.5885 460.422 29.6406L459.641 30.4219C459.578 30.4844 459.531 30.5573 459.5 30.6406C459.469 30.7135 459.453 30.7917 459.453 30.875C459.453 30.9688 459.469 31.0573 459.5 31.1406C459.531 31.2135 459.578 31.276 459.641 31.3281L463.297 35L459.641 38.6719C459.578 38.724 459.531 38.7917 459.5 38.875C459.469 38.9479 459.453 39.0312 459.453 39.125C459.453 39.2083 459.469 39.2917 459.5 39.375C459.531 39.4479 459.578 39.5156 459.641 39.5781L460.422 40.3594C460.484 40.4219 460.552 40.4688 460.625 40.5C460.708 40.5312 460.792 40.5469 460.875 40.5469C460.969 40.5469 461.052 40.5312 461.125 40.5C461.208 40.4688 461.276 40.4219 461.328 40.3594L465 36.6875L468.672 40.3594C468.724 40.4219 468.786 40.4688 468.859 40.5C468.943 40.5312 469.031 40.5469 469.125 40.5469C469.208 40.5469 469.286 40.5312 469.359 40.5C469.443 40.4688 469.516 40.4219 469.578 40.3594L470.359 39.5781C470.422 39.5156 470.469 39.4479 470.5 39.375C470.531 39.2917 470.547 39.2083 470.547 39.125C470.547 39.0312 470.531 38.9479 470.5 38.875C470.469 38.7917 470.422 38.7188 470.359 38.6562L466.688 35Z" fill="#AAAAAA"/>
<defs>
<filter id="filter0_d" x="196" y="28" width="108" height="108" filterUnits="userSpaceOnUse" color-interpolation-filters="sRGB">
<feFlood flood-opacity="0" result="BackgroundImageFix"/>
<feColorMatrix in="SourceAlpha" type="matrix" values="0 0 0 0 0 0 0 0 0 0 0 0 0 0 0 0 0 0 127 0"/>
<feOffset dy="2"/>
<feGaussianBlur stdDeviation="2"/>
<feColorMatrix type="matrix" values="0 0 0 0 0.953205 0 0 0 0 0.953205 0 0 0 0 0.953205 0 0 0 0.5 0"/>
<feBlend mode="normal" in2="BackgroundImageFix" result="effect1_dropShadow"/>
<feBlend mode="normal" in="SourceGraphic" in2="effect1_dropShadow" result="shape"/>
</filter>
</defs>
</svg>
