<?xml version="1.0" encoding="UTF-8"?>
<svg width="30px" height="30px" viewBox="0 0 30 30" version="1.1" xmlns="http://www.w3.org/2000/svg" xmlns:xlink="http://www.w3.org/1999/xlink">
    <title>B2968DA9-605A-40D3-81F3-EFD075F93504</title>
    <g id="Destinations" stroke="none" stroke-width="1" fill="none" fill-rule="evenodd">
        <g id="Destinations-/-Amazon-S3-/-Options" transform="translate(-220.000000, -561.000000)">
            <g id="Destination-/-Amazon-S3" transform="translate(190.000000, 546.000000)">
                <g id="Icon_AWS" transform="translate(30.000000, 15.000000)">
                    <path d="M4,0 L26,0 C28.209139,-4.05812251e-16 30,1.790861 30,4 L30,26 C30,28.209139 28.209139,30 26,30 L4,30 C1.790861,30 2.705415e-16,28.209139 0,26 L0,4 C-2.705415e-16,1.790861 1.790861,4.05812251e-16 4,0 Z" id="Rectangle-2" fill="#FF8F00"></path>
                    <path d="M23.3191489,8.78723404 L25.8619362,7.89361702 L23.3191489,7 L20.7763617,7.89361702 L23.3191489,8.78723404 Z M23.7659574,9.53206383 L23.7659574,12.3617021 L26,11.6168723 L26,8.78723404 L23.7659574,9.53206383 Z M22.8723404,9.53206383 L20.6382979,8.78723404 L20.6382979,11.6168723 L22.8723404,12.3617021 L22.8723404,9.53206383 Z M17.0638298,8.78723404 L19.606617,7.89361702 L17.0638298,7 L14.5210426,7.89361702 L17.0638298,8.78723404 Z M17.5106383,9.53206383 L17.5106383,12.3617021 L19.7446809,11.6168723 L19.7446809,8.78723404 L17.5106383,9.53206383 Z M16.6170213,9.53206383 L14.3829787,8.78723404 L14.3829787,11.6168723 L16.6170213,12.3617021 L16.6170213,9.53206383 Z M13.9361702,14.1489362 L16.4789574,13.2553191 L13.9361702,12.3617021 L11.393383,13.2553191 L13.9361702,14.1489362 Z M14.3829787,14.893766 L14.3829787,17.7234043 L16.6170213,16.9785745 L16.6170213,14.1489362 L14.3829787,14.893766 Z M13.4893617,14.893766 L11.2553191,14.1489362 L11.2553191,16.9785745 L13.4893617,17.7234043 L13.4893617,14.893766 Z M7.68085106,14.1489362 L10.2236383,13.2553191 L7.68085106,12.3617021 L5.13806383,13.2553191 L7.68085106,14.1489362 Z M8.12765957,14.893766 L8.12765957,17.7234043 L10.3617021,16.9785745 L10.3617021,14.1489362 L8.12765957,14.893766 Z M7.23404255,14.893766 L5,14.1489362 L5,16.9785745 L7.23404255,17.7234043 L7.23404255,14.893766 Z M10.8085106,19.5106383 L13.3512979,18.6170213 L10.8085106,17.7234043 L8.2657234,18.6170213 L10.8085106,19.5106383 Z M11.2553191,20.2554681 L11.2553191,23.0851064 L13.4893617,22.3402766 L13.4893617,19.5106383 L11.2553191,20.2554681 Z M10.3617021,20.2554681 L8.12765957,19.5106383 L8.12765957,22.3402766 L10.3617021,23.0851064 L10.3617021,20.2554681 Z" id="Shape" fill="#FFFFFF" fill-rule="nonzero"></path>
                </g>
            </g>
        </g>
    </g>
</svg>