<svg width="66" height="66" viewBox="0 0 66 66" fill="none" xmlns="http://www.w3.org/2000/svg">
<rect x="0" y="0" width="66" height="66" rx="5" fill="#F06332" stroke="white" stroke-width="0"/>
<path fill-rule="evenodd" clip-rule="evenodd" d="M25.7826 35.5773H28.0454H30.6641C30.8675 35.5773 31.0539 35.5012 31.2234 35.3488C31.3929 35.1965 31.4776 35.0019 31.4776 34.765V31.5159V28.2668C31.4776 28.0637 31.5539 27.8776 31.7065 27.7083C31.859 27.5391 32.0539 27.4545 32.2912 27.4545H33.9184H35.5455C35.7489 27.4545 36.0031 27.3868 36.3082 27.2514C36.6133 27.116 36.3591 26.6422 35.5455 25.8299L32.2912 22.5808L29.0369 19.3317C28.7996 19.0948 28.52 18.9848 28.1979 19.0017C27.8759 19.0186 27.6132 19.1286 27.4098 19.3317L24.2063 22.53L20.9012 25.8299C20.0876 26.6422 19.8249 27.116 20.113 27.2514C20.4012 27.3868 20.6639 27.4545 20.9012 27.4545H22.5029H24.1555C24.3589 27.4545 24.5453 27.5306 24.7148 27.6829C24.8843 27.8352 24.9691 28.0299 24.9691 28.2668V31.5159V34.765C24.9691 34.9681 25.0538 35.1542 25.2233 35.3235C25.3928 35.4927 25.5792 35.5773 25.7826 35.5773ZM36.3496 30.4227H38.6123H41.231C41.4344 30.4227 41.6209 30.4989 41.7904 30.6512C41.9599 30.8035 42.0446 30.9981 42.0446 31.235V34.4841V37.7332C42.0446 37.9363 42.1209 38.1224 42.2734 38.2917C42.426 38.4609 42.6209 38.5455 42.8582 38.5455H44.4853H46.1125C46.3159 38.5455 46.5701 38.6132 46.8752 38.7486C47.1803 38.884 46.926 39.3578 46.1125 40.1701L42.8582 43.4192L39.6039 46.6683C39.3666 46.9052 39.0869 47.0152 38.7649 46.9983C38.4428 46.9814 38.1801 46.8714 37.9767 46.6683L34.7733 43.47L31.4682 40.1701C30.6546 39.3578 30.3919 38.884 30.68 38.7486C30.9681 38.6132 31.2309 38.5455 31.4682 38.5455H33.0699H34.7224C34.9258 38.5455 35.1123 38.4694 35.2818 38.3171C35.4513 38.1648 35.536 37.9701 35.536 37.7332V34.4841V31.235C35.536 31.0319 35.6208 30.8458 35.7903 30.6765C35.9598 30.5073 36.1462 30.4227 36.3496 30.4227Z" fill="white"/>
</svg>
