<svg width="30" height="30" viewBox="0 0 30 30" fill="none" xmlns="http://www.w3.org/2000/svg">
<rect width="30" height="30" rx="4" fill="#1C2549"/>
<path d="M14.6861 9.5L14.6855 9.5C13.8467 9.49969 13.0202 9.70093 12.2734 10.0869C11.5978 10.436 11.0052 10.9272 10.5342 11.5261C9.44727 11.6261 8.43269 12.1294 7.68713 12.9423C6.88636 13.8153 6.46115 14.974 6.50279 16.1633C6.54444 17.3526 7.04967 18.478 7.90983 19.2915L8.25338 18.9282L7.90983 19.2915C8.768 20.103 9.90938 20.5374 11.0843 20.4975H18.7234H18.7235C19.5663 20.4972 20.3839 20.2114 21.0471 19.6868C21.7101 19.1623 22.1805 18.4293 22.3855 17.6048C22.5905 16.7803 22.5189 15.91 22.1816 15.1311C21.8444 14.3525 21.2604 13.7086 20.5205 13.3028C20.2418 13.1485 19.9448 13.0314 19.6371 12.9542C19.2753 11.9849 18.6439 11.1392 17.8154 10.5221C16.9018 9.84168 15.8072 9.50176 14.6861 9.5Z" fill="white" stroke="white"/>
<path d="M16.0624 16.7484L19.1586 13.6673C18.5154 11.0578 15.9611 9.48485 13.4533 10.1541C12.324 10.4555 11.3431 11.1839 10.7021 12.1973C10.7501 12.1961 16.0624 16.7484 16.0624 16.7484Z" fill="#0364B8"/>
<path d="M12.7198 12.7766L12.7197 12.7772C12.1281 12.3959 11.4458 12.1943 10.7499 12.1953C10.7338 12.1953 10.718 12.1964 10.702 12.1966C8.63193 12.2233 6.97466 13.991 7.00029 16.145C7.00959 16.9263 7.2442 17.6867 7.67373 18.3277L12.3123 17.7231L15.8686 14.7392L12.7198 12.7766Z" fill="#0078D4"/>
<path d="M19.1579 13.6682C19.0898 13.6634 19.0214 13.6602 18.9522 13.6602C18.5369 13.6597 18.1258 13.748 17.7446 13.9195L17.7445 13.9192L15.8682 14.7408L17.9366 17.3996L21.6346 18.3349C22.4326 16.7934 21.8785 14.8705 20.3971 14.0401C20.0142 13.8256 19.5917 13.6987 19.1579 13.6682L19.1579 13.6682Z" fill="#1490DF"/>
<path d="M7.67383 18.3287C8.37423 19.3765 9.52336 20.001 10.75 20.0003H18.9528C20.0733 20.0007 21.1036 19.3608 21.6352 18.3344L15.8687 14.7402L7.67383 18.3287Z" fill="#28A8EA"/>
</svg>
