<?xml version="1.0" encoding="UTF-8"?>
<svg width="16px" height="16px" viewBox="0 0 16 16" version="1.1" xmlns="http://www.w3.org/2000/svg" xmlns:xlink="http://www.w3.org/1999/xlink">
    <title>52045210-B3F4-4DB5-93A9-A4DE94A599F3</title>
    <g id="Destinations" stroke="none" stroke-width="1" fill="none" fill-rule="evenodd">
        <g id="Destinations-/-Add-Destination" transform="translate(-704.000000, -585.000000)" fill="#F06332">
            <g id="Modal---Add-destination" transform="translate(429.000000, 216.000000)">
                <path d="M287.58135,375.527257 C287.70188,375.527257 287.812364,375.570772 287.912806,375.657803 C288.013247,375.744833 288.063467,375.856037 288.063467,375.991418 L288.063467,375.991418 L288.063467,379.704702 C288.063467,379.820743 288.108665,379.927112 288.199063,380.023812 C288.28946,380.120513 288.404966,380.168863 288.545585,380.168863 L288.545585,380.168863 L290.474053,380.168863 C290.594583,380.168863 290.745243,380.207542 290.926038,380.284903 C291.106833,380.362263 290.956173,380.633021 290.474053,381.097184 C289.831227,381.716067 289.188411,382.334942 288.545585,382.953826 C287.902758,383.572709 287.259942,384.191584 286.617116,384.810468 C286.476498,384.945849 286.310771,385.008703 286.119932,384.999033 C285.929093,384.989363 285.773411,384.926508 285.652881,384.810468 C285.010055,384.191584 284.377283,383.582379 283.754545,382.982836 C283.131807,382.383292 282.478947,381.754748 281.795944,381.097184 C281.313824,380.633021 281.158142,380.362263 281.328893,380.284903 C281.499644,380.207542 281.655326,380.168863 281.795944,380.168863 L281.795944,380.168863 L283.724413,380.168863 C283.844943,380.168863 283.955427,380.125348 284.055868,380.038317 C284.15631,379.951287 284.20653,379.840083 284.20653,379.704702 L284.20653,379.704702 L284.20653,375.991418 C284.20653,375.875377 284.25675,375.769008 284.357192,375.672308 C284.457633,375.575607 284.568117,375.527257 284.688647,375.527257 L284.688647,375.527257 Z M279.858027,369.000967 C280.048866,368.991297 280.214592,369.054151 280.35521,369.189532 C280.998036,369.808416 281.640853,370.427291 282.283679,371.046174 C282.926505,371.665058 283.569321,372.283933 284.212147,372.902816 C284.694267,373.366979 284.844927,373.637737 284.664132,373.715097 C284.483337,373.792458 284.332677,373.831137 284.212147,373.831137 L282.283679,373.831137 C282.14306,373.831137 282.027554,373.879487 281.937157,373.976188 C281.84676,374.072888 281.801561,374.179257 281.801561,374.295298 L281.801561,378.008582 C281.801561,378.143963 281.751341,378.255167 281.6509,378.342197 C281.550458,378.429228 281.439974,378.472743 281.319444,378.472743 L278.426741,378.472743 C278.306211,378.472743 278.195727,378.424393 278.095286,378.327692 C277.994844,378.230992 277.944624,378.124623 277.944624,378.008582 L277.944624,374.295298 C277.944624,374.159917 277.894404,374.048713 277.793962,373.961683 C277.693521,373.874652 277.583037,373.831137 277.462507,373.831137 L275.534038,373.831137 C275.39342,373.831137 275.237738,373.792458 275.066987,373.715097 C274.896237,373.637737 275.051919,373.366979 275.534038,372.902816 C276.217041,372.245252 276.869901,371.616708 277.492639,371.017164 C278.115377,370.417621 278.748149,369.808416 279.390976,369.189532 C279.511506,369.073492 279.667188,369.010637 279.858027,369.000967 Z" id="icon-ftp"></path>
            </g>
        </g>
    </g>
</svg>