<?xml version="1.0" encoding="UTF-8"?>
<svg width="27px" height="21px" viewBox="0 0 27 21" version="1.1" xmlns="http://www.w3.org/2000/svg" xmlns:xlink="http://www.w3.org/1999/xlink">
    <title>DA126645-9770-4576-9A10-BAB49627C06C@3x</title>
    <g id="Destinations" stroke="none" stroke-width="1" fill="none" fill-rule="evenodd">
        <g id="Destinations-/-Add-Destination" transform="translate(-474.000000, -517.000000)" fill="#FF8F00" fill-rule="nonzero">
            <g id="Modal---Add-destination" transform="translate(429.000000, 216.000000)">
                <path d="M68.5531915,303.297872 L71.8224894,302.148936 L68.5531915,301 L65.2838936,302.148936 L68.5531915,303.297872 Z M69.1276596,304.255511 L69.1276596,307.893617 L72,306.935979 L72,303.297872 L69.1276596,304.255511 Z M67.9787234,304.255511 L65.106383,303.297872 L65.106383,306.935979 L67.9787234,307.893617 L67.9787234,304.255511 Z M60.5106383,303.297872 L63.7799362,302.148936 L60.5106383,301 L57.2413404,302.148936 L60.5106383,303.297872 Z M61.0851064,304.255511 L61.0851064,307.893617 L63.9574468,306.935979 L63.9574468,303.297872 L61.0851064,304.255511 Z M59.9361702,304.255511 L57.0638298,303.297872 L57.0638298,306.935979 L59.9361702,307.893617 L59.9361702,304.255511 Z M56.4893617,310.191489 L59.7586596,309.042553 L56.4893617,307.893617 L53.2200638,309.042553 L56.4893617,310.191489 Z M57.0638298,311.149128 L57.0638298,314.787234 L59.9361702,313.829596 L59.9361702,310.191489 L57.0638298,311.149128 Z M55.9148936,311.149128 L53.0425532,310.191489 L53.0425532,313.829596 L55.9148936,314.787234 L55.9148936,311.149128 Z M48.4468085,310.191489 L51.7161064,309.042553 L48.4468085,307.893617 L45.1775106,309.042553 L48.4468085,310.191489 Z M49.0212766,311.149128 L49.0212766,314.787234 L51.893617,313.829596 L51.893617,310.191489 L49.0212766,311.149128 Z M47.8723404,311.149128 L45,310.191489 L45,313.829596 L47.8723404,314.787234 L47.8723404,311.149128 Z M52.4680851,317.085106 L55.737383,315.93617 L52.4680851,314.787234 L49.1987872,315.93617 L52.4680851,317.085106 Z M53.0425532,318.042745 L53.0425532,321.680851 L55.9148936,320.723213 L55.9148936,317.085106 L53.0425532,318.042745 Z M51.893617,318.042745 L49.0212766,317.085106 L49.0212766,320.723213 L51.893617,321.680851 L51.893617,318.042745 Z" id="Shape"></path>
            </g>
        </g>
    </g>
</svg>