<?xml version="1.0" encoding="UTF-8"?>
<svg width="30px" height="30px" viewBox="0 0 30 30" version="1.1" xmlns="http://www.w3.org/2000/svg" xmlns:xlink="http://www.w3.org/1999/xlink">
    <title>Icon_FTP</title>
    <g id="Symbols" stroke="none" stroke-width="1" fill="none" fill-rule="evenodd">
        <g id="Icon_FTP">
            <path d="M4,0 L26,0 C28.209139,-4.05812251e-16 30,1.790861 30,4 L30,26 C30,28.209139 28.209139,30 26,30 L4,30 C1.790861,30 2.705415e-16,28.209139 0,26 L0,4 C-2.705415e-16,1.790861 1.790861,4.05812251e-16 4,0 Z" id="Rectangle-2" fill="#F06332"></path>
            <path d="M19.4894056,13 C19.6131772,13 19.7266327,13.0459367 19.8297757,13.1378114 C19.9329186,13.229686 19.9844893,13.3470797 19.9844893,13.4899959 L19.9844893,13.4899959 L19.9844893,17.4099632 C19.9844893,17.5324628 20.030903,17.6447524 20.1237316,17.7468354 C20.2165603,17.8489184 20.3351729,17.8999592 20.4795731,17.8999592 L20.4795731,17.8999592 L22.4599079,17.8999592 C22.5836794,17.8999592 22.7383915,17.9407917 22.9240489,18.0224581 C23.1097062,18.1041245 22.9549941,18.3899526 22.4599079,18.879951 L22.4599079,18.879951 L18.4992382,22.7999183 C18.3548381,22.9428345 18.1846548,23.0091875 17.9886832,22.9989792 C17.7927115,22.9887709 17.6328424,22.9224179 17.5090708,22.7999183 C16.8489559,22.1465872 16.199165,21.503474 15.5596787,20.8705594 C14.9201924,20.2376448 14.2497733,19.5741153 13.5484012,18.879951 C13.053315,18.3899526 12.8934458,18.1041245 13.0687888,18.0224581 C13.2441318,17.9407917 13.404001,17.8999592 13.5484012,17.8999592 L13.5484012,17.8999592 L15.528736,17.8999592 C15.6525075,17.8999592 15.7659631,17.8540225 15.869106,17.7621478 C15.972249,17.6702731 16.0238197,17.5528794 16.0238197,17.4099632 L16.0238197,17.4099632 L16.0238197,13.4899959 C16.0238197,13.3674963 16.0753904,13.2552067 16.1785334,13.1531237 C16.2816763,13.0510407 16.3951319,13 16.5189034,13 L16.5189034,13 Z M11.9886832,7.00102084 C12.1846548,6.99081254 12.3548381,7.05716549 12.4992382,7.20008168 L16.4599079,11.120049 L16.4599079,11.120049 C16.9549941,11.6100474 17.1097062,11.8958755 16.9240489,11.9775419 C16.7383915,12.0592083 16.5836794,12.1000408 16.4599079,12.1000408 L14.4795731,12.1000408 C14.3351729,12.1000408 14.2165603,12.1510816 14.1237316,12.2531646 C14.030903,12.3552476 13.9844893,12.4675372 13.9844893,12.5900368 L13.9844893,16.5100041 C13.9844893,16.6529203 13.9329186,16.770314 13.8297757,16.8621886 C13.7266327,16.9540633 13.6131772,17 13.4894056,17 L10.5189034,17 C10.3951319,17 10.2816763,16.9489593 10.1785334,16.8468763 C10.0753904,16.7447933 10.0238197,16.6325037 10.0238197,16.5100041 L10.0238197,12.5900368 C10.0238197,12.4471206 9.97224899,12.3297269 9.86910604,12.2378522 C9.76596308,12.1459775 9.65250754,12.1000408 9.52873599,12.1000408 L7.54840116,12.1000408 C7.40400103,12.1000408 7.24413185,12.0592083 7.06878882,11.9775419 C6.8934458,11.8958755 7.05331498,11.6100474 7.54840116,11.120049 C8.24977325,10.4258847 8.9201924,9.76235516 9.55967872,9.1294406 C10.199165,8.49652605 10.8489559,7.85341284 11.5090708,7.20008168 C11.6328424,7.07758209 11.7927115,7.01122914 11.9886832,7.00102084 Z" id="icon-ftp" fill="#FFFFFF"></path>
        </g>
    </g>
</svg>