<svg width="66" height="66" viewBox="0 0 66 66" fill="none" xmlns="http://www.w3.org/2000/svg">
<rect x="0" y="0" width="66" height="66" rx="5" fill="#1C2549" stroke="white" stroke-width="0"/>
<path d="M47.2338 39.529L47.2338 39.5291C46.0671 41.7066 43.804 43.0673 41.339 43.0667L47.2338 39.529ZM47.2338 39.529C48.9837 36.2613 47.7712 32.1822 44.5158 30.4183L44.0394 31.2976M47.2338 39.529L44.0394 31.2976M44.0394 31.2976L44.5158 30.4183C43.8839 30.076 43.2027 29.8387 42.4986 29.7142C40.8985 24.8684 35.8139 22.0195 30.8109 23.3101L31.0607 24.2784M44.0394 31.2976L31.0607 24.2784M31.0607 24.2784L30.8109 23.3101C28.6263 23.8736 26.7097 25.1783 25.3791 26.9936C21.2026 27.3188 17.9482 30.8551 18.0006 35.1155C18.0204 36.7256 18.5203 38.2933 19.4365 39.6153L31.0607 24.2784ZM26.0087 43.0667L41.3387 43.0667L19.4371 39.6163C20.9321 41.7776 23.3862 43.0679 26.0082 43.0667C26.0084 43.0667 26.0085 43.0667 26.0087 43.0667Z" fill="#28A8EA" stroke="white" stroke-width="2"/>
<path d="M35.937 36.192L41.7236 30.6255C40.5216 25.911 35.7477 23.0693 31.0607 24.2784C28.95 24.8229 27.1168 26.139 25.9189 27.9698C26.0084 27.9675 35.937 36.192 35.937 36.192Z" fill="#0364B8"/>
<path d="M29.6902 29.017L29.6899 29.018C28.5842 28.3291 27.309 27.965 26.0084 27.9668C25.9783 27.9668 25.9488 27.9687 25.9188 27.9691C22.05 28.0173 18.9526 31.2111 19.0005 35.1025C19.0179 36.5141 19.4564 37.8879 20.2592 39.0459L28.9285 37.9537L35.5752 32.5628L29.6902 29.017Z" fill="#0078D4"/>
<path d="M41.7235 30.6258C41.5963 30.6172 41.4684 30.6113 41.3391 30.6113C40.5628 30.6106 39.7946 30.7701 39.082 31.0799L39.0818 31.0793L35.5751 32.5637L39.441 37.3672L46.3523 39.0571C47.8438 36.272 46.8083 32.798 44.0394 31.2978C43.324 30.9102 42.5343 30.681 41.7235 30.6258L41.7235 30.6258Z" fill="#1490DF"/>
<path d="M20.259 39.0456C21.568 40.9387 23.7157 42.067 26.0082 42.0657H41.339C43.4332 42.0663 45.3587 40.9104 46.3522 39.056L35.575 32.5625L20.259 39.0456Z" fill="#28A8EA"/>
</svg>
