<svg width="16" height="16" viewBox="0 0 16 16" fill="none" xmlns="http://www.w3.org/2000/svg">
<path d="M9.66637 9.59904L12.969 6.50588C12.283 3.88613 9.55835 2.30705 6.88337 2.97891C5.67875 3.28147 4.63249 4.0128 3.94879 5.03015C3.9999 5.02889 9.66637 9.59904 9.66637 9.59904Z" fill="#0364B8"/>
<path d="M6.10116 5.61289L6.101 5.61342C5.46994 5.23064 4.74216 5.02831 3.99986 5.0293C3.98271 5.0293 3.96586 5.03037 3.94875 5.03056C1.74072 5.05735 -0.027026 6.83206 0.000312874 8.99444C0.0102246 9.77884 0.260479 10.5422 0.718641 11.1857L5.66647 10.5788L9.45989 7.58317L6.10116 5.61289Z" fill="#0078D4"/>
<path d="M12.9689 6.50608C12.8963 6.50133 12.8233 6.49805 12.7495 6.49805C12.3064 6.49762 11.868 6.58625 11.4613 6.75845L11.4612 6.75811L9.45984 7.58295L11.6662 10.2521L15.6107 11.1912C16.4619 9.64354 15.8709 7.71315 14.2907 6.87951C13.8823 6.6641 13.4317 6.53678 12.9689 6.5061L12.9689 6.50608Z" fill="#1490DF"/>
<path d="M0.718506 11.1845C1.4656 12.2365 2.69134 12.8634 3.99972 12.8627H12.7494C13.9446 12.8631 15.0436 12.2207 15.6106 11.1903L9.45974 7.58203L0.718506 11.1845Z" fill="#28A8EA"/>
</svg>
