<?xml version="1.0" encoding="UTF-8"?>
<svg width="16px" height="16px" viewBox="0 0 16 16" version="1.1" xmlns="http://www.w3.org/2000/svg" xmlns:xlink="http://www.w3.org/1999/xlink">
    <title>55A788B9-140A-4FAE-83AE-10769883A7B8</title>
    <g id="Destinations" stroke="none" stroke-width="1" fill="none" fill-rule="evenodd">
        <g id="Destinations-/-Add-Destination" transform="translate(-479.000000, -585.000000)" fill="#0060FF">
            <g id="Modal---Add-destination" transform="translate(429.000000, 216.000000)">
                <path d="M58.145088,378.999276 C59.145568,379.912034 60.152992,380.815966 61.15392,381.728207 C61.242368,381.808828 61.29744,381.802517 61.38656,381.740862 C61.811392,381.447 62.240576,381.160414 62.695168,380.853034 L62.6956421,381.559055 C62.6953956,381.673406 62.694784,381.786759 62.693504,381.900103 C62.69264,381.975724 62.617248,381.990345 62.569792,382.021414 C61.400864,382.786483 60.230592,383.549138 59.0616,384.314103 C58.716736,384.539793 58.375104,384.771207 58.032,385 L57.968,385 C57.438368,384.649172 56.91008,384.296034 56.378816,383.948069 C55.401152,383.307724 54.422688,382.66869 53.4416,382.034414 C53.337248,381.966931 53.294592,381.895828 53.299456,381.762379 C53.31008,381.471379 53.302752,381.179655 53.302752,380.858759 C53.39296,380.916655 53.4648,380.960759 53.534784,381.008 C53.895648,381.251586 54.257984,381.492724 54.615168,381.742414 C54.705824,381.805759 54.760928,381.805759 54.847776,381.726655 C55.848832,380.814621 56.856256,379.91069 57.85648,378.997586 C57.969728,378.894207 58.033824,378.897759 58.145088,378.999276 Z M61.36,369 C61.393344,369.027517 61.42528,369.057379 61.460288,369.082172 C62.718496,369.973276 63.976096,370.865345 65.236224,371.75331 C65.488512,371.931103 65.729344,372.129034 66,372.275862 L66,372.310345 C65.557824,372.687103 65.114624,373.062448 64.67376,373.440966 C64.061024,373.967103 63.450048,374.495552 62.838496,375.02331 C62.802304,375.054552 62.768,375.088379 62.72416,375.129069 C63.283936,375.613241 63.836096,376.091138 64.388544,376.568621 C64.879104,376.992621 65.368192,377.418655 65.862304,377.837759 C65.960544,377.921103 65.935168,377.952241 65.847168,378.013897 C64.35168,379.061379 62.857728,380.111379 61.365024,381.163414 C61.29008,381.216241 61.239648,381.216586 61.17008,381.153172 C60.14448,380.218483 59.117504,379.285483 58.088736,378.354828 C57.946368,378.226034 58.09808,378.208138 58.147584,378.175 C59.608256,377.197621 61.071104,376.224103 62.533568,375.249828 C62.59184,375.211 62.649376,375.170862 62.717408,375.124414 C61.142848,374.075345 59.581408,373.035 58.001856,371.982552 C58.28224,371.73031 58.550336,371.488241 58.819296,371.24731 C59.60624,370.542345 60.39392,369.838345 61.179712,369.131862 C61.222112,369.093724 61.282912,369.069828 61.296,369 L61.36,369 Z M54.704,369 C54.92992,369.267138 55.204992,369.473448 55.460032,369.704069 C56.276608,370.442414 57.098336,371.174241 57.917888,371.908793 C57.937984,371.926793 57.956224,371.947241 57.99376,371.985172 C56.421088,373.033172 54.858464,374.074483 53.281376,375.125414 C53.5768,375.323034 53.860832,375.513621 54.145408,375.70331 L57.839808,378.165034 L57.839808,378.165034 C58.0008,378.272276 58.000544,378.271379 57.861056,378.398069 C56.8624,379.304862 55.863104,380.210793 54.866912,381.120724 C54.777472,381.202414 54.716352,381.222172 54.607552,381.145276 C53.133952,380.103724 51.65776,379.066379 50.177824,378.03531 C50.036352,377.936724 50.06752,377.898862 50.175712,377.805966 C51.18432,376.939862 52.188928,376.068414 53.194592,375.198379 C53.219104,375.177138 53.242464,375.154345 53.27648,375.122931 C52.875616,374.777276 52.481408,374.43769 52.08752,374.09769 C51.422016,373.523241 50.7568,372.948414 50.09104,372.37431 C50.06288,372.350034 50.030432,372.331552 50,372.310345 L50,372.275862 C50.05904,372.277448 50.094912,372.228172 50.1376,372.198069 C51.001088,371.588966 51.863936,370.978759 52.7256,370.366655 C53.364672,369.912655 54.00192,369.455655 54.64,369 L54.704,369 Z" id="icon-dropbox"></path>
            </g>
        </g>
    </g>
</svg>