<svg width="66" height="66" viewBox="0 0 66 66" fill="none" xmlns="http://www.w3.org/2000/svg">
<rect x="3" y="3" width="60" height="60" rx="5" fill="#0062FF" stroke="white" stroke-width="5"/>
<path d="M39.8571 22L46 25.9187L39.8571 29.9433L33.7143 25.9187L39.8571 22Z" fill="#0062FF"/>
<path d="M39.8571 22L46 25.9187L39.8571 29.9433L33.7143 25.9187L39.8571 22Z" fill="white"/>
<path d="M27.1478 22L33.2906 25.9187L27.1478 29.9433L21.0049 25.9187L27.1478 22Z" fill="#0062FF"/>
<path d="M27.1478 22L33.2906 25.9187L27.1478 29.9433L21.0049 25.9187L27.1478 22Z" fill="white"/>
<path d="M39.8571 30.0488L46 33.9675L39.8571 37.9922L33.7143 33.9675L39.8571 30.0488Z" fill="#0062FF"/>
<path d="M39.8571 30.0488L46 33.9675L39.8571 37.9922L33.7143 33.9675L39.8571 30.0488Z" fill="white"/>
<path d="M27.1478 30.0488L33.2906 33.9675L27.1478 37.9922L21.0049 33.9675L27.1478 30.0488Z" fill="#0062FF"/>
<path d="M27.1478 30.0488L33.2906 33.9675L27.1478 37.9922L21.0049 33.9675L27.1478 30.0488Z" fill="white"/>
<path d="M33.4521 35.5566L39.5949 39.4754L33.4521 43.5L27.3092 39.4754L33.4521 35.5566Z" fill="#0062FF"/>
<path d="M33.4521 35.5566L39.5949 39.4754L33.4521 43.5L27.3092 39.4754L33.4521 35.5566Z" fill="white"/>
</svg>
