<svg width="27" height="28" viewBox="0 0 27 28" fill="none" xmlns="http://www.w3.org/2000/svg">
<path fill-rule="evenodd" clip-rule="evenodd" d="M5.78263 16.5773H8.04537H10.6641C10.8675 16.5773 11.0539 16.5012 11.2234 16.3488C11.3929 16.1965 11.4776 16.0019 11.4776 15.765V12.5159V9.26677C11.4776 9.0637 11.5539 8.87756 11.7065 8.70833C11.859 8.5391 12.0539 8.45449 12.2912 8.45449H13.9184H15.5455C15.7489 8.45449 16.0031 8.3868 16.3082 8.25142C16.6133 8.11604 16.3591 7.64221 15.5455 6.82993L12.2912 3.58081L9.03692 0.331681C8.79962 0.0947647 8.51996 -0.0152303 8.19792 0.00169228C7.87588 0.0186149 7.61317 0.12861 7.40977 0.331681L4.20633 3.53004L0.90119 6.82993C0.0876127 7.64221 -0.175101 8.11604 0.113041 8.25142C0.401183 8.3868 0.663896 8.45449 0.90119 8.45449H2.50291H4.15548C4.35887 8.45449 4.54532 8.53064 4.71481 8.68295C4.88431 8.83525 4.96905 9.02986 4.96905 9.26677V12.5159V15.765C4.96905 15.9681 5.0538 16.1542 5.22329 16.3235C5.39279 16.4927 5.57923 16.5773 5.78263 16.5773ZM16.3496 11.4227H18.6123H21.231C21.4344 11.4227 21.6209 11.4989 21.7904 11.6512C21.9599 11.8035 22.0446 11.9981 22.0446 12.235V15.4841V18.7332C22.0446 18.9363 22.1209 19.1224 22.2734 19.2917C22.426 19.4609 22.6209 19.5455 22.8582 19.5455H24.4853H26.1125C26.3159 19.5455 26.5701 19.6132 26.8752 19.7486C27.1803 19.884 26.926 20.3578 26.1125 21.1701L22.8582 24.4192L19.6039 27.6683C19.3666 27.9052 19.0869 28.0152 18.7649 27.9983C18.4428 27.9814 18.1801 27.8714 17.9767 27.6683L14.7733 24.47L11.4682 21.1701C10.6546 20.3578 10.3919 19.884 10.68 19.7486C10.9681 19.6132 11.2309 19.5455 11.4682 19.5455H13.0699H14.7224C14.9258 19.5455 15.1123 19.4694 15.2818 19.3171C15.4513 19.1648 15.536 18.9701 15.536 18.7332V15.4841V12.235C15.536 12.0319 15.6208 11.8458 15.7903 11.6765C15.9598 11.5073 16.1462 11.4227 16.3496 11.4227Z" fill="#F06332"/>
</svg>
