<svg width="25" height="25" viewBox="0 0 25 25" fill="none" xmlns="http://www.w3.org/2000/svg">
<path d="M15.1036 15.9348L20.264 10.7996C19.1921 6.45044 14.9349 3.82892 10.7552 4.9443C8.87298 5.44661 7.2382 6.66072 6.16992 8.34969C6.24977 8.34759 15.1036 15.9348 15.1036 15.9348Z" fill="#0364B8"/>
<path d="M9.53306 9.31652L9.53282 9.3174C8.54679 8.68192 7.40962 8.34602 6.24978 8.34766C6.22299 8.34766 6.19665 8.34943 6.16993 8.34976C2.71988 8.39423 -0.0422281 11.3405 0.000488866 14.9304C0.015976 16.2326 0.406998 17.5 1.12288 18.5682L8.85386 17.5607L14.7811 12.5875L9.53306 9.31652Z" fill="#0078D4"/>
<path d="M20.2636 10.8004C20.1502 10.7926 20.0362 10.7871 19.9209 10.7871C19.2286 10.7864 18.5435 10.9335 17.9081 11.2194L17.9079 11.2189L14.7808 12.5882L18.2282 17.0195L24.3915 18.5784C25.7215 16.0091 24.7981 12.8044 22.3289 11.4204C21.6909 11.0628 20.9867 10.8514 20.2637 10.8005L20.2636 10.8004Z" fill="#1490DF"/>
<path d="M1.12256 18.5686C2.2899 20.3151 4.20512 21.3558 6.24946 21.3547H19.9208C21.7884 21.3553 23.5055 20.2889 24.3914 18.5782L14.7807 12.5879L1.12256 18.5686Z" fill="#28A8EA"/>
</svg>
