<?xml version="1.0" encoding="UTF-8"?>
<svg width="144px" height="96px" viewBox="0 0 144 96" version="1.1" xmlns="http://www.w3.org/2000/svg" xmlns:xlink="http://www.w3.org/1999/xlink">
    <title>12C0EB43-720D-4AA4-BE65-AA7B8211548A@3x</title>
    <g id="Onboarding" stroke="none" stroke-width="1" fill="none" fill-rule="evenodd">
        <g id="Add-Region---API-issue" transform="translate(-607.000000, -242.000000)">
            <g id="Modal" transform="translate(429.000000, 210.000000)">
                <g id="Snapshot-whitelabel-header-graphic" transform="translate(178.000000, 32.000000)">
                    <path d="M22.1920526,43.6461566 C22.1939156,37.0566877 24.9958394,31.3583974 30.5978241,26.5512858 C39.0008011,19.3406184 46.803113,22.3366645 51.0610509,23.0861341 C57.5897455,13.1460412 77.5661787,-12.3185179 108.307371,7.11638398 C128.662267,20.9659963 123.68611,43.6461566 123.68611,46.6605271 C127.298058,48.0009599 144,52.4061555 144,70.8588673 C144,89.3115791 127.88128,96 121.440201,96 C114.999123,96 35.0912906,96 26.9472399,96 C18.8031893,96 0,91.4931038 0,70.8588673 C0,57.1027096 7.39735086,48.0318061 22.1920526,43.6461566 Z" id="Path-4" fill="#FFFFFF"></path>
                    <path d="M80.6,50.6 C81.1,51.1 81.4,51.7 81.4,52.3 C81.4,52.9 81.1,53.5 80.6,54 C80.1,54.5 79.4,55 78.5,55.4 C77.6,55.8 76.6,56.1 75.4,56.3 C74.2,56.5 73,56.6 71.7,56.6 C70.4,56.6 69.1,56.5 68,56.3 C66.8,56.1 65.8,55.8 64.9,55.4 C64,55 63.3,54.5 62.8,54 C62.3,53.5 62,52.9 62,52.3 C62,51.7 62.3,51.1 62.8,50.6 C63.3,50.1 64,49.6 64.9,49.2 C65.8,48.8 66.8,48.5 68,48.3 C69.2,48.1 70.4,48 71.7,48 C73,48 74.3,48.1 75.4,48.3 C76.6,48.5 77.6,48.8 78.5,49.2 C79.4,49.7 80.1,50.1 80.6,50.6 L80.6,50.6 Z M81.3,55.4 C81.2,55.9 80.8,56.5 80.3,56.9 C79.8,57.4 79.1,57.8 78.2,58.2 C77.3,58.6 76.4,58.8 75.3,59 C74.2,59.2 73,59.3 71.8,59.3 C70.5,59.3 69.2,59.2 68.1,59 C66.9,58.8 65.9,58.5 65,58.1 C64.1,57.7 63.4,57.3 62.9,56.7 C62.4,56.2 62.1,55.6 62.1,55 L62.1,57.6 C62.1,58.2 62.4,58.8 62.9,59.3 C63.4,59.8 64.1,60.3 65,60.7 C65.9,61.1 66.9,61.4 68.1,61.6 C69.3,61.8 70.5,61.9 71.8,61.9 C73.1,61.9 74.4,61.8 75.5,61.6 C76.7,61.4 77.7,61.1 78.6,60.7 C79.5,60.3 80.2,59.9 80.7,59.3 C81.2,58.8 81.5,58.2 81.5,57.6 C81.5,57.5 81.5,57.3 81.5,57 C81.3,56.6 81.3,56.1 81.3,55.4 L81.3,55.4 Z M71.7,64.6 C70.4,64.6 69.1,64.5 68,64.3 C66.8,64.1 65.8,63.8 64.9,63.4 C64,63 63.3,62.6 62.8,62 C62.3,61.5 62,60.9 62,60.3 L62,62.9 C62,63.5 62.3,64.1 62.8,64.6 C63.3,65.1 64,65.6 64.9,66 C65.8,66.4 66.8,66.7 68,66.9 C69.2,67.1 70.4,67.2 71.7,67.2 C73,67.2 74.3,67.1 75.4,66.9 C76.6,66.7 77.6,66.4 78.5,66 C79.4,65.6 80.1,65.2 80.6,64.6 C81.1,64.1 81.4,63.5 81.4,62.9 L81.4,60.3 C81.4,60.9 81.1,61.5 80.6,62 C80.1,62.5 79.4,63 78.5,63.4 C77.6,63.8 76.6,64.1 75.4,64.3 C74.3,64.5 73,64.6 71.7,64.6 L71.7,64.6 Z" id="Shape" fill="#17A8E3" fill-rule="nonzero"></path>
                    <path d="M63.6198519,48.3744228 L65.5893183,50.1808519 C66.1801583,50.6826378 66.4755782,51.2847809 66.4755782,52.0876382 C66.4755782,52.8904956 66.2786316,53.4926387 65.786265,54.0947817 C65.5893183,54.3958532 65.2938984,54.5965676 64.9984784,54.6969248 C64.7030584,54.8976391 64.4076385,54.9979963 64.0137452,54.9979963 L54.9541996,55.9012108 C54.1664131,56.001568 53.4770998,55.8008537 52.9847332,55.2990678 C52.3938933,54.7972819 52.0984733,54.1951389 52,53.4926387 C52,53.3922815 52,53.3922815 52,53.2919243 C52,53.1915671 52,53.1915671 52,53.1915671 L52,43.9587072 C52,43.256207 52.29542,42.5537068 52.7877866,42.0519209 C53.2801532,41.550135 53.9694664,41.2490635 54.757253,41.2490635 C55.052673,41.2490635 55.4465662,41.3494207 55.7419862,41.4497778 C56.0374062,41.550135 56.3328261,41.7508494 56.6282461,41.9515637 L58.6961858,43.7579928 C58.6961858,43.6576357 58.8931325,43.5572785 58.9916058,43.4569213 C59.0900791,43.3565641 59.2870258,43.256207 59.3854991,43.0554926 C60.4687056,42.0519209 61.6503855,41.1487063 63.029012,40.4462061 C64.3091652,39.7437059 65.5893183,39.24192 67.0664181,38.7401342 C68.4450446,38.3387055 69.9221445,38.0376339 71.3992443,38.0376339 C72.8763441,37.9372768 74.3534439,38.0376339 75.8305437,38.3387055 C78.4893234,38.8404913 80.8526831,39.7437059 83.0190962,41.2490635 C85.1855092,42.7544211 86.958029,44.460493 88.4351288,46.5679937 C89.9122287,48.6754943 90.8969619,50.9837093 91.4878018,53.5929958 C92.0786417,56.2022824 92.1771151,58.8115689 91.6847484,61.5212126 C91.1923818,64.2308562 90.3061219,66.6394284 88.8290221,68.8472862 C87.3519223,71.055144 85.6778759,72.8615732 83.6099361,74.3669308 C81.5419964,75.8722884 79.27711,76.8758601 76.7168036,77.4780032 C74.1564973,78.0801462 71.5961909,78.1805034 68.9374112,77.6787175 C67.6572581,77.4780032 66.4755782,77.0765745 65.2938984,76.6751458 C64.1122185,76.1733599 63.029012,75.671574 61.9458054,74.9690738 C60.8625989,74.2665736 59.976339,73.5640734 58.9916058,72.6608588 C58.1053459,71.7576443 57.219086,70.8544297 56.5297728,69.850858 C55.9389328,69.2487149 55.7419862,68.3455004 55.9389328,67.4422858 C56.0374062,66.5390712 56.5297728,65.7362138 57.3175593,65.234428 C58.0068726,64.6322849 58.8931325,64.4315706 59.7793924,64.6322849 C60.6656523,64.7326421 61.4534388,65.234428 62.0442788,66.0372854 C63.029012,67.3419286 64.2106918,68.4458575 65.5893183,69.3490721 C66.9679448,70.2522867 68.543518,70.8544297 70.1190911,71.1555012 C71.8916109,71.4565727 73.5656573,71.4565727 75.2397038,71.055144 C76.9137503,70.6537153 78.3908501,70.0515723 79.7694766,69.0480006 C81.1481031,68.0444288 82.2313096,66.8401428 83.2160428,65.4351423 C84.1023027,64.0301419 84.791616,62.4244271 85.0870359,60.617998 C85.3824559,58.8115689 85.3824559,57.1054969 84.9885626,55.399425 C84.5946693,53.693353 83.9053561,52.1879954 83.0190962,50.782995 C82.034363,49.3779946 80.8526831,48.2740656 79.4740566,47.2704939 C78.0954301,46.3672793 76.519857,45.6647791 74.7473372,45.3637076 C72.7778708,44.9622789 70.9068777,45.0626361 69.0358846,45.6647791 C66.9679448,46.0662078 65.2938984,46.9694224 63.8167985,48.2740656 C63.8167985,48.2740656 63.8167985,48.3744228 63.6198519,48.3744228 C63.7183252,48.3744228 63.7183252,48.3744228 63.6198519,48.3744228 L63.6198519,48.3744228 Z" id="Path" stroke="#FFFFFF" stroke-width="2.3158" fill="#17A8E3" fill-rule="nonzero" stroke-linecap="square" stroke-linejoin="round"></path>
                </g>
            </g>
        </g>
    </g>
</svg>