<?xml version="1.0" encoding="UTF-8"?>
<svg width="145px" height="113px" viewBox="0 0 145 113" version="1.1" xmlns="http://www.w3.org/2000/svg" xmlns:xlink="http://www.w3.org/1999/xlink">
    <!-- Generator: Sketch 59.1 (86144) - https://sketch.com -->
    <title>Group 514</title>
    <desc>Created with Sketch.</desc>
    <defs>
        <path d="M0.402,0.7135 C0.474666667,0.725 0.546666667,0.7265 0.611333333,0.7195 L0.611333333,0.7195 L5.51733333,0.1605 C5.45266667,0.1685 5.382,0.166 5.308,0.155 L5.308,0.155" id="path-1"></path>
        <path d="M0.806666667,1.274 C0.721333333,1.28666667 0.638666667,1.32466667 0.567333333,1.39 L0.567333333,1.39 L5.47466667,0.645333333 C5.546,0.580666667 5.62733333,0.542 5.71333333,0.528666667 L5.71333333,0.528666667" id="path-3"></path>
        <path d="M0.197090909,0.87 C0.92,1.3176 1.55127273,1.8948 2.06254545,2.5638 L2.06254545,2.5638 C3.84654545,2.3406 5.63054545,2.1168 7.41454545,1.8936 L7.41454545,1.8936 C6.904,1.2252 6.272,0.6468 5.54909091,0.1992 L5.54909091,0.1992 C3.76581818,0.423 1.98181818,0.6468 0.197090909,0.87" id="path-5"></path>
        <path d="M0.0473333333,1.12 C0.138,1.27 0.274666667,1.35866667 0.416,1.38733333 L0.416,1.38733333 C0.472666667,1.39866667 0.530666667,1.40133333 0.586666667,1.39266667 L0.586666667,1.39266667 L5.49333333,0.647333333 C5.43666667,0.656 5.37933333,0.654 5.32266667,0.642 L5.32266667,0.642 C5.18133333,0.613333333 5.04466667,0.526 4.95333333,0.375333333 L4.95333333,0.375333333" id="path-7"></path>
        <path d="M0.614666667,1.04266667 C0.402,1.07533333 0.271333333,1.304 0.244,1.604 L0.244,1.604 L5.15066667,0.859333333 C5.17733333,0.558666667 5.308,0.33 5.522,0.297333333 L5.522,0.297333333" id="path-9"></path>
        <path d="M5.57214286,0.55575 L0.315714286,1.3935 C0.893571429,1.302 1.49785714,1.3155 2.11214286,1.44675 L2.11214286,1.44675 C2.97071429,1.63125 3.77,2.028 4.47928571,2.5875 L4.47928571,2.5875 C6.23214286,2.3085 7.98428571,2.02875 9.73571429,1.749 L9.73571429,1.749 C9.02714286,1.1895 8.22714286,0.79275 7.36928571,0.60825 L7.36928571,0.60825 C7.01642857,0.53325 6.66714286,0.4965 6.32428571,0.4965 L6.32428571,0.4965 C6.07,0.4965 5.81857143,0.51675 5.57214286,0.55575" id="path-11"></path>
        <path d="M4.01225,0.871 C4.9775,2.39610526 5.4869375,4.33378947 5.31025,6.32415789 L5.31025,6.32415789 C5.022875,9.59194737 2.9830625,11.9825789 0.4365625,12.3677895 L0.4365625,12.3677895 L5.4965625,11.6028421 C8.04375,11.2176316 10.0821875,8.827 10.3709375,5.55921053 L10.3709375,5.55921053 C10.54625,3.56952632 10.0375,1.63115789 9.0715625,0.106736842 L9.0715625,0.106736842 C7.385125,0.361263158 5.6986875,0.616473684 4.01225,0.871" id="path-13"></path>
        <path d="M0.393454545,0.744 C1.072,0.8035 1.65090909,0.8015 2.16727273,0.7475 L2.16727273,0.7475 L7.52,0.189 C7.00290909,0.243 6.424,0.245 5.74618182,0.185 L5.74618182,0.185" id="path-15"></path>
        <path d="M0.0673333333,0.800666667 C0.036,1.15466667 0.166,1.48066667 0.458666667,1.54066667 L0.458666667,1.54066667 C0.507333333,1.55066667 0.554,1.55133333 0.596666667,1.54533333 L0.596666667,1.54533333 L5.50266667,0.800666667 C5.46066667,0.806666667 5.41466667,0.806 5.36533333,0.795333333 L5.36533333,0.795333333 C5.07266667,0.736 4.94266667,0.409333333 4.97333333,0.056 L4.97333333,0.056" id="path-17"></path>
        <path d="M2.844,1.0815 C1.93133333,1.2375 1.04866667,1.65075 0.300666667,2.28675 L0.300666667,2.28675 L5.20733333,1.44825 C5.95533333,0.81225 6.838,0.39975 7.75066667,0.24375 L7.75066667,0.24375" id="path-19"></path>
        <path d="M0.78,1.21866667 C0.694666667,1.23133333 0.612666667,1.27066667 0.538666667,1.33466667 L0.538666667,1.33466667 L5.44466667,0.589333333 C5.51933333,0.525333333 5.60133333,0.487333333 5.686,0.474 L5.686,0.474" id="path-21"></path>
        <path d="M4.96,1.16125 C2.49266667,1.513125 0.51,3.7 0.229333333,6.6825 L0.229333333,6.6825 C-0.111333333,10.323125 2.20866667,13.765 5.40333333,14.3775 L5.40333333,14.3775 C5.98133333,14.488125 6.548,14.499375 7.09066667,14.4225 L7.09066667,14.4225 L11.9966667,13.72375 C11.454,13.800625 10.888,13.789375 10.3106667,13.679375 L10.3106667,13.679375 C7.11466667,13.066875 4.79533333,9.625 5.13666667,5.984375 L5.13666667,5.984375 C5.416,3.00125 7.39933333,0.815 9.86733333,0.463125 L9.86733333,0.463125" id="path-23"></path>
        <path d="M0.538666667,1.5015 C0.305333333,1.74525 0.27,2.202 0.457333333,2.529 L0.457333333,2.529 L5.36466667,1.69125 C5.17666667,1.36425 5.212,0.90675 5.44466667,0.663 L5.44466667,0.663" id="path-25"></path>
        <path d="M0.607142857,0.845333333 C1.60142857,2.10866667 2.98428571,3.062 4.41928571,3.474 L4.41928571,3.474 L9.67571429,2.72933333 C8.24142857,2.31733333 6.85785714,1.36333333 5.86428571,0.100666667 L5.86428571,0.100666667" id="path-27"></path>
        <path d="M2.32581818,0.78125 C1.25963636,1.775625 0.487272727,3.236875 0.203636364,4.750625 L0.203636364,4.750625 L5.55563636,4.0525 C5.84072727,2.53875 6.61236364,1.076875 7.67854545,0.083125 L7.67854545,0.083125" id="path-29"></path>
        <path d="M0.0945,0.83 C0.0658,2.49266667 0.4984,4.30466667 1.2957,5.71933333 L1.2957,5.71933333 L6.4477,4.974 C5.6497,3.55933333 5.2185,1.74733333 5.2458,0.0853333333 L5.2458,0.0853333333" id="path-31"></path>
        <path d="M0.8456,0.903 C0.602,1.14 0.5635,1.617 0.7602,1.95075 L0.7602,1.95075 C0.8603,2.12025 0.9975,2.22525 1.1466,2.2575 L1.1466,2.2575 C1.1977,2.26875 1.2495,2.27025 1.3013,2.262 L1.3013,2.262 L6.4533,1.4235 C6.4022,1.43175 6.349,1.431 6.2986,1.419 L6.2986,1.419 C6.1495,1.38675 6.0123,1.2825 5.9115,1.11225 L5.9115,1.11225 C5.7148,0.7785 5.754,0.3015 5.9983,0.0645 L5.9983,0.0645" id="path-33"></path>
        <path d="M0.774,1.06875 C0.573333333,1.10325 0.421333333,1.2705 0.398,1.5705 L0.398,1.5705 C0.366666667,1.97475 0.588666667,2.2425 0.886,2.31 L0.886,2.31 L5.79333333,1.473 C5.49466667,1.404 5.27266667,1.137 5.304,0.732 L5.304,0.732 C5.32733333,0.43275 5.47933333,0.26475 5.68,0.23025 L5.68,0.23025" id="path-35"></path>
        <path d="M0.6839,0.676 C0.7658,0.6885 0.8456,0.69 0.9184,0.6825 L0.9184,0.6825 L6.5611,0.0705 C6.4869,0.0785 6.4078,0.0765 6.3266,0.0645 L6.3266,0.0645" id="path-37"></path>
        <path d="M0.945,0.8695 C0.8477,0.88 0.7518,0.9115 0.6699,0.965 L0.6699,0.965 L6.3119,0.353 C6.3938,0.2995 6.489,0.268 6.587,0.2575 L6.587,0.2575" id="path-39"></path>
        <path d="M0.00333333333,0.694 C0.108666667,0.814 0.254,0.89 0.409333333,0.914 L0.409333333,0.914 C0.47,0.923 0.532,0.924 0.592,0.9175 L0.592,0.9175 L5.96466667,0.306 C5.90466667,0.3125 5.844,0.311 5.78333333,0.302 L5.78333333,0.302 C5.62733333,0.278 5.482,0.202 5.37666667,0.082 L5.37666667,0.082" id="path-41"></path>
        <path d="M0.9604,1.25533333 C0.714,1.29066667 0.5663,1.54266667 0.5362,1.86733333 L0.5362,1.86733333 L6.1789,1.05133333 C6.2083,0.726666667 6.3553,0.475333333 6.6017,0.439333333 L6.6017,0.439333333" id="path-43"></path>
        <path d="M0.571333333,0.6385 C1.24866667,0.7025 1.82733333,0.6995 2.344,0.6405 L2.344,0.6405 L7.71733333,0.0285 C7.2,0.0875 6.62266667,0.0905 5.94533333,0.0265 L5.94533333,0.0265" id="path-45"></path>
        <path d="M0.1995,1.53975 C0.1638,1.97775 0.3087,2.37375 0.6517,2.44875 L0.6517,2.44875 C0.7077,2.46075 0.7595,2.463 0.8078,2.45475 L0.8078,2.45475 L6.4498,1.53675 C6.4015,1.54425 6.3497,1.54275 6.2944,1.53075 L6.2944,1.53075 C5.95,1.45575 5.8058,1.05975 5.8408,0.62175 L5.8408,0.62175" id="path-47"></path>
        <path d="M3.08976923,1.45275 C2.05130769,1.6245 1.04815385,2.07825 0.196615385,2.77875 L0.196615385,2.77875 L5.77661538,1.8615 C6.62746154,1.16025 7.63061538,0.7065 8.66976923,0.5355 L8.66976923,0.5355" id="path-49"></path>
        <path d="M0.58,0.682 C0.489333333,0.6925 0.4,0.723 0.323333333,0.7775 L0.323333333,0.7775 L5.69733333,0.1655 C5.77333333,0.111 5.862,0.0805 5.95333333,0.07 L5.95333333,0.07" id="path-51"></path>
        <path d="M5.76533333,0.95424 C3.06333333,1.34784 0.895333333,3.79776 0.589333333,7.14304 L0.589333333,7.14304 C0.216,11.2224 2.752,15.08864 6.25533333,15.776 L6.25533333,15.776 C6.88533333,15.89952 7.50466667,15.91232 8.098,15.82592 L8.098,15.82592 L13.4706667,15.04256 C12.8773333,15.12896 12.2586667,15.11616 11.628,14.99264 L11.628,14.99264 C8.12533333,14.30592 5.58933333,10.43904 5.96266667,6.35968 L5.96266667,6.35968 C6.26866667,3.0144 8.43666667,0.56448 11.1393333,0.17152 L11.1393333,0.17152" id="path-53"></path>
        <path d="M0.323333333,1.16625 C0.07,1.425 0.0306666667,1.929 0.236,2.2935 L0.236,2.2935 L5.60866667,1.3755 C5.404,1.01175 5.44333333,0.507 5.69733333,0.24825 L5.69733333,0.24825" id="path-55"></path>
        <path d="M0.354666667,1.09933333 C1.37066667,2.482 2.78266667,3.52666667 4.25333333,3.98266667 L4.25333333,3.98266667 L9.62666667,3.16733333 C8.15733333,2.71066667 6.74333333,1.666 5.728,0.282666667 L5.728,0.282666667" id="path-57"></path>
        <path d="M2.60733333,1.33866667 C1.53666667,2.5 0.761333333,4.20733333 0.480666667,5.98 L0.480666667,5.98 L5.85533333,5.16466667 C6.134,3.39133333 6.91,1.684 7.98066667,0.523333333 L7.98066667,0.523333333" id="path-59"></path>
        <path d="M0.410181818,1.2411 C0.371636364,3.1486 0.863272727,5.2353 1.77163636,6.8572 L1.77163636,6.8572 L7.63345455,6.0004 C6.72509091,4.3792 6.23272727,2.2918 6.27127273,0.3843 L6.27127273,0.3843" id="path-61"></path>
        <path d="M0.5145,1.1175 C0.2492,1.36875 0.2058,1.893 0.4207,2.2575 L0.4207,2.2575 C0.5306,2.4435 0.6832,2.5575 0.8414,2.592 L0.8414,2.592 C0.9002,2.60475 0.9597,2.60775 1.0185,2.598 L1.0185,2.598 L6.6612,1.67925 C6.6024,1.68975 6.5422,1.68675 6.4827,1.674 L6.4827,1.674 C6.3245,1.6395 6.1733,1.5255 6.0627,1.3395 L6.0627,1.3395 C5.8471,0.975 5.8905,0.45075 6.1558,0.19875 L6.1558,0.19875" id="path-63"></path>
        <path d="M1.0395,1.33125 C0.8113,1.36875 0.6377,1.5465 0.6104,1.87575 L0.6104,1.87575 C0.5747,2.31975 0.8316,2.619 1.1697,2.69325 L1.1697,2.69325 L6.8117,1.77525 C6.4729,1.701 6.216,1.40175 6.2524,0.95775 L6.2524,0.95775 C6.2797,0.6285 6.4526,0.45075 6.6815,0.41325 L6.6815,0.41325" id="path-65"></path>
    </defs>
    <g id="Symbols" stroke="none" stroke-width="1" fill="none" fill-rule="evenodd">
        <g id="Stats-top---Backup---Free" transform="translate(-42.000000, -30.000000)">
            <g id="Mask-+-Group-514-Mask">
                <g id="Group-514" transform="translate(-41.000000, 30.000000)">
                    <g id="Group-122" transform="translate(32.000000, 0.000000)">
                        <path d="M53.9979615,126.05622 C56.9749095,128.055751 61.5956159,128.687775 65.0158544,129.676598 C66.5043284,130.107011 68.249619,130.78347 69.7500379,130.010185 C71.3194722,129.201751 72.9798208,127.203546 74.1245456,125.954751 C76.9608086,122.859623 79.3902795,119.216032 80.5588942,115.149324 C82.87157,107.106765 80.7805394,98.6404247 74.371408,93.1252997 C71.4249859,90.5892441 60.7335884,83.7132441 60.254463,91.9899108 C60.2385364,92.2598309 59.6459339,91.6271434 59.5563468,93.2360531 C57.9543957,99.4793656 49.0295242,99.8878934 52.5174508,118.889741 C53.0271021,121.665873 51.3488361,124.276869 53.9979615,126.05622" id="Fill-4" fill="#977558"></path>
                        <path d="M88.8121275,76.9251174 C87.1743416,74.3446278 84.1715128,72.9048326 81.1660297,72.3457597 C75.1902346,71.234909 68.716733,73.3047389 64.4948554,77.6751903 C60.2736413,82.0449785 58.4327911,88.5840757 59.7540358,94.513034 C60.596155,98.2925792 62.7044394,101.832048 65.8220725,104.132006 C71.1481948,108.06077 78.5719838,107.885024 84.8490572,105.784024 C88.2241703,104.65394 91.623837,102.844083 93.3233385,99.7184472 C94.5417239,97.4775132 94.7361612,94.8068292 94.4673997,92.2707736 C93.8217086,86.1640792 90.5322009,80.3830132 85.6128706,76.7049368" id="Fill-6" fill="#977558"></path>
                        <path d="M1.34214832,154.219302 C1.87834404,152.901535 1.62219113,152.408118 2.63883945,151.483625 C4.06825229,150.185091 6.25616972,149.38992 7.94903517,148.499914 C9.26629817,147.808202 11.1662095,147.33866 12.2167018,146.325962 C13.0382492,145.532782 13.4822034,144.112882 14.1285581,143.15125 C14.6123287,142.430358 15.3681789,141.831493 15.8167783,141.11458 C16.3324021,140.29023 16.2998853,139.229118 17.0889159,138.510216 C18.6344602,137.100927 21.2815948,137.58108 23.1118272,136.762035 C24.7297049,136.03849 26.3024572,135.18098 27.8367202,134.263118 C35.5020627,129.030514 35.8909373,125.955282 42.3770474,119.278903 C49.5141575,111.933361 56.2557569,112.800157 56.2557569,112.800157 C56.2557569,112.800157 70.3315581,116.404618 71.7596437,127.12582 C73.188393,137.847021 63.1241055,138.542049 57.1323838,140.735896 C51.1413257,142.92908 45.2604266,145.317243 42.4215092,146.556091 C42.2038456,146.650927 41.9583104,146.73449 41.692867,146.806778 C41.0657569,147.169545 40.4406376,147.520375 39.8062278,147.778358 C38.285237,148.396455 36.5114113,148.653775 35.6719465,149.913844 C34.4847508,151.695848 34.0527416,153.180077 32.0479801,153.839955 C32.1687569,155.21542 32.0964235,156.539157 31.7214847,158.018743 C31.2848303,159.743049 30.7008547,160.618466 29.6450535,161.448122 C29.9416865,161.56617 30.2217294,161.728653 30.4792095,161.956792 C30.6457752,162.105348 30.6909006,162.410417 30.6145856,162.610702 C29.7718028,164.853625 29.8175917,169.601434 27.5374327,170.723559 C25.965344,171.497507 23.6553226,171.707077 21.9226407,172.167997 C20.460711,172.557292 18.1520168,173.446636 16.6588976,173.03015 C16.0503685,172.860372 15.701974,172.12091 15.1372431,171.907361 C14.1922645,171.549236 13.1344725,172.105657 12.1609587,171.925931 C11.2989312,171.766764 11.0281789,171.699782 10.6512492,170.868136 C10.3639067,170.233459 10.7979067,169.427677 10.5590076,168.873247 C10.4820291,168.694184 10.4707477,168.610622 10.4793746,168.574809 C10.4156682,168.566851 10.2597202,168.507827 9.90402599,168.287646 C8.5947263,167.477223 6.6264633,167.205976 5.70736544,165.830511 C5.00327676,164.776032 5.35299847,163.320983 5.19439602,162.155087 C5.17647859,162.025101 5.16785168,161.927611 5.1618792,161.846702 C5.10480887,161.990615 4.95616055,162.12458 4.60511162,162.033723 C4.14523089,161.914348 4.09081498,161.884504 3.69331346,161.615247 C2.54593425,160.83732 1.57507492,158.488948 1.00968043,157.309125 C0.236576453,155.694247 0.64403211,155.934323 1.34214832,154.219302" id="Fill-8" fill="#977558"></path>
                        <path d="M40.9370168,134.376591 C44.0938028,130.64148 46.5093379,126.349949 49.2779128,122.319716 C51.0139128,119.794272 53.1520596,117.194549 56.1535612,116.573136 C54.6478333,111.739775 57.1416743,106.596702 60.0681881,102.465664 C61.3708517,100.627952 62.8314541,98.7099937 62.9455948,96.4611014 C63.0331911,94.7348062 62.3018945,93.0781465 62.078922,91.3644521 C61.8878028,89.8875181 62.0822401,88.3621708 62.638344,86.9807368 C62.8692798,86.4064104 63.270763,85.7816812 63.8899098,85.7498479 C64.3245734,85.7272993 64.7081391,86.0137993 65.0439251,86.2910146 C66.5111636,87.5020076 67.8841697,88.8264069 69.1476804,90.2482958 L69.3135826,89.9995979 C73.3304052,98.0587368 77.3930168,106.247199 79.0593379,115.095539 C79.2418303,116.059824 79.3831789,117.031403 79.5059465,118.004973 C78.1953196,120.934303 76.278818,123.60366 74.1247446,125.954685 C73.4956437,126.640428 72.7099312,127.549004 71.8704664,128.365397 C72.3787905,137.89948 62.882552,138.630983 57.1323838,140.735962 C51.1413257,142.929147 45.2604266,145.31731 42.4215092,146.556157 C42.2038456,146.650994 41.9583104,146.734556 41.692867,146.806844 C41.0657569,147.169612 40.4406376,147.520442 39.8062278,147.778424 C38.285237,148.396522 36.5114113,148.653841 35.6719465,149.91391 C35.647393,149.950386 35.6274847,149.984872 35.6042584,150.021348 C34.3215031,146.818782 32.1953012,143.591678 30.100289,142.208254 C31.8130627,141.143827 37.7815581,138.112365 40.9370168,134.376591" id="Fill-14" fill="#4F216E"></path>
                        <path d="M159.750821,92.1225497 C163.978671,88.2733691 170.152885,86.8998934 175.771659,87.9702892 C181.390433,89.0406851 186.433194,92.372574 190.160683,96.7085392 C192.507203,99.4369212 194.406451,102.638824 195.115185,106.167018 C196.076754,110.949977 194.78139,115.932557 192.726194,120.358053 C188.243518,130.010848 179.564846,138.077945 169.095093,140.016463 C158.624677,141.955643 146.739448,136.688553 142.654937,126.860011 C140.723173,122.209692 140.579833,116.941275 141.641607,112.019046 C143.535546,103.233046 149.318231,95.3589385 157.137531,90.9181885" id="Fill-32" fill="#977558"></path>
                        <path d="M166.53728,116.041917 C166.781488,115.813778 167.797473,114.107379 168.145204,114.222775 C173.13554,115.883414 178.032308,115.75807 183.370375,115.285876 C186.652583,114.995397 189.258574,114.348119 192.1174,112.70406 C193.289332,112.030254 194.29669,111.067959 195.414871,110.335129 C195.261577,113.776445 194.189186,117.208476 192.726592,120.357987 C192.596525,120.637855 192.451195,120.910428 192.314491,121.187643 C192.421996,124.900206 191.99795,128.628022 191.029745,132.214577 C197.359907,130.968435 203.953522,131.302022 210.225287,132.812115 L210.230595,132.129688 C213.011779,133.111216 216.208381,134.547695 216.780412,137.439886 C216.994094,138.523546 216.781739,139.641692 216.555449,140.724025 C216.265452,142.109438 215.948247,143.489546 215.613124,144.864348 C212.348834,149.636032 207.390351,153.540921 202.337635,155.82032 C194.538244,159.33923 185.523785,157.839084 177.205452,157.260778 C174.541727,154.907765 172.525684,151.705862 172.350491,148.18231 C172.312666,147.422289 172.354473,146.631098 172.043241,145.936733 C171.670293,145.102435 170.862017,144.563258 170.096213,144.065199 C168.338978,142.920525 166.572452,141.718153 164.906131,140.410334 C173.718189,117.566601 159.983482,122.159223 166.53728,116.041917" id="Fill-34" fill="#661F88"></path>
                        <path d="M177.15953,93.2284264 C166.999019,83.8574889 153.142872,78.6029993 139.319906,78.8802146 C138.294631,78.9007736 137.256747,78.9491868 136.252707,78.7376278 C135.026359,78.4789819 133.916805,77.8462944 132.825833,77.2288604 C126.218946,73.4897701 119.41364,69.9549437 112.089392,67.9554125 C104.765145,65.9558812 96.8204229,65.5725549 89.6600865,68.0979993 C82.5004138,70.6234437 76.2651477,76.3428326 74.2524229,83.6598569 C73.6830468,85.727034 73.4594107,87.9659785 74.152218,89.9953535 C74.8987777,92.1792528 76.612215,93.8790201 78.3409153,95.4103361 C92.575319,108.018326 111.178258,114.617774 129.784515,118.563117 C138.510967,120.41343 147.55927,121.743135 156.319567,120.065916 C165.080527,118.388697 173.591307,113.227055 177.261062,105.10226 L177.15953,93.2284264 Z" id="Fill-38" fill="#977558"></path>
                        <path d="M152.953412,86.5019104 C155.80162,87.1193444 158.74207,87.6644903 161.53188,88.4828722 C162.877015,88.8774729 163.920871,89.5194451 164.978663,89.0770944 C165.601791,89.201775 166.424666,88.6393861 166.250137,87.7924868 C165.465088,83.9864139 155.990749,82.4186222 153.141213,81.6731917 C151.418486,81.2222194 142.674779,78.1138271 142.445171,82.0704451 C142.249406,85.4534 150.96325,86.070834 152.953412,86.5019104" id="Fill-40" fill="#A08167"></path>
                        <path d="M68.3070211,76.7550743 C68.3587826,79.134616 73.1268101,78.8109771 74.6278927,78.9522375 C78.7296572,79.3362271 82.9236633,78.8142931 87.0340547,78.6909389 C88.6539232,78.6418625 92.6256205,78.8461264 92.7092352,76.4679111 C92.7324615,75.8140014 91.9938651,75.4014944 92.0018284,74.7933451 C92.0243911,73.0020569 95.1347245,72.6472479 96.198489,72.5431264 C97.9019722,72.3760014 100.016893,73.0179736 101.648043,72.5782757 C105.310498,71.5907792 101.950648,65.4098069 98.5941159,66.9384701 C96.479859,66.886741 94.1061312,67.456425 92.3283239,67.9292826 C89.5245777,68.6760396 85.4294492,69.3949424 83.2468407,71.4329389 C82.7789966,71.8693208 82.9853789,72.7182097 83.5248927,72.9834875 C86.4752963,74.4365465 79.828593,73.8224285 79.1497214,73.7680465 C77.3865135,73.6261229 75.6233055,73.5127167 73.8534615,73.6798417 C72.1632505,73.8396715 68.254596,74.3430361 68.3070211,76.7550743" id="Fill-42" fill="#A08167"></path>
                        <path d="M155.667439,103.785089 C165.018347,104.98945 171.469949,112.931867 170.976224,121.463864 C170.81165,124.308968 169.875298,127.219065 168.017857,129.980607 C158.761182,144.364631 148.668359,168.764881 127.762035,162.490398 C116.077879,159.080916 105.175454,153.56778 93.7879309,149.19136 C90.9410502,148.097089 93.0148269,141.12161 90.1168483,140.106923 C70.4946067,134.377586 59.0340869,116.072756 64.1505089,98.5571274 C65.8447015,92.4975198 68.2350196,87.0679469 72.5199401,82.1490337 C74.1232183,80.0228323 75.9481419,78.1579295 78.0557627,76.8275615 C80.3073865,74.9858705 82.8689156,73.6687663 85.7589309,73.3842559 C88.7776862,73.0858184 91.7752061,73.9691934 94.6751755,74.857874 C111.396784,79.9817142 128.053359,85.6579955 143.825344,93.1447976 C146.453897,94.3922663 149.058561,95.690801 151.634026,97.0450441 C157.932335,100.581197 166.712539,103.469409 167.75905,111.417131" id="Fill-44" fill="#977558"></path>
                        <path d="M128.839868,156.6836 C126.35399,156.73533 123.863467,156.594732 121.41807,156.286347 C113.090446,155.235184 104.159602,153.693257 96.3568924,150.755968 C89.6511278,148.233177 84.5619138,146.620951 78.2914765,142.425583 C66.2091554,134.341906 59.5604612,117.986205 62.8639046,103.834961 C75.5826263,109.977468 91.3307211,106.80143 104.868999,110.830336 C110.301299,112.446541 115.295617,115.261802 120.603822,117.249395 C134.856143,122.587448 151.358097,121.583371 164.857886,114.556826 C166.094853,113.913527 168.848165,113.659524 170.219843,113.908885 C169.779207,115.025041 167.453923,118.146034 166.974134,118.872895 C165.523486,121.068069 164.838642,123.824305 164.28121,126.359034 C162.403198,134.907611 157.970957,143.928382 150.987804,149.451465 C144.773109,154.367062 136.832369,156.517139 128.839868,156.6836" id="Fill-60" fill="#661F88"></path>
                        <polyline id="Stroke-62" stroke="#BFB07C" points="155.01677 32.1011976 164.475847 36.1838226 162.889159 39.374451"></polyline>
                        <polyline id="Stroke-64" stroke="#BFB07C" points="155.530072 30.5484604 162.791276 25.2820333 161.193971 29.4150611"></polyline>
                        <line x1="155.330458" y1="31.1520337" x2="139.130446" y2="34.9939191" id="Stroke-66" stroke="#BFB07C"></line>
                        <path d="M165.517911,25.6544833 C165.265076,25.9025181 164.848994,25.1849417 164.807187,25.0708722 C164.726226,24.8533444 164.680437,24.6305111 164.679774,24.405025 C164.688401,24.2995771 164.696364,24.1981083 164.704327,24.1065875 C164.746798,23.6310771 164.112388,23.6257715 164.032092,24.0641431 C164.02081,24.1258201 164.015502,24.1961187 164.014174,24.2710597 C163.992939,24.544959 163.957768,24.9223167 163.866853,25.2094799 C163.732804,24.8685979 163.726832,24.3904347 163.752713,24.1165354 C163.801156,23.6105181 163.097067,23.5906222 163.029379,24.070775 C163.026725,24.0906708 163.021416,24.1092403 163.018098,24.1284729 C163.004162,24.074091 162.990226,24.0183826 162.975627,23.9646639 C162.915902,23.7477993 162.619269,23.6675528 162.43744,23.7663687 C162.348517,23.8154451 162.270211,23.8844174 162.205177,23.9679799 C162.209159,23.9401257 162.212477,23.9109451 162.215795,23.8857437 C162.439431,23.7676951 162.511765,23.3737576 162.215795,23.2630042 L162.099664,23.2192333 C161.917835,23.1509243 161.758569,23.2756049 161.683581,23.4314556 C161.292716,24.2471847 161.428755,26.836959 162.517737,27.1135111 C162.669703,27.1519764 162.866131,27.1148375 162.949746,26.9616396 C163.07185,26.7381431 163.151483,26.5033722 163.198599,26.2619694 C163.289514,26.1731014 163.365829,26.0517368 163.428872,25.905834 C163.497887,25.9953653 163.574865,26.0776014 163.669098,26.1406049 C163.809783,26.2354417 163.964404,26.2135562 164.093807,26.1140771 C164.223211,26.0139347 164.322089,25.8786431 164.399067,25.7234556 C164.746798,26.3753757 165.295602,26.7945146 165.914086,26.1744278 C166.208728,25.8786431 165.839761,25.3381396 165.517911,25.6544833" id="Fill-68" fill="#BFB07C"></path>
                        <path d="M161.699574,38.050516 C162.079822,38.091634 162.3738,37.4954222 161.965681,37.3176861 C161.555571,37.1392868 161.793806,36.1982139 162.110348,36.0370576 C162.370482,35.9050819 162.323366,36.0271097 162.41229,36.3215681 C162.470687,36.5172104 162.510504,36.7174951 162.570228,36.9138007 C162.678397,37.2699361 163.089834,37.2129014 163.259718,36.9469604 C163.359259,36.7897833 163.536443,36.3454431 163.730216,36.0224674 C163.721589,36.0748597 163.712962,36.1239361 163.701681,36.1756653 C163.615412,36.4004882 163.539097,36.6299535 163.469418,36.8547764 C163.347978,37.2440715 163.9074,37.4005854 164.083256,37.0623562 C164.257121,36.6717347 164.472131,36.1988771 164.762128,35.8308042 C164.725629,36.4561965 164.232568,37.5272556 164.129045,37.8038076 C163.953189,38.2680437 164.533183,38.5949986 164.782699,38.1373944 C165.022926,37.6983597 165.274433,37.2666201 165.520632,36.8315646 C165.667953,36.5709292 165.853764,36.1657174 166.09399,35.8705958 C166.068109,36.6995889 165.35473,37.7673319 165.028898,38.360891 C164.812562,38.7541653 165.368002,39.0220958 165.597611,38.6513701 C166.195522,37.6837694 167.242696,36.1696965 166.794761,34.9686514 C166.708491,34.7365333 166.507418,34.6277694 166.265865,34.6980681 C165.98184,34.7809674 165.732323,34.9620194 165.510678,35.1994431 C165.456262,35.0336444 165.368666,34.8837625 165.227981,34.7630611 C165.083314,34.6383806 164.888877,34.6317486 164.729611,34.7358701 C164.600871,34.8200958 164.490712,34.9202382 164.387189,35.0256861 C164.315519,34.9202382 164.184788,34.844634 164.06003,34.8665194 C163.592186,34.946766 163.301525,35.3400403 163.06329,35.7678007 C162.977684,35.5177764 162.856907,35.2876479 162.651189,35.137766 C162.225816,34.8293806 161.759299,35.1636306 161.475938,35.519766 C160.972923,36.1517903 160.479861,37.9165507 161.699574,38.050516" id="Fill-70" fill="#BFB07C"></path>
                        <path d="M154.683042,31.6701875 C154.727503,31.4546493 154.787892,31.2411007 154.864207,31.0288785 C154.846289,31.0514271 154.828372,31.0726493 154.810454,31.0951979 C154.629953,31.3299687 154.493913,31.566066 154.35721,31.8280278 C154.263641,32.0070903 154.175381,32.1642674 154.176708,32.1642674 C154.345928,32.1337604 154.525766,31.9135799 154.683042,31.6701875 M158.449684,32.2597674 C158.360097,32.4753056 158.115225,32.5316771 157.949323,32.4534201 C157.431045,33.0250938 156.71302,33.7871042 156.172843,33.1040139 C156.136344,33.0589167 156.1171,33.0012187 156.089892,32.9488264 C155.902091,33.2094618 155.672482,33.4110729 155.310815,33.5264687 C155.163494,33.5735556 154.957776,33.493309 154.874824,33.3653125 C154.787892,33.2320104 154.725513,33.0867708 154.681714,32.9348993 C154.373136,33.135184 154.051286,33.1935451 153.73939,33.0171354 C153.049237,32.6251875 153.452048,31.7305382 153.758635,31.1867187 C154.230461,30.348441 154.963748,29.6520868 155.764724,29.1341319 C156.01225,28.9743021 156.194078,29.1354583 156.24584,29.3556389 C156.355999,29.4338958 156.434968,29.5691875 156.43165,29.7402917 C156.430323,29.796 156.423687,29.8603299 156.412406,29.9312917 C156.62476,29.7011632 157.062742,29.9014479 157.061415,30.2608993 C157.060087,30.6787118 156.926039,31.1668229 156.754828,31.6204479 C156.710366,31.9228646 156.701075,32.1874792 156.781372,32.2902743 C156.888876,32.4282188 157.723032,31.5508125 157.920124,31.4108785 C158.159687,31.2411007 158.458311,31.3253264 158.518035,31.6317222 C158.571788,31.9115903 158.559179,31.9951528 158.449684,32.2597674" id="Fill-72" fill="#BFB07C"></path>
                        <path d="M153.01108,30.2498903 C153.033643,29.8307514 152.437722,29.8042236 152.407196,30.2120882 C152.381315,30.5562861 152.19086,32.6354007 152.153034,32.6347375 C152.132462,32.6347375 151.765487,30.8998208 151.682535,30.5430222 C151.612193,30.2379528 151.22,30.1079667 151.032199,30.402425 C150.618107,31.0523556 150.807899,32.1068347 150.48804,32.817116 C150.31882,32.3754285 150.258431,31.8216611 150.125046,31.4144597 C150.028823,31.1166854 149.59615,31.1916264 149.511208,31.4569042 C149.459447,31.616734 149.439539,31.8342618 149.422285,32.0637271 C149.420957,31.8601264 149.425603,31.6651472 149.424939,31.5026646 C149.423612,31.1246437 148.898034,30.924359 148.777921,31.3448243 C148.769957,31.3720153 148.718196,31.4058382 148.722178,31.4065014 L148.862199,31.452925 L148.848927,31.4933799 C148.739431,31.8236507 148.675061,32.4337896 148.519777,32.6300951 C148.517786,32.905984 148.452089,32.9524076 148.371129,32.7872722 C148.302777,32.4974562 148.241061,32.2003451 148.209872,31.9045604 C148.161428,31.5596993 147.758618,31.5729632 147.611297,31.8103868 C147.606652,31.8050812 147.603334,31.7984493 147.598688,31.7931437 C147.408233,31.5683208 147.120227,31.6784111 147.008077,31.9145083 C146.974896,31.9834806 146.582704,32.9696507 146.489798,32.9835778 C146.497098,32.9822514 146.480508,32.4059354 146.471217,32.0325569 C146.48449,31.8972653 146.48648,31.7606472 146.4606,31.6193868 C146.382294,31.1975951 145.782392,31.2493243 145.752529,31.6731056 C145.743902,31.7997757 145.725985,31.974859 145.71404,32.1698382 C145.593263,32.5292896 145.277386,32.8642028 145.077639,33.0578556 C144.739863,33.3854736 145.161918,33.9922965 145.52093,33.6401403 C145.615162,33.5479562 145.709395,33.4478139 145.800973,33.3443556 C145.895869,33.6315187 146.071725,33.8424146 146.388266,33.8656264 C146.617875,33.8822062 146.801031,33.7555361 146.955652,33.5711681 C146.98485,33.744925 147.040594,33.8934806 147.150089,34.0785118 C147.304046,34.3391472 147.673676,34.1753382 147.758618,33.9525049 C147.806398,33.8271611 147.844887,33.7031437 147.882049,33.5784632 C147.976945,33.7170708 148.102367,33.8331299 148.270924,33.9147028 C148.42289,33.9883174 148.596092,33.8841958 148.687006,33.7688 C148.773276,33.6600361 148.841627,33.5393347 148.902016,33.4146542 C148.953777,33.5413243 149.014829,33.6626889 149.100435,33.7694632 C149.259037,33.9670951 149.523817,33.9200083 149.665829,33.7343139 C149.764043,33.604991 149.828413,33.4650569 149.875529,33.3191542 C149.945872,33.4809736 150.034132,33.6328451 150.152254,33.7668104 C150.286967,33.9173556 150.511266,33.9511785 150.668542,33.8059389 C151.087279,33.4186333 151.171557,32.888741 151.227964,32.3482375 C151.380594,32.9139424 151.63741,33.3907792 152.109236,33.3728729 C153.149774,33.3350708 152.976572,30.8713035 153.01108,30.2498903" id="Fill-74" fill="#BFB07C"></path>
                        <path d="M105.651195,56.6468198 C105.028066,56.2356392 100.272647,44.2477365 101.842082,30.3027469 C103.411516,16.3577573 112.126024,12.6763649 112.126024,12.6763649 C112.126024,12.6763649 113.600562,1.31451771 132.452354,1.56387882 C151.304146,1.81257674 160.901917,2.00490312 163.85232,0.533937847 C165.656008,3.33527118 159.849433,19.8660559 147.197736,19.2917295 C134.546702,18.7174031 105.651195,56.6468198 105.651195,56.6468198" id="Fill-76" fill="#FDF103"></path>
                        <path d="M153.858707,13.7017299 C152.794943,15.4373097 151.628319,17.290275 150.259958,18.8003687 C149.057499,20.1287472 148.512013,19.7381257 146.998322,18.9011743 C142.617842,16.478525 137.570435,14.4106847 132.5436,13.9676708 C130.286667,13.7693757 127.864496,13.9895562 125.616854,14.2468757 C123.152875,14.5293965 121.189921,15.619025 119.65964,17.6331465 C118.400774,19.2891431 117.542728,21.2236812 116.511481,23.0143062 C115.612955,24.5741396 114.919484,24.8301326 113.196092,24.7730979 C112.86827,24.7618236 112.836417,24.3360528 113.028863,24.1496951 C114.308964,22.9101847 115.196209,21.1235389 115.993202,19.5517681 C116.276563,18.9940215 118.288624,14.5545979 117.713939,14.2428965 C117.516184,14.135459 117.394744,13.8715076 117.543392,13.664591 C117.508884,13.6486743 117.47305,13.6393896 117.438542,13.6175042 C117.323074,13.5445528 117.435887,13.3190667 117.558655,13.3853861 C117.613735,13.4152299 117.68275,13.4284937 117.758401,13.4337993 C117.871215,13.3588583 117.991328,13.3548792 118.094187,13.39865 C119.215022,13.1472993 121.311361,11.6391951 121.972979,11.3387681 C123.298869,10.7365875 124.615469,10.0296222 125.990465,9.55742778 C128.834692,8.58120556 131.872692,8.15941389 134.879502,8.09309444 C138.200199,8.02080625 141.177811,8.64686181 144.249655,9.87642431 C147.346716,11.1159347 150.08742,12.9529833 153.530884,12.9039069 C153.948294,12.8986014 154.029254,13.422525 153.858707,13.7017299" id="Fill-78" fill="#FFE113"></path>
                        <path d="M105.852069,35.3306892 C105.852069,35.3306892 99.3268061,45.5836753 102.313045,49.4414774 C105.299283,53.2986163 113.044259,41.3949392 113.044259,41.3949392 C113.044259,41.3949392 111.969876,32.9504844 111.87498,32.611592 C111.780748,32.2733628 105.852069,35.3306892 105.852069,35.3306892" id="Fill-80" fill="#DEB08A"></path>
                        <path d="M112.584046,37.8154135 C110.447227,37.158851 108.441802,37.4533094 106.496765,38.9275906 C105.356022,39.791733 104.438251,40.8409066 103.508535,41.9205872 C103.092453,42.4040559 102.77193,42.7104517 101.984227,43.8451774 C101.984227,43.8458406 101.983563,43.8465038 101.983563,43.8478302 C101.89663,44.1117816 101.793771,44.2755906 101.738028,44.5415316 C101.72741,44.5959135 101.614597,45.2299274 101.540936,46.2817541 C101.540936,46.282417 101.937774,45.2060524 103.947844,43.0506705 C104.989046,41.9325247 106.022948,40.8966149 107.28115,40.0172191 C108.009129,39.5065594 108.476973,39.0065108 109.383462,38.9143267 C110.31915,38.8188267 111.254838,39.0058476 112.132129,39.331476 C112.359746,39.4157017 112.586701,39.4972747 112.818964,39.5808372 C112.751276,39.051608 112.66567,38.4447851 112.584046,37.8154135" id="Fill-82" fill="#BA8F6D"></path>
                        <path d="M124.201775,86.0064378 C123.981457,85.7146323 123.605854,85.6476497 123.317848,85.464608 C123.312539,85.464608 123.307894,85.4665976 123.303249,85.4659344 C123.163228,85.4493545 123.092885,85.348549 123.078286,85.2364691 C123.053732,85.2006566 123.027188,85.1661705 123.007943,85.1223997 C122.980735,85.0607226 123.058377,85.0010351 123.108148,85.0448059 C123.15261,84.9526219 123.239543,84.884976 123.362974,84.8969135 C123.333111,84.8935976 124.365023,84.0606253 124.326533,84.0878163 C124.854766,83.7131115 125.381007,83.3370802 125.931139,82.9942087 C127.077854,82.2799483 128.260405,81.6227226 129.401812,80.9005038 C130.944038,79.925608 132.447775,78.8877087 133.943549,77.8391983 C134.681481,78.2258406 135.44065,78.5660594 136.252906,78.7378267 C137.256946,78.9487226 138.294166,78.9003094 139.319442,78.8797503 C142.848512,78.8087885 146.378246,79.1039101 149.848919,79.7306288 C149.615328,80.0085073 149.39501,80.2724587 149.230435,80.5052399 C148.505775,81.5265594 147.722717,82.4749274 146.845426,83.3682503 C145.090182,85.1555594 143.043613,86.5999969 141.172237,88.257983 C139.772023,89.499483 137.930509,91.1017608 136.015998,91.409483 C133.89046,91.7510281 132.25201,90.3768892 130.476194,89.3787816 C128.495986,88.2659413 126.629919,86.9574587 124.558133,86.0203649 C124.459919,86.1158649 124.307289,86.1457087 124.201775,86.0064378" id="Fill-84" fill="#886752"></path>
                        <path d="M98.4623232,77.1669844 C98.4623232,77.1669844 92.4759104,77.4057344 92.0969899,80.5088212 C91.7180694,83.611908 92.4049043,84.9906892 95.9844089,92.4443316 C99.5639135,99.8973108 99.0801428,105.456207 101.1871,105.48286 C103.294057,105.509925 105.901375,101.104325 113.625115,97.6623455 C121.347528,94.2203663 142.74625,81.3975017 145.805485,79.7819601 C148.864057,78.1664184 142.754877,75.6893872 141.534501,75.4711962 C140.314124,75.2530052 98.4623232,77.1669844 98.4623232,77.1669844" id="Fill-86" fill="#3C3F48"></path>
                        <path d="M141.534633,75.4711299 C141.304361,75.4300118 140.870361,74.7635014 138.223227,74.8888451 C137.847624,75.1269319 137.470031,75.362366 137.105046,75.6190222 C134.558117,77.4050049 132.033086,79.2380743 129.401878,80.9007028 C128.259808,81.6222583 127.077257,82.2801472 125.931205,82.9937444 C125.381074,83.336616 124.854832,83.7126472 124.3266,84.0880153 C124.365089,84.0608243 123.333178,84.8937965 123.36304,84.8964493 C123.239609,84.8845118 123.152676,84.9528208 123.107551,85.0450049 C123.058444,85.001234 122.980802,85.0609215 123.008009,85.1225986 C123.027254,85.1663694 123.053135,85.2001924 123.077688,85.2366681 C123.092951,85.3487479 123.16263,85.4488903 123.302652,85.4654701 C123.307961,85.4661333 123.312606,85.4641437 123.317915,85.4648069 C123.605257,85.6478486 123.981523,85.7148313 124.202505,86.0066368 C124.307355,86.1459076 124.459985,86.1160639 124.558199,86.0199007 C126.39374,86.8508833 128.067361,87.9716819 129.802034,88.9903486 C137.671768,84.5144493 144.109435,80.6778694 145.805618,79.7818937 C148.864854,78.1663521 142.755009,75.6893208 141.534633,75.4711299" id="Fill-88" fill="#232939"></path>
                        <path d="M138.659881,79.3880889 L138.659881,79.3880889 C134.366334,77.3633562 134.265465,50.820325 134.265465,50.820325 C134.265465,50.820325 104.450196,55.861266 100.719389,64.4151479 C96.9507557,73.0545819 96.5864346,78.2626479 96.5864346,78.2626479 C96.6103245,78.5080299 96.5811257,88.587259 103.363205,97.0317139 C122.071658,86.0405924 142.88375,78.5020611 142.88375,78.5020611 L138.659881,79.3880889 Z" id="Fill-90" fill="#FBC29C"></path>
                        <path d="M139.670822,79.1759993 L138.660146,79.3882215 C138.332324,79.2336972 138.032373,78.9219958 137.751666,78.5055097 C137.303731,78.427916 136.847831,78.3708812 136.398569,78.2919611 C134.593553,77.9762806 132.807119,77.6101972 131.023339,77.1884056 C127.56063,76.3693604 124.061422,75.7134611 120.599376,74.8911 C117.116758,74.0634333 113.692538,73.0693049 110.293535,71.9478431 C108.799088,71.4544264 107.301324,70.7719993 105.763079,70.4410653 C104.555312,70.1804299 103.28981,69.6565062 102.068107,69.5497319 C101.61088,69.5099403 101.294339,70.0491174 101.464223,70.447034 C101.633443,70.8442875 101.867033,71.1805271 102.135795,71.4889125 C102.680617,72.5612979 103.766281,73.3319299 104.692679,74.0687389 C106.518266,75.5211347 108.405569,76.8528292 110.296189,78.2150306 C113.806015,80.7444542 117.100168,83.5650201 120.451391,86.2953917 C120.834293,86.6077562 121.298819,87.022916 121.801835,87.4016 C129.524247,83.7765792 136.182896,81.0787042 139.851987,79.6521729 C139.877205,79.4737736 139.825443,79.3006799 139.670822,79.1759993" id="Fill-92" fill="#BA8F6D"></path>
                        <path d="M110.125376,37.9083271 L99.5885997,67.1578549 L99.4061073,68.0763792 C99.4061073,68.0763792 96.2592755,70.170084 112.623863,75.9445181 C128.987786,81.7196153 137.231132,81.9974937 139.503328,82.0468465 C141.774196,82.0949833 149.356587,75.7714243 150.326783,71.7756778 C151.297643,67.7799312 147.441413,50.5023896 148.600074,35.9339972 C149.757407,21.3656049 150.517902,16.9149069 148.308086,13.6493375 C146.097606,10.3844312 120.842655,9.95534444 118.835239,13.8569174 C116.024193,22.4101361 114.286866,22.3942194 112.294713,26.0988236 C110.138649,32.2274035 110.125376,37.9083271 110.125376,37.9083271" id="Fill-94" fill="#FBC29C"></path>
                        <path d="M132.452155,39.080258 C133.947265,38.0125149 135.392604,36.8287128 136.940139,35.8432059 C137.502216,35.4850809 138.086191,35.0705844 138.697375,34.7980115 C139.558739,34.4140219 140.522298,34.4140219 141.457987,34.3675983 C141.777846,34.3516816 141.961002,33.8615809 141.606635,33.7329212 C139.079613,32.8163865 136.39598,34.8550462 134.558448,36.3644767 C133.282329,37.412324 131.87747,38.3832406 130.513091,39.3203344 C129.182555,40.2348795 127.572641,40.7899733 126.097439,41.4332719 C124.376039,42.1833448 122.596904,43.0587615 120.657176,42.6767615 C119.037308,42.3584281 117.532907,41.3941434 116.098185,40.6208587 C115.295883,40.1884559 114.540032,39.656574 113.772237,39.155199 C114.171066,39.1233656 114.342277,38.5284802 113.920886,38.3275323 C112.611586,37.7028031 111.355375,37.4109976 110.135662,37.4879281 C110.126372,37.7518795 110.125045,37.9083934 110.125045,37.9083934 L109.770678,38.8919108 C110.569662,38.8806365 111.369974,39.0490878 112.117198,39.3263031 C112.447011,39.4483309 112.782797,39.5683691 113.121237,39.6910601 C113.459014,39.9337892 113.7948,40.1804976 114.146513,40.4006781 C115.352289,41.1547302 116.613146,41.8099663 117.870684,42.4724976 C120.33599,43.7703691 122.625439,43.8439837 125.230766,42.8332753 C127.859983,41.8132823 130.168678,40.7117163 132.452155,39.080258" id="Fill-96" fill="#DEB08A"></path>
                        <path d="M121.14035,22.2750434 C121.14035,22.2750434 127.210377,14.7968628 132.620114,17.4741788 C134.420484,16.5138733 131.973096,12.7734566 130.190643,12.0691441 C128.407527,11.3654948 121.92208,12.9651198 121.14035,22.2750434" id="Fill-98" fill="#DEB08A"></path>
                        <path d="M143.003133,19.0578208 C140.845078,19.8417167 145.11009,13.8676611 146.50964,13.7635396 C147.909854,13.6587549 151.189408,15.1635431 148.705521,21.8657861 C147.653038,22.5548451 146.162573,17.9111576 143.003133,19.0578208" id="Fill-100" fill="#DEB08A"></path>
                        <path d="M121.550592,18.9182184 C121.550592,18.9182184 127.62062,11.4400378 133.030357,14.1173538 C134.830727,13.1577115 132.383339,9.4166316 130.600886,8.71298229 C128.81777,8.00866979 122.332323,9.60829479 121.550592,18.9182184" id="Fill-102" fill="#FEC000"></path>
                        <path d="M146.142333,15.9034028 C143.984278,16.6866354 148.24929,10.7132431 149.648177,10.6084583 C151.048391,10.5036736 154.327945,12.009125 151.844721,18.7113681 C150.791575,19.4004271 149.301773,14.7567396 146.142333,15.9034028" id="Fill-104" fill="#FEC000"></path>
                        <path d="M117.365412,54.1488316 C117.340195,53.9226823 117.566486,53.7582101 117.801403,53.8304983 C120.240828,54.5772552 132.895843,57.9316927 141.235412,57.5191858 C142.449152,57.4356233 140.952051,57.9482726 140.746996,58.775276 C140.542605,59.6016163 139.125137,66.2116753 136.326036,67.3099253 C133.527599,68.4081753 125.073226,64.0954219 122.193828,61.7516927 C118.217486,58.515967 117.494816,55.3160538 117.365412,54.1488316" id="Fill-106" fill="#3C3F48"></path>
                        <path d="M139.420045,57.9469462 C139.420045,57.9469462 127.769069,57.6047378 118.247613,54.5381267 C118.008051,55.0043524 119.05788,60.231651 127.84472,64.6664323 C132.296207,66.9133351 135.874384,67.0055191 135.874384,67.0055191 L136.876433,62.8970295 L138.315136,63.0004878 L139.420045,57.9469462 Z" id="Fill-108" fill="#F0F1F1"></path>
                        <path d="M143.170362,51.9863535 C143.138509,52.2927493 142.865766,52.5142563 142.559842,52.4804333 C140.552426,52.254284 133.749775,51.4551347 133.498267,50.9570757 C133.202961,50.3728014 142.335543,46.1237146 142.335543,46.1237146 C142.335543,46.1237146 143.255304,40.6119056 143.139172,40.4222319 C143.023705,40.2318951 141.552484,34.0953569 141.552484,34.0953569 C141.552484,34.0953569 146.043787,39.2178708 146.91975,41.0184437 C147.795714,42.8183535 148.278821,46.1230514 148.278821,46.1230514 C148.278821,46.1230514 148.278157,47.8500097 146.378909,47.4580618 C144.479662,47.0661139 143.737084,46.5859611 143.737084,46.5859611 L143.170362,51.9863535 Z" id="Fill-110" fill="#BA8F6D"></path>
                        <path d="M115.942967,50.5171125 C114.993343,51.0025708 121.243209,46.9875917 124.470337,46.3893903 C126.457181,46.1964007 128.777157,46.3277132 128.553521,46.5127444 C128.329221,46.6977757 127.370307,47.333116 124.98397,47.7575604 C122.597634,48.1820049 120.789964,48.0387549 115.942967,50.5171125" id="Fill-112" fill="#DEB08A"></path>
                        <path d="M111.341107,54.1698549 C111.300627,54.3456014 110.433291,57.3246708 109.954829,58.0674486 C109.476367,58.8095632 110.80823,58.0409208 111.509664,56.4028306 C112.211098,54.7647403 111.526918,53.3534625 111.341107,54.1698549" id="Fill-114" fill="#DEB08A"></path>
                        <path d="M120.266775,65.9642375 C119.045072,65.0284701 127.404549,69.9586576 129.579194,70.3300465 C131.755167,70.7014354 133.256249,71.1351646 134.003472,71.849425 C134.750032,72.5630222 135.110372,73.2248903 134.493879,73.2447861 C133.87805,73.2640187 130.886503,71.5788417 127.094644,70.2696958 C123.302784,68.9598868 121.701497,67.0631507 120.266775,65.9642375" id="Fill-116" fill="#DEB08A"></path>
                        <path d="M141.552153,34.0956222 C141.552153,34.0956222 143.638538,36.8147194 144.270957,42.4976326 C144.971728,44.5362924 147.900232,46.6479035 149.824697,45.5993931 C151.748498,44.5508826 150.672789,42.2568931 150.672789,42.2568931 C150.672789,42.2568931 154.087055,39.5968201 154.795125,35.1182681 C155.503859,30.6390528 155.507177,22.9254382 153.95566,21.5221188 C152.404143,20.1181361 146.955917,19.4536153 141.279409,21.9803861 C138.444474,27.5412715 140.01988,32.4840597 141.552153,34.0956222" id="Fill-118" fill="#2C3342"></path>
                        <path d="M153.598174,38.0245851 C151.367786,38.5558038 148.846073,38.7414983 146.753052,37.9257691 C146.354223,37.5437691 145.963358,37.1146823 145.537985,36.8699635 C145.396636,36.7877274 145.005107,36.6252448 144.600969,36.4362344 C144.295709,36.0071476 144.103263,35.5124045 143.943333,34.999092 C144.166969,34.279526 143.859055,33.5566441 143.572376,32.8874809 C143.362676,31.5869566 143.106523,30.1922587 142.676505,28.9746337 C142.532502,28.5680955 142.028823,28.6231406 141.805187,28.9103038 C141.497272,29.3068941 141.262355,29.6981788 141.50059,30.2227656 C141.57956,30.3965226 141.768688,30.493349 141.882829,30.6346094 C141.908046,31.9470712 142.127037,33.1799497 142.511266,34.5401615 C142.547765,34.6668316 142.582936,34.7921753 142.618771,34.9175191 C142.624743,34.9606267 142.630716,35.0043976 142.635361,35.0475052 C142.616116,35.0713802 142.598199,35.0952552 142.590899,35.1224462 C142.51193,35.3983351 142.503303,35.6337691 142.531174,35.8493073 C142.62607,36.0555608 142.722294,36.2797205 142.821171,36.5224497 C142.852361,36.5615781 142.875587,36.6040226 142.911422,36.6418247 C142.939294,36.762526 142.972474,36.8825642 143.006318,37.0019392 C143.091924,37.2307413 143.176865,37.4741337 143.261144,37.7314531 C143.541187,38.4065851 143.938688,39.0220295 144.530627,39.5088142 C146.090771,40.7920955 147.792927,41.3339253 149.726018,40.875658 C150.842872,40.6110434 151.925217,40.0725295 153.013535,39.5956927 C153.34733,39.0896753 153.671171,38.5180017 153.957187,37.8826615 C153.837073,37.9284219 153.717624,37.9748455 153.598174,38.0245851" id="Fill-120" fill="#232939"></path>
                    </g>
                    <g id="Group-125" transform="translate(187.000000, 32.000000)">
                        <mask id="mask-2" fill="white">
                            <use xlink:href="#path-1"></use>
                        </mask>
                        <g id="Clip-124"></g>
                        <path d="M5.5176,0.1607 L0.6116,0.7197 C0.546266667,0.7267 0.4756,0.7247 0.4016,0.7137 L5.30826667,0.1547 C5.3816,0.1662 5.45226667,0.1682 5.5176,0.1607" id="Fill-123" fill="#4C392A" mask="url(#mask-2)"></path>
                    </g>
                    <polygon id="Fill-126" fill="#4A3728" points="193 32.1292835 187.596916 33 187 32.8707165 192.403818 32"></polygon>
                    <g id="Group-130" transform="translate(185.000000, 24.000000)">
                        <mask id="mask-4" fill="white">
                            <use xlink:href="#path-3"></use>
                        </mask>
                        <g id="Clip-129"></g>
                        <path d="M5.47466667,0.644866667 L0.568,1.38953333 C0.638666667,1.32553333 0.721333333,1.28686667 0.806666667,1.27353333 L5.71266667,0.528866667 C5.62733333,0.5422 5.54533333,0.5802 5.47466667,0.644866667" id="Fill-128" fill="#4C392A" mask="url(#mask-4)"></path>
                    </g>
                    <polygon id="Fill-131" fill="#4D3A2A" points="190.441104 24.3285285 185 25 185.558896 24.6708709 191 24"></polygon>
                    <g id="Group-135" transform="translate(183.000000, 24.000000)">
                        <mask id="mask-6" fill="white">
                            <use xlink:href="#path-5"></use>
                        </mask>
                        <g id="Clip-134"></g>
                        <path d="M3.63287273,11.97456 L-1.71912727,12.64536 C0.974690909,12.30756 3.13178182,10.21116 3.43578182,7.34556 C3.80814545,3.85536 1.28378182,0.54696 -2.21294545,-0.04224 C-2.8384,-0.14784 -3.45367273,-0.15864 -4.04349091,-0.08484 L1.30996364,-0.75504 C1.89905455,-0.82884 2.5136,-0.81864 3.13905455,-0.71304 C6.63578182,-0.12384 9.16087273,3.18516 8.78923636,6.67476 C8.48378182,9.54096 6.32669091,11.63736 3.63287273,11.97456" id="Fill-133" fill="#4C392A" mask="url(#mask-6)"></path>
                    </g>
                    <g id="Group-138" transform="translate(184.000000, 37.000000)">
                        <mask id="mask-8" fill="white">
                            <use xlink:href="#path-7"></use>
                        </mask>
                        <g id="Clip-137"></g>
                        <path d="M5.49286667,0.647533333 L0.586866667,1.39286667 C0.530866667,1.40086667 0.472866667,1.39886667 0.4162,1.38753333 C0.274866667,1.3582 0.1382,1.27086667 0.0475333333,1.11953333 L4.95353333,0.374866667 C5.04486667,0.525533333 5.18086667,0.613533333 5.32286667,0.6422 C5.37953333,0.6542 5.43686667,0.6562 5.49286667,0.647533333" id="Fill-136" fill="#4C392A" mask="url(#mask-8)"></path>
                    </g>
                    <polygon id="Fill-139" fill="#4C392A" points="189 37.4233351 184.363533 38 184 37.5771812 188.637097 37"></polygon>
                    <g id="Group-143" transform="translate(180.000000, 20.000000)">
                        <mask id="mask-10" fill="white">
                            <use xlink:href="#path-9"></use>
                        </mask>
                        <g id="Clip-142"></g>
                        <path d="M5.15106667,0.859066667 L0.2444,1.60373333 C0.271066667,1.30373333 0.401733333,1.07506667 0.6144,1.0424 L5.52173333,0.297733333 C5.30773333,0.3304 5.17706667,0.5584 5.15106667,0.859066667" id="Fill-141" fill="#A78A73" mask="url(#mask-10)"></path>
                    </g>
                    <polygon id="Fill-144" fill="#A78A73" points="184.942251 21.4673654 180 22 180.057749 21.5321582 185 21"></polygon>
                    <g id="Group-148" transform="translate(179.000000, 22.000000)">
                        <mask id="mask-12" fill="white">
                            <use xlink:href="#path-11"></use>
                        </mask>
                        <g id="Clip-147"></g>
                        <path d="M7.85371429,16.4682 L2.59728571,17.3067 C5.243,16.88445 7.36157143,14.26395 7.66014286,10.68195 C8.02585714,6.3192 5.54657143,2.1837 2.11228571,1.4472 C1.498,1.3152 0.893714286,1.3017 0.314428571,1.39395 L5.57228571,0.5562 C6.15085714,0.46395 6.75442857,0.4767 7.36871429,0.6087 C10.803,1.3452 13.283,5.48145 12.918,9.84345 C12.618,13.4262 10.4994286,16.0467 7.85371429,16.4682" id="Fill-146" fill="#4C392A" mask="url(#mask-12)"></path>
                    </g>
                    <g id="Group-151" transform="translate(181.000000, 26.000000)">
                        <mask id="mask-14" fill="white">
                            <use xlink:href="#path-13"></use>
                        </mask>
                        <g id="Clip-150"></g>
                        <path d="M5.4967,11.6025684 L0.4373875,12.3675158 C2.9838875,11.9823053 5.0230125,9.59167368 5.3103875,6.32388421 C5.6623875,2.34383158 3.276075,-1.42890526 -0.029425,-2.1008 C-0.620675,-2.22122105 -1.2023,-2.23353684 -1.7598625,-2.14937895 L3.300825,-2.91364211 C3.8577,-2.9978 4.4386375,-2.98616842 5.0298875,-2.86574737 C8.3353875,-2.19385263 10.7223875,1.57956842 10.371075,5.55893684 C10.082325,8.82741053 8.0432,11.2180421 5.4967,11.6025684" id="Fill-149" fill="#4C392A" mask="url(#mask-14)"></path>
                    </g>
                    <g id="Group-154" transform="translate(179.000000, 38.000000)">
                        <mask id="mask-16" fill="white">
                            <use xlink:href="#path-15"></use>
                        </mask>
                        <g id="Clip-153"></g>
                        <path d="M7.51992727,0.189 L2.1672,0.7475 C1.65083636,0.8015 1.07192727,0.8035 0.393381818,0.7435 L5.74683636,0.185 C6.42392727,0.245 7.00283636,0.243 7.51992727,0.189" id="Fill-152" fill="#4C392A" mask="url(#mask-16)"></path>
                    </g>
                    <polygon id="Fill-155" fill="#513D2C" points="183.941579 38.4696395 179 39 179.058421 38.5298861 184 38"></polygon>
                    <g id="Group-159" transform="translate(179.000000, 39.000000)">
                        <mask id="mask-18" fill="white">
                            <use xlink:href="#path-17"></use>
                        </mask>
                        <g id="Clip-158"></g>
                        <path d="M5.50266667,0.800466667 L0.596666667,1.5458 C0.554,1.5518 0.508,1.55046667 0.459333333,1.54046667 C0.166,1.48113333 0.036,1.15446667 0.0673333333,0.800466667 L4.97333333,0.0558 C4.94266667,0.409133333 5.07266667,0.7358 5.36533333,0.7958 C5.41466667,0.8058 5.46066667,0.807133333 5.50266667,0.800466667" id="Fill-157" fill="#4C392A" mask="url(#mask-18)"></path>
                    </g>
                    <g id="Group-162" transform="translate(176.000000, 22.000000)">
                        <mask id="mask-20" fill="white">
                            <use xlink:href="#path-19"></use>
                        </mask>
                        <g id="Clip-161"></g>
                        <path d="M5.20706667,1.4484 L0.301066667,2.2869 C1.0484,1.6509 1.93173333,1.23765 2.8444,1.08165 L7.7504,0.2439 C6.83773333,0.3999 5.95506667,0.8124 5.20706667,1.4484" id="Fill-160" fill="#4C392A" mask="url(#mask-20)"></path>
                    </g>
                    <g id="Group-165" transform="translate(176.000000, 22.000000)">
                        <mask id="mask-22" fill="white">
                            <use xlink:href="#path-21"></use>
                        </mask>
                        <g id="Clip-164"></g>
                        <path d="M5.44473333,0.589533333 L0.538733333,1.33486667 C0.612733333,1.2702 0.694733333,1.23153333 0.780066667,1.21886667 L5.68606667,0.473533333 C5.6014,0.486866667 5.51873333,0.525533333 5.44473333,0.589533333" id="Fill-163" fill="#A78A73" mask="url(#mask-22)"></path>
                    </g>
                    <g id="Group-168" transform="translate(174.000000, 23.000000)">
                        <mask id="mask-24" fill="white">
                            <use xlink:href="#path-23"></use>
                        </mask>
                        <g id="Clip-167"></g>
                        <path d="M11.9968,13.7235 L7.0908,14.42225 C6.54746667,14.499125 5.98146667,14.487875 5.40346667,14.37725 C2.20813333,13.765375 -0.1112,10.3235 0.230133333,6.68225 C0.510133333,3.69975 2.4928,1.512875 4.96013333,1.161625 L9.86746667,0.4635 C7.39946667,0.81475 5.41613333,3.001625 5.1368,5.984125 C4.79546667,9.62475 7.1148,13.066625 10.3108,13.679125 C10.8881333,13.789125 11.4541333,13.801 11.9968,13.7235" id="Fill-166" fill="#402A17" mask="url(#mask-24)"></path>
                    </g>
                    <polygon id="Fill-169" fill="#A78A73" points="181 23.4398798 176.325245 24 176 23.5596192 180.675391 23"></polygon>
                    <g id="Group-173" transform="translate(176.000000, 22.000000)">
                        <mask id="mask-26" fill="white">
                            <use xlink:href="#path-25"></use>
                        </mask>
                        <g id="Clip-172"></g>
                        <path d="M5.3646,1.691175 L0.457933333,2.528925 C0.269266667,2.202675 0.305266667,1.745175 0.5386,1.501425 L5.4446,0.662925 C5.21193333,0.906675 5.1766,1.364175 5.3646,1.691175" id="Fill-171" fill="#A78A73" mask="url(#mask-26)"></path>
                    </g>
                    <g id="Group-176" transform="translate(175.000000, 35.000000)">
                        <mask id="mask-28" fill="white">
                            <use xlink:href="#path-27"></use>
                        </mask>
                        <g id="Clip-175"></g>
                        <path d="M9.67635714,2.72886667 L4.41992857,3.4742 C2.98492857,3.0622 1.60064286,2.1082 0.607785714,0.845533333 L5.86421429,0.1002 C6.85778571,1.36353333 8.24135714,2.31753333 9.67635714,2.72886667" id="Fill-174" fill="#4C392A" mask="url(#mask-28)"></path>
                    </g>
                    <g id="Group-179" transform="translate(174.000000, 24.000000)">
                        <mask id="mask-30" fill="white">
                            <use xlink:href="#path-29"></use>
                        </mask>
                        <g id="Clip-178"></g>
                        <path d="M5.55541818,4.0521875 L0.203418182,4.7509375 C0.487054545,3.2371875 1.26014545,1.7753125 2.32632727,0.7815625 L7.67832727,0.0828125 C6.61214545,1.0771875 5.84050909,2.5390625 5.55541818,4.0521875" id="Fill-177" fill="#4C392A" mask="url(#mask-30)"></path>
                    </g>
                    <g id="Group-184" transform="translate(175.000000, 23.000000)">
                        <path d="M11.3223269,0.529304348 C14.4660192,1.16973913 16.7355192,4.76647826 16.4020577,8.55952174 C16.0672885,12.359087 13.25575,14.9143043 10.1120577,14.2738696 C6.97751923,13.6347391 4.70344231,10.0432174 5.03821154,6.24430435 C5.37167308,2.4506087 8.18844231,-0.109173913 11.3223269,0.529304348" id="Fill-180" fill="#4C392A"></path>
                        <polygon id="Fill-182" fill="#A78A73" points="4.94856923 11.7952174 0.136261538 12.5243478 0.556684615 12.1167391 5.36899231 11.3876087"></polygon>
                    </g>
                    <g id="Group-187" transform="translate(174.000000, 29.000000)">
                        <mask id="mask-32" fill="white">
                            <use xlink:href="#path-31"></use>
                        </mask>
                        <g id="Clip-186"></g>
                        <path d="M6.4477,4.97433333 L1.2964,5.71966667 C0.4984,4.30433333 0.0658,2.49233333 0.0945,0.830333333 L5.2458,0.0856666667 C5.2178,1.74766667 5.6497,3.559 6.4477,4.97433333" id="Fill-185" fill="#4C392A" mask="url(#mask-32)"></path>
                    </g>
                    <g id="Group-190" transform="translate(174.000000, 35.000000)">
                        <mask id="mask-34" fill="white">
                            <use xlink:href="#path-33"></use>
                        </mask>
                        <g id="Clip-189"></g>
                        <path d="M6.45386,1.4235 L1.30186,2.262 C1.24936,2.27025 1.19756,2.26875 1.14646,2.2575 C0.99806,2.22525 0.86086,2.121 0.76006,1.95 C0.56336,1.617 0.60256,1.14 0.84546,0.903 L5.99816,0.0645 C5.75386,0.3015 5.71466,0.77925 5.91206,1.11225 C6.01216,1.2825 6.14936,1.38675 6.29846,1.41975 C6.34956,1.43025 6.40206,1.43175 6.45386,1.4235" id="Fill-188" fill="#A78A73" mask="url(#mask-34)"></path>
                    </g>
                    <g id="Group-195" transform="translate(173.000000, 21.000000)">
                        <polygon id="Fill-191" fill="#4A3728" points="5.6628 8.60110345 0.7568 9.33293103 0.219466667 9.22548276 5.12613333 8.493"></polygon>
                        <path d="M11.6439333,16.3048172 C8.44793333,15.6634034 6.12926667,12.055369 6.46993333,8.23833448 C6.8106,4.42719655 9.6826,1.85564483 12.8779333,2.49705862 C16.0826,3.1410931 18.3972667,6.75371379 18.0566,10.5648517 C17.7152667,14.381231 14.8492667,16.9481966 11.6439333,16.3048172 L11.6439333,16.3048172 Z M18.8626,10.1547138 C18.8946,8.52202414 18.4859333,6.7655069 17.7259333,5.37523103 L18.1486,4.97623103 C18.3759333,4.76854138 18.4126,4.35774828 18.2299333,4.0675069 C18.1339333,3.91812759 18.0032667,3.82705862 17.8666,3.79954138 C17.7299333,3.77267931 17.5879333,3.80871379 17.4746,3.90961034 L16.9706,4.26798966 C16.0432667,3.03298966 15.1219333,2.16947241 13.3292667,1.66826552 L13.3866,1.02554138 C13.4186,0.672403448 13.2879333,0.357265517 12.9906,0.296989655 C12.6972667,0.23867931 12.5159333,0.49092069 12.4846,0.844058621 L12.4272667,1.48678276 C11.0632667,1.3550931 9.6526,1.7495069 8.5406,2.57567931 L8.2006,2.04171379 C8.10393333,1.89823103 7.97326667,1.80781724 7.8366,1.7803 C7.69993333,1.75278276 7.5626,1.79012759 7.4446,1.88971379 C7.2126,2.10264483 7.1766,2.5023 7.3646,2.78795517 L7.70526667,3.36319655 C6.72793333,4.40492069 6.01993333,5.93736897 5.75926667,7.52354138 L5.2226,7.4160931 C4.9246,7.35647241 4.6686,7.4993 4.63726667,7.84654138 C4.60593333,8.20033448 4.82793333,8.43357586 5.1266,8.49319655 L5.6626,8.6013 C5.63593333,10.2346448 6.04726667,12.0154034 6.80726667,13.4056793 L6.37926667,13.8151621 C6.1466,14.0221966 6.10926667,14.4388862 6.2966,14.7304379 C6.3926,14.8791621 6.52326667,14.970231 6.66526667,14.9984034 C6.7966,15.0252655 6.93926667,14.9885759 7.0526,14.8876793 L7.47326667,14.5122655 C8.4006,15.7538172 9.69193333,16.691369 11.0312667,17.0956103 L10.9732667,17.744231 C10.9426,18.0921276 11.0732667,18.4131621 11.3652667,18.4714724 C11.6632667,18.5310931 11.8452667,18.2729552 11.8766,17.9257138 L11.9346,17.2770931 C13.7512667,17.5057483 14.7912667,17.0425414 15.9032667,16.2104724 L16.2872667,16.7477138 C16.3786,16.8957828 16.5146,16.9822655 16.6566,17.0104379 C16.7972667,17.0392655 16.9439333,17.0097828 17.0626,16.9036448 C17.2892667,16.7011966 17.3406,16.2989207 17.1532667,16.0080241 L16.8232667,15.4170586 C17.7959333,14.3740241 18.5106,12.8199552 18.7666,11.2318172 L19.3079333,11.3405759 C19.6052667,11.4008517 19.8559333,11.2619552 19.8879333,10.9088172 C19.9192667,10.5615759 19.7019333,10.3230931 19.4046,10.2634724 L18.8626,10.1547138 Z" id="Fill-193" fill="#977558"></path>
                    </g>
                    <g id="Group-198" transform="translate(173.000000, 28.000000)">
                        <mask id="mask-36" fill="white">
                            <use xlink:href="#path-35"></use>
                        </mask>
                        <g id="Clip-197"></g>
                        <path d="M5.793,1.47255 L0.886333333,2.3103 C0.588333333,2.24205 0.366333333,1.97505 0.397666667,1.5708 C0.421,1.27005 0.573,1.10355 0.774333333,1.06905 L5.68033333,0.23055 C5.479,0.26505 5.32766667,0.4323 5.30433333,0.7323 C5.273,1.1373 5.495,1.4043 5.793,1.47255" id="Fill-196" fill="#A78A73" mask="url(#mask-36)"></path>
                    </g>
                    <path d="M141.843899,38.6374229 C141.843899,38.6374229 144.303244,38.1701391 146.415295,40.2725857 C148.526687,42.3743713 152.830377,44.8277764 156.82821,43.7279741 C160.825385,42.6275109 171.055445,34.1073479 174.058095,34.8661057 C173.372715,29.7074779 175,22.8112417 175,22.8112417 C175,22.8112417 170.521348,18.0961038 162.246136,18.0009286 C153.970923,17.9050924 145.106363,25.2593593 145.106363,25.2593593 L141,30.667822 L141.843899,38.6374229 Z" id="Fill-199" fill="#2C3342"></path>
                    <g id="Group-203" transform="translate(167.000000, 28.000000)">
                        <mask id="mask-38" fill="white">
                            <use xlink:href="#path-37"></use>
                        </mask>
                        <g id="Clip-202"></g>
                        <path d="M6.56117,0.07035 L0.91847,0.68235 C0.84567,0.69035 0.76657,0.68835 0.68397,0.67635 L6.32667,0.06435 C6.40787,0.07635 6.48767,0.07835 6.56117,0.07035" id="Fill-201" fill="#4C392A" mask="url(#mask-38)"></path>
                    </g>
                    <polygon id="Fill-204" fill="#4A3728" points="173 28.1306818 167.602009 29 167 28.8693182 172.397321 28"></polygon>
                    <g id="Group-208" transform="translate(165.000000, 19.000000)">
                        <mask id="mask-40" fill="white">
                            <use xlink:href="#path-39"></use>
                        </mask>
                        <g id="Clip-207"></g>
                        <path d="M6.31232,0.3528 L0.66962,0.9648 C0.75222,0.9118 0.84742,0.8803 0.94472,0.8698 L6.58742,0.2578 C6.48942,0.2683 6.39352,0.2998 6.31232,0.3528" id="Fill-206" fill="#4C392A" mask="url(#mask-40)"></path>
                    </g>
                    <polygon id="Fill-209" fill="#4D3A2A" points="170.445333 20.3311475 165 21 165.554667 20.6688525 171 20"></polygon>
                    <g id="Group-213" transform="translate(164.000000, 34.000000)">
                        <mask id="mask-42" fill="white">
                            <use xlink:href="#path-41"></use>
                        </mask>
                        <g id="Clip-212"></g>
                        <path d="M5.96486667,0.3057 L0.591533333,0.9177 C0.5322,0.9242 0.4702,0.9232 0.409533333,0.9137 C0.2542,0.8897 0.108866667,0.8137 0.00353333333,0.6942 L5.37686667,0.0822 C5.48153333,0.2017 5.62686667,0.2782 5.78353333,0.3022 C5.84353333,0.3112 5.90486667,0.3127 5.96486667,0.3057" id="Fill-211" fill="#4C392A" mask="url(#mask-42)"></path>
                    </g>
                    <polygon id="Fill-214" fill="#4C392A" points="170 34.424 164.429164 35 164 34.576 169.570836 34"></polygon>
                    <g id="Group-218" transform="translate(159.000000, 15.000000)">
                        <mask id="mask-44" fill="white">
                            <use xlink:href="#path-43"></use>
                        </mask>
                        <g id="Clip-217"></g>
                        <path d="M6.17904,1.05113333 L0.53634,1.86713333 C0.56644,1.54246667 0.71344,1.29046667 0.96054,1.25513333 L6.60184,0.439133333 C6.35544,0.475133333 6.20844,0.726466667 6.17904,1.05113333" id="Fill-216" fill="#A78A73" mask="url(#mask-44)"></path>
                    </g>
                    <polygon id="Fill-219" fill="#A78A73" points="165.930113 16.9365769 160 18 160.069887 17.0634231 166 16"></polygon>
                    <g id="Group-223" transform="translate(159.000000, 35.000000)">
                        <mask id="mask-46" fill="white">
                            <use xlink:href="#path-45"></use>
                        </mask>
                        <g id="Clip-222"></g>
                        <path d="M7.71746667,0.0286 L2.34346667,0.6406 C1.82746667,0.6996 1.2488,0.7021 0.571466667,0.6381 L5.94546667,0.0266 C6.62213333,0.0906 7.2008,0.0876 7.71746667,0.0286" id="Fill-221" fill="#4C392A" mask="url(#mask-46)"></path>
                    </g>
                    <polygon id="Fill-224" fill="#513D2C" points="163.930104 34.9365769 158 36 158.069896 35.0634231 164 34"></polygon>
                    <g id="Group-228" transform="translate(158.000000, 35.000000)">
                        <mask id="mask-48" fill="white">
                            <use xlink:href="#path-47"></use>
                        </mask>
                        <g id="Clip-227"></g>
                        <path d="M6.44973,1.536675 L0.80773,2.454675 C0.75943,2.462175 0.70763,2.460675 0.65163,2.448675 C0.30863,2.373675 0.16373,1.976925 0.19943,1.539675 L5.84143,0.621675 C5.80573,1.059675 5.94993,1.455675 6.29363,1.530675 C6.34893,1.542675 6.40143,1.544175 6.44973,1.536675" id="Fill-226" fill="#4C392A" mask="url(#mask-48)"></path>
                    </g>
                    <g id="Group-231" transform="translate(155.000000, 16.000000)">
                        <mask id="mask-50" fill="white">
                            <use xlink:href="#path-49"></use>
                        </mask>
                        <g id="Clip-230"></g>
                        <path d="M5.77647692,1.861125 L0.196476923,2.779125 C1.04801538,2.077875 2.05116923,1.624125 3.08963077,1.453125 L8.66963077,0.535125 C7.63116923,0.706125 6.62732308,1.159875 5.77647692,1.861125" id="Fill-229" fill="#4C392A" mask="url(#mask-50)"></path>
                    </g>
                    <g id="Group-234" transform="translate(154.000000, 17.000000)">
                        <mask id="mask-52" fill="white">
                            <use xlink:href="#path-51"></use>
                        </mask>
                        <g id="Clip-233"></g>
                        <path d="M5.69726667,0.16555 L0.323266667,0.77755 C0.4006,0.72305 0.489266667,0.69205 0.579933333,0.68205 L5.95326667,0.07005 C5.86193333,0.08055 5.77326667,0.11105 5.69726667,0.16555" id="Fill-232" fill="#A78A73" mask="url(#mask-52)"></path>
                    </g>
                    <g id="Group-237" transform="translate(153.000000, 19.000000)">
                        <mask id="mask-54" fill="white">
                            <use xlink:href="#path-53"></use>
                        </mask>
                        <g id="Clip-236"></g>
                        <path d="M13.4707333,15.04224 L8.0974,15.8256 C7.50473333,15.912 6.8854,15.8992 6.2554,15.77568 C2.75206667,15.08896 0.2154,11.22208 0.5894,7.14336 C0.8954,3.79744 3.0634,1.34816 5.7654,0.95392 L11.1394,0.1712 C8.43673333,0.5648 6.26806667,3.01472 5.96206667,6.36 C5.5894,10.43872 8.1254,14.3056 11.6280667,14.99232 C12.2594,15.11648 12.8774,15.12864 13.4707333,15.04224" id="Fill-235" fill="#402A17" mask="url(#mask-54)"></path>
                    </g>
                    <polygon id="Fill-238" fill="#A78A73" points="160 18.4372414 154.387838 19 154 18.5627586 159.611466 18"></polygon>
                    <g id="Group-242" transform="translate(154.000000, 17.000000)">
                        <mask id="mask-56" fill="white">
                            <use xlink:href="#path-55"></use>
                        </mask>
                        <g id="Clip-241"></g>
                        <path d="M5.60873333,1.3755 L0.2354,2.2935 C0.0307333333,1.929 0.0700666667,1.425 0.3234,1.16625 L5.6974,0.24825 C5.4434,0.507 5.40406667,1.011 5.60873333,1.3755" id="Fill-240" fill="#A78A73" mask="url(#mask-56)"></path>
                    </g>
                    <g id="Group-245" transform="translate(154.000000, 31.000000)">
                        <mask id="mask-58" fill="white">
                            <use xlink:href="#path-57"></use>
                        </mask>
                        <g id="Clip-244"></g>
                        <path d="M9.62633333,3.16733333 L4.253,3.98333333 C2.783,3.52666667 1.37033333,2.482 0.355,1.09866667 L5.72766667,0.282666667 C6.74366667,1.66666667 8.157,2.71066667 9.62633333,3.16733333" id="Fill-243" fill="#4C392A" mask="url(#mask-58)"></path>
                    </g>
                    <g id="Group-248" transform="translate(152.000000, 18.000000)">
                        <mask id="mask-60" fill="white">
                            <use xlink:href="#path-59"></use>
                        </mask>
                        <g id="Clip-247"></g>
                        <path d="M5.85486667,5.16413333 L0.480866667,5.98013333 C0.760866667,4.20746667 1.53686667,2.50013333 2.60753333,1.3388 L7.9802,0.523466667 C6.9102,1.68413333 6.1342,3.39146667 5.85486667,5.16413333" id="Fill-246" fill="#4C392A" mask="url(#mask-60)"></path>
                    </g>
                    <g id="Group-261" transform="translate(153.000000, 19.000000)">
                        <path d="M13.2384793,15.04224 L7.95778966,15.8256 C10.6164793,15.43072 12.7484103,12.9776 13.0491345,9.63168 C13.416031,5.55296 10.9231,1.69184 7.47558276,1.00384 C6.85644483,0.88032 6.2491,0.86816 5.66599655,0.95392 L10.9473414,0.1712 C11.5297897,0.08416 12.1371345,0.09696 12.7562724,0.22048 C16.2031345,0.90848 18.6967207,4.7696 18.3298241,8.84832 C18.0291,12.19424 15.8978241,14.648 13.2384793,15.04224" id="Fill-249" fill="#4C392A"></path>
                        <path d="M16.8495931,8.86784 C17.2171448,4.78848 14.7235586,0.928 11.2760414,0.24 C11.1397655,0.21248 11.0048,0.19968 10.8691793,0.18304 C8.2498,0.61312 6.15783448,3.04704 5.85973103,6.35968 C5.49283448,10.43904 7.98576552,14.30592 11.4280414,14.99264 C11.5649724,15.02016 11.7005931,15.03232 11.8362138,15.0496 C14.458869,14.61888 16.5521448,12.18112 16.8495931,8.86784" id="Fill-251" fill="#661F88"></path>
                        <path d="M10.0694759,2.700032 C12.236131,4.888192 14.7369241,6.774912 16.9376483,8.942592 L16.9383034,8.942592 C16.948131,8.952832 16.959269,8.962432 16.9690966,8.972672 C16.9658207,8.974592 16.9625448,8.976512 16.9605793,8.978432 C17.2409931,9.331072 16.9566483,10.003072 16.4724759,9.755392 C15.2898897,9.151872 14.3733034,7.677312 13.4390276,6.748032 C12.2053379,5.522432 10.7783724,4.394112 9.68554483,3.044992 C9.46737241,2.774912 9.81657931,2.444672 10.0694759,2.700032" id="Fill-253" fill="#654E7E"></path>
                        <path d="M11.6664586,6.737856 C12.1381828,7.491136 13.2493552,8.109376 13.9497345,8.668096 C14.5911483,9.178176 15.2640103,9.660096 15.8274586,10.254016 C16.0980448,10.539456 15.7108379,11.067456 15.3819414,10.782016 C14.5524931,10.062656 13.7662862,9.292736 12.9492862,8.558656 C12.3969759,8.062656 11.6690793,7.559616 11.3270793,6.898496 C11.2078379,6.666816 11.5328034,6.524736 11.6664586,6.737856" id="Fill-255" fill="#654E7E"></path>
                        <path d="M7.91775862,6.848768 C7.9347931,6.862848 7.95248276,6.876928 7.96951724,6.891648 C7.97410345,6.895488 7.97410345,6.901248 7.97803448,6.905088 C9.576,8.553728 11.6496207,9.762048 13.1296552,11.516288 C13.4795172,11.930368 12.9337586,12.427648 12.5367241,12.048768 C10.9223793,10.512128 8.95686207,8.950528 7.67141379,7.140608 C7.55544828,6.977408 7.71858621,6.684928 7.91775862,6.848768" id="Fill-257" fill="#654E7E"></path>
                        <polygon id="Fill-259" fill="#A78A73" points="5.76158621 12.329728 0.480896552 13.113088 0.940827586 12.668928 6.22151724 11.886208"></polygon>
                    </g>
                    <g id="Group-264" transform="translate(152.000000, 24.000000)">
                        <mask id="mask-62" fill="white">
                            <use xlink:href="#path-61"></use>
                        </mask>
                        <g id="Clip-263"></g>
                        <path d="M7.63352727,6.00026 L1.77098182,6.85706 C0.862618182,5.23586 0.371709091,3.14846 0.409527273,1.24096 L6.27134545,0.38486 C6.2328,2.29166 6.72516364,4.37906 7.63352727,6.00026" id="Fill-262" fill="#4C392A" mask="url(#mask-62)"></path>
                    </g>
                    <g id="Group-267" transform="translate(152.000000, 30.000000)">
                        <mask id="mask-64" fill="white">
                            <use xlink:href="#path-63"></use>
                        </mask>
                        <g id="Clip-266"></g>
                        <path d="M6.66099,1.67985 L1.01829,2.59785 C0.95949,2.6076 0.90069,2.60535 0.84189,2.5926 C0.68299,2.55735 0.53039,2.44335 0.42049,2.25735 C0.20559,1.89285 0.24899,1.36935 0.51429,1.11735 L6.15559,0.1986 C5.89029,0.45135 5.84759,0.97485 6.06319,1.33935 C6.17309,1.52535 6.32499,1.63935 6.48319,1.6746 C6.54199,1.68735 6.60219,1.6896 6.66099,1.67985" id="Fill-265" fill="#A78A73" mask="url(#mask-64)"></path>
                    </g>
                    <polygon id="Fill-268" fill="#4A3728" points="158 25.130064 152.597855 26 152 25.8706468 157.401475 25"></polygon>
                    <g id="Group-272" transform="translate(150.000000, 23.000000)">
                        <mask id="mask-66" fill="white">
                            <use xlink:href="#path-65"></use>
                        </mask>
                        <g id="Clip-271"></g>
                        <path d="M6.81135,1.7751 L1.16935,2.6931 C0.83125,2.61885 0.57435,2.3196 0.61075,1.8756 C0.63805,1.5471 0.81165,1.3686 1.03915,1.3311 L6.68115,0.41385 C6.45295,0.4506 6.27935,0.6291 6.25275,0.9576 C6.21565,1.4016 6.47325,1.70085 6.81135,1.7751" id="Fill-270" fill="#A78A73" mask="url(#mask-66)"></path>
                    </g>
                    <g id="Group-433" transform="translate(0.000000, 15.000000)">
                        <path d="M164.464728,18.2123978 C160.972611,17.4998606 158.443585,13.4876055 158.815794,9.25488211 C159.188003,5.02282284 162.319874,2.17200996 165.811991,2.88521123 C169.309424,3.59907655 171.839115,7.6046911 171.466906,11.8374144 C171.094698,16.0701378 167.962161,18.9262631 164.464728,18.2123978 L164.464728,18.2123978 Z M172.343591,11.3831969 C172.378818,9.56765474 171.931503,7.61797232 171.102009,6.07403103 L171.56727,5.6311025 C171.814523,5.40664996 171.854402,4.94911209 171.655005,4.62704262 C171.550653,4.46235555 171.405758,4.36141831 171.255545,4.33087152 C171.10932,4.30098878 170.952461,4.34083243 170.828834,4.4530587 L170.283149,4.85547952 C169.266222,3.47688937 168.260593,2.51864968 166.304503,1.96349488 L166.366981,1.24763737 C166.401543,0.859825883 166.258641,0.508537736 165.938276,0.44279572 C165.612593,0.376389643 165.419178,0.659279531 165.38528,1.04709102 L165.322137,1.76294853 C163.829979,1.61353485 162.290629,2.05314308 161.075633,2.97618755 L160.708077,2.3811891 C160.603061,2.21650203 160.458165,2.12087728 160.307288,2.09033049 C160.161063,2.06044775 160.004868,2.09431485 159.881242,2.21185361 C159.628007,2.44095457 159.588792,2.88720341 159.792842,3.20993694 L160.163057,3.84145873 C159.09628,4.99825259 158.322617,6.69824816 158.044125,8.46398574 L157.44992,8.34312668 C157.129555,8.27738466 156.848404,8.42945458 156.814507,8.81660201 C156.77928,9.20972598 157.023874,9.47468623 157.344904,9.54042824 L157.938445,9.66195136 C157.903218,11.4708529 158.353192,13.4510821 159.18335,14.9890468 L158.71676,15.449241 C158.464854,15.6730294 158.423645,16.1365439 158.62836,16.4592774 C158.732712,16.6239645 158.876943,16.7249017 159.027155,16.7561126 C159.17338,16.7859953 159.325587,16.7508001 159.454531,16.6339254 L159.911151,16.2195515 C160.924091,17.5974775 162.333167,18.6380608 163.798075,19.0922783 L163.734933,19.8081358 C163.7017,20.1959473 163.838619,20.5465714 164.164967,20.6129775 C164.485332,20.6787195 164.6834,20.3964937 164.717963,20.0093463 L164.781105,19.2928247 C166.763782,19.5418475 167.898354,19.0272004 169.118667,18.10482 L169.53142,18.7031387 C169.635772,18.8618492 169.780667,18.9627865 169.936198,18.9946614 C170.092392,19.0265363 170.253904,18.9873567 170.377531,18.8757945 C170.630101,18.6460295 170.679951,18.2024369 170.479888,17.8803674 L170.116985,17.2209551 C171.179109,16.0688097 171.959418,14.3402595 172.23791,12.5804984 L172.836768,12.7026856 C173.157133,12.7684276 173.433631,12.6090531 173.468194,12.2159291 C173.502756,11.8287817 173.262814,11.5711261 172.941784,11.50472 L172.343591,11.3831969 Z" id="Fill-273" fill="#977558"></path>
                        <path d="M170.437616,47.8091878 C170.437616,47.8091878 166.899638,47.2082128 163.78106,46.620519 C167.083084,47.8204768 169.455915,48.4925063 169.455915,48.4925063 L170.437616,47.8091878 Z" id="Fill-275" fill="#CBCBCB"></path>
                        <path d="M171.544273,42.749244 C171.544273,42.749244 159.874861,42.4065886 150.338339,39.3359716 C150.172174,39.6587052 150.626136,42.2638156 153.834443,45.3085342 C152.761684,43.7526398 152.235275,42.334206 151.946813,41.2677244 C151.890317,41.0592093 152.086391,40.8732723 152.294429,40.9303815 C163.102443,43.8960769 169.607457,43.9578346 171.289708,43.9120144 L171.544273,42.749244 Z" id="Fill-277" fill="#CBCBCB"></path>
                        <path d="M189.976852,16.0405871 C190.316492,12.1777456 188.008798,8.51611451 184.813119,7.86400683 C184.71342,7.84342095 184.614386,7.83545222 184.514687,7.82150695 C182.114605,8.25447457 180.200388,10.5488045 179.926549,13.6625855 C179.586243,17.5314035 181.899255,21.1877221 185.084964,21.8385016 C185.187322,21.8590875 185.287685,21.8677203 185.389378,21.8816656 C187.792784,21.4500261 189.702348,19.1576883 189.976852,16.0405871" id="Fill-279" fill="#661F88"></path>
                        <path d="M144.424406,9.21483925 C144.424406,9.21483925 135.058036,12.4109637 133.650289,18.3171202 C132.242542,24.2232767 133.819113,29.1486154 133.819113,29.1486154 C133.819113,29.1486154 137.802412,22.653437 143.029287,22.7656633 C140.556093,16.6390386 144.424406,9.21483925 144.424406,9.21483925" id="Fill-281" fill="#661F88"></path>
                        <path d="M141.968226,21.1374527 C140.758548,18.1392183 141.617287,14.4868841 141.925023,11.4315405 C141.934993,11.327947 141.790098,11.3232986 141.77614,11.4222436 C141.657831,12.2489993 141.320849,13.0286066 141.235108,13.8686435 C141.151361,14.6807898 141.171301,15.5221548 141.141391,16.3396136 C141.082901,17.9360157 141.041692,19.8026905 141.643873,21.3034679 C141.733602,21.5285845 142.051973,21.3459678 141.968226,21.1374527" id="Fill-283" fill="#550D7C"></path>
                        <path d="M140.424091,22.3277816 C139.530126,20.5301691 139.967471,17.89584 140.079798,15.9740482 C140.152911,14.7382311 140.427415,13.2919067 140.251945,12.0673787 C140.241975,11.9963242 140.142941,12.0089413 140.136294,12.0760115 C139.974117,13.8922177 139.728194,15.7077598 139.571334,17.5272863 C139.437073,19.0898213 139.184503,21.1577065 139.922274,22.5847731 C140.093756,22.9161395 140.580286,22.6418824 140.424091,22.3277816" id="Fill-285" fill="#550D7C"></path>
                        <path d="M139.210956,23.0579828 C139.220926,21.409784 138.915848,19.7801789 138.738384,18.1459253 C138.637356,17.21292 138.560256,16.2812427 138.544304,15.3435889 C138.533005,14.7067546 138.664607,13.9397644 138.499107,13.3069145 C138.467203,13.1860555 138.277776,13.1840633 138.279098,13.323516 C138.301039,16.6112809 138.420013,19.814046 138.732402,23.0945062 C138.759653,23.3853648 139.209627,23.3395446 139.210956,23.0579828" id="Fill-287" fill="#550D7C"></path>
                        <path d="M137.912147,23.6636727 C137.246159,20.4682122 136.670565,17.4626732 137.178364,14.1755724 C137.199633,14.0374478 137.007547,14.0361196 136.981625,14.1629553 C136.31896,17.3856422 136.535639,20.6846961 137.442233,23.83168 C137.525316,24.1212105 137.968643,23.9339454 137.912147,23.6636727" id="Fill-289" fill="#550D7C"></path>
                        <path d="M136.45043,24.9490287 C136.335444,23.4216889 135.642869,21.9999348 135.513926,20.4626341 C135.380329,18.8715445 135.743898,17.3508454 135.796406,15.773037 C135.802388,15.5897562 135.556464,15.5797953 135.531871,15.7564355 C135.083227,19.0435363 134.859237,21.9003257 136.040335,25.0957861 C136.136711,25.3574261 136.467046,25.1761375 136.45043,24.9490287" id="Fill-291" fill="#550D7C"></path>
                        <path d="M134.845877,25.7820265 C134.778082,25.0628487 134.65645,24.355624 134.60793,23.6311337 C134.567385,23.0361352 134.558745,22.4066056 134.389921,21.831529 C134.363335,21.7412167 134.223757,21.79899 134.243032,21.8839898 C134.526841,23.1848848 134.145992,24.5601547 134.492279,25.8583935 C134.555421,26.0967913 134.867811,26.017104 134.845877,25.7820265" id="Fill-293" fill="#550D7C"></path>
                        <path d="M183.928059,9.75113473 C186.125421,12.0215585 188.663088,13.9792096 190.895676,16.2290475 C190.90631,16.2396725 190.916945,16.2489693 190.926915,16.2595943 C190.923592,16.2615865 190.920933,16.2635787 190.918274,16.2655709 C191.203413,16.6321324 190.914951,17.3287322 190.423104,17.0724047 C189.224059,16.4455313 188.294202,14.9155353 187.345734,13.9513191 C186.094847,12.6796427 184.64722,11.5089036 183.538569,10.1090635 C183.317238,9.8294939 183.671501,9.48617448 183.928059,9.75113473" id="Fill-295" fill="#654E7E"></path>
                        <path d="M185.547567,13.9407605 C186.026121,14.72236 187.154047,15.3645068 187.864567,15.9435678 C188.514603,16.4728242 189.197872,16.972862 189.769478,17.5891104 C190.043982,17.8852815 189.650504,18.4331316 189.31751,18.1369605 C188.475388,17.3912203 187.677798,16.5916911 186.848968,15.8300134 C186.289326,15.3153663 185.550225,14.7934145 185.203273,14.1074398 C185.082306,13.8670498 185.412641,13.7196283 185.547567,13.9407605" id="Fill-297" fill="#654E7E"></path>
                        <path d="M181.744589,14.0559087 L181.797097,14.1004007 C181.802415,14.1043851 181.80175,14.1103616 181.806403,14.114346 C183.427505,15.8249665 185.530485,17.0787133 187.032613,18.8989038 C187.386877,19.3292152 186.833881,19.8445264 186.430433,19.4514024 C184.793379,17.8569925 182.799403,16.2366842 181.495342,14.3587204 C181.377033,14.1893849 181.543198,13.8859091 181.744589,14.0559087" id="Fill-299" fill="#654E7E"></path>
                        <path d="M188.942244,22.3997658 C191.366919,22.8951551 193.539688,20.9142619 193.797576,17.9791133 C194.055463,15.0439647 192.302094,12.2661985 189.876754,11.7714732 C187.455403,11.2767479 185.282634,13.2536568 185.024746,16.1881414 C184.766859,19.12329 186.520228,21.9057046 188.942244,22.3997658" id="Stroke-301" stroke="#977558"></path>
                        <path d="M191.716396,26.1195686 C193.510975,26.4861301 195.119449,25.019884 195.310206,22.8470771 C195.500963,20.6742703 194.202884,18.6183382 192.407641,18.2517766 C190.615057,17.8858791 189.007248,19.348805 188.816491,21.5216118 C188.625734,23.6944187 189.923812,25.7536711 191.716396,26.1195686" id="Stroke-303" stroke="#977558" stroke-width="0.74"></path>
                        <path d="M133.819046,29.1486818 C133.819046,29.1486818 137.802345,22.6535034 143.029221,22.7663938 C142.960761,22.5963942 142.898948,22.4250665 142.839793,22.2530748 C141.104369,22.4336993 139.537769,23.1488928 138.090143,24.145648 C136.40058,25.3084184 134.489687,26.6279071 133.666175,28.5842301 C133.754574,28.9448151 133.819046,29.1486818 133.819046,29.1486818" id="Fill-305" fill="#550D7C"></path>
                        <path d="M188.942244,22.3997658 C191.366919,22.8951551 193.539688,20.9142619 193.797576,17.9791133 C194.055463,15.0439647 192.302094,12.2661985 189.876754,11.7714732 C187.455403,11.2767479 185.282634,13.2536568 185.024746,16.1881414 C184.766859,19.12329 186.520228,21.9057046 188.942244,22.3997658" id="Fill-307" fill="#FFFFFF"></path>
                        <path d="M191.716396,26.1195686 C193.510975,26.4861301 195.119449,25.019884 195.310206,22.8470771 C195.500963,20.6742703 194.202884,18.6183382 192.407641,18.2517766 C190.615057,17.8858791 189.007248,19.348805 188.816491,21.5216118 C188.625734,23.6944187 189.923812,25.7536711 191.716396,26.1195686" id="Fill-309" fill="#FFFFFF"></path>
                        <path d="M139.059082,14.5273254 C138.822463,21.0503943 139.957036,24.9517513 144.176289,25.4106173 C147.446409,25.7658898 149.567335,25.3143285 149.808606,19.5230546 C150.007339,14.7564264 149.581293,6.78238466 145.802708,6.25445635 C141.650586,5.67473129 139.294371,8.02882672 139.059082,14.5273254 C138.974006,16.8654834 139.134853,12.4182684 139.059082,14.5273254" id="Fill-311" fill="#1A1A1A"></path>
                        <path d="M138.648855,17.2987166 C138.366375,13.6443902 138.378339,10.0817042 140.902712,9.18787838 C141.744835,8.88905104 143.276873,8.40627886 144.121654,8.97073051 C145.360578,9.79881429 145.337979,12.1987299 145.5407,14.0972796 C145.752726,16.0814932 146.376841,19.3984768 145.995327,21.2279642 C145.596531,23.1417873 144.531748,23.1889356 143.324728,23.2706151 C140.551772,23.4572162 139.023057,22.1503446 138.648855,17.2987166 C138.480031,15.1099723 138.722632,18.2562922 138.648855,17.2987166" id="Fill-313" fill="#977558"></path>
                        <path d="M139.822376,19.1102744 C139.866908,19.2072273 139.922075,19.3393753 139.987211,19.4775 C140.014462,19.3314066 140.049024,19.1879695 140.114826,19.0578136 C140.177304,18.9356264 140.284978,18.8466423 140.409934,18.788869 C140.504316,18.5551196 140.610661,18.330667 140.769514,18.1268004 C140.961601,17.8791057 141.319187,17.8684807 141.58638,18.0072694 C141.660157,17.7137546 141.720641,17.4195757 141.744569,17.1207483 C141.808376,16.2800474 143.136364,16.2043445 143.071892,17.0556704 C142.996786,18.0271913 142.556117,18.942267 142.475693,19.9177723 C142.409227,20.7166374 142.514243,21.4065965 141.734599,21.8262829 C141.248733,22.0885869 140.391988,22.47175 139.880201,22.0925713 C139.567147,21.86015 139.419593,21.3979637 139.252099,21.0573006 C139.006175,20.5579269 138.739647,20.0532407 138.560189,19.5259764 C138.277045,18.6972286 139.475424,18.352581 139.822376,19.1102744" id="Fill-315" fill="#8B6343"></path>
                        <path d="M137.736877,17.0545415 C137.857844,17.704657 137.668417,18.8906695 138.24667,19.3090278 C138.679362,19.6211363 139.524808,19.9943385 140.061188,19.88012 C140.454001,19.7964484 140.949836,19.6224645 141.326033,19.4889882 C141.573951,19.4006682 141.665009,19.3482074 141.831174,19.1503172 C142.305075,18.5852015 142.796923,17.4164546 142.963087,16.6946205 C143.004961,16.513996 141.958788,14.9647422 141.498844,14.3624391 C140.943854,13.6359566 140.234664,13.8849794 139.384565,13.9321277 C138.483953,13.9825963 138.305824,14.4693529 137.837905,15.2370071 C137.474336,15.8333337 137.611921,16.3765354 137.736877,17.0545415" id="Fill-317" fill="#666666"></path>
                        <path d="M141.230256,14.2222559 C141.419684,14.4075288 141.541981,14.6319814 141.674248,14.8584261 C141.810503,15.0921755 141.970686,15.3099874 142.120898,15.5357681 C142.160778,15.5948695 142.197999,15.655299 142.231232,15.7170567 C142.237878,15.7190488 142.246519,15.7144004 142.250507,15.720377 C142.558244,16.1619774 143.143143,16.8094366 141.96138,17.0166236 C141.783252,16.9674831 141.525364,17.0272486 141.331949,17.0000221 C140.869346,16.933616 140.741732,16.4501798 140.893274,16.0856104 L140.881975,16.0670167 C140.816173,15.9713919 140.741067,15.8824078 140.677924,15.7847909 C140.563603,15.6094788 140.485173,15.3504951 140.336955,15.2063939 C139.725469,14.6100674 140.616111,13.6239371 141.230256,14.2222559" id="Fill-319" fill="#989898"></path>
                        <path d="M137.656386,16.6904369 C137.690284,16.2926645 137.911615,15.980556 138.13627,15.6691115 C138.214035,15.4307137 138.389505,15.2773156 138.55434,15.0448944 C138.698571,14.8416918 138.902621,14.7925513 139.098696,14.8270824 C139.345284,14.746067 139.617794,14.8031762 139.776647,15.1079801 C140.096348,15.7195801 140.682577,16.1253212 140.700523,16.8757099 C140.71581,17.4819974 140.102995,18.2928156 139.696224,18.7078536 C139.487521,18.9210171 139.137246,18.9701576 138.878694,18.8446501 C138.499173,19.0591417 137.894334,18.909064 137.855784,18.3366436 C137.819228,17.7934419 137.60986,17.2329746 137.656386,16.6904369" id="Fill-321" fill="#989898"></path>
                        <path d="M134.980936,17.1550803 C134.98293,16.835667 135.173022,16.496996 135.574476,16.4325821 C136.082275,16.354223 136.495693,16.1443798 137.023432,16.1224658 C137.282649,16.1118408 137.541201,16.1038721 137.799089,16.091919 C137.899452,16.0580519 137.997821,16.0208645 138.094197,15.9757083 C138.352085,15.8541852 138.580062,15.9438334 138.736257,16.1164892 C138.979522,16.1828953 139.180249,16.3170356 139.293906,16.51891 C139.48134,16.7732453 139.48001,17.1570724 139.267319,17.3934781 C139.065928,17.7626959 138.651846,17.9220704 138.233111,17.9778516 C137.988516,18.1212887 137.693408,18.1863666 137.419568,18.2255462 C137.045366,18.2793351 136.668504,18.2494524 136.293637,18.2819914 C135.909464,18.3158585 135.562512,18.365663 135.21556,18.1511714 C134.883896,17.9466407 134.771568,17.4558998 134.980936,17.1550803" id="Fill-323" fill="#666666"></path>
                        <path d="M139.880135,17.5506613 C139.995121,16.8235147 138.935655,16.2736724 138.420544,15.9695326 C138.248398,15.8679313 138.092868,16.1355478 138.263685,16.236485 C138.504291,16.378594 138.746227,16.5200389 138.968888,16.6880463 C139.172273,16.8407803 139.627564,17.1741388 139.581038,17.4683177 C139.550464,17.6635516 139.848896,17.7472232 139.880135,17.5506613" id="Fill-325" fill="#989898"></path>
                        <path d="M139.271972,17.3855758 C139.087197,17.0668266 138.847255,16.7905773 138.547494,16.5740935 C138.334139,16.4193673 137.951295,16.1544071 137.671474,16.2374147 C137.480717,16.2931958 137.561805,16.5920231 137.753892,16.535578 C137.940661,16.4804609 138.314864,16.7806164 138.455107,16.8928427 C138.681091,17.0734672 138.859219,17.2912791 139.004115,17.54163 C139.103813,17.7142858 139.371671,17.5582316 139.271972,17.3855758" id="Fill-327" fill="#989898"></path>
                        <path d="M138.557331,17.5383097 C138.264881,16.9094442 137.689287,16.4671797 137.006018,16.3449925 C136.811273,16.3097973 136.727526,16.6086247 136.9236,16.6431558 C137.536415,16.7527258 138.027598,17.1312405 138.290138,17.694364 C138.37455,17.8749885 138.641078,17.7182702 138.557331,17.5383097" id="Fill-329" fill="#989898"></path>
                        <path d="M137.918661,17.5408996 C137.489291,16.8708623 136.861853,16.387426 136.104143,16.1410595 C135.913386,16.0793018 135.831633,16.3787932 136.021725,16.4398868 C136.701006,16.660355 137.265966,17.0959789 137.651468,17.6969538 C137.758478,17.8642972 138.027,17.7089069 137.918661,17.5408996" id="Fill-331" fill="#989898"></path>
                        <path d="M137.10472,17.759442 C136.959159,17.0329595 136.085798,16.5747576 135.431774,16.4054221 C135.239023,16.3556175 135.156605,16.6537808 135.350021,16.7042494 C135.900358,16.8463584 136.682661,17.2255371 136.806288,17.8417855 C136.844838,18.0370194 137.144599,17.9540118 137.10472,17.759442" id="Fill-333" fill="#989898"></path>
                        <path d="M130.748921,12.0212265 C130.473088,10.4022463 132.207183,10.8743935 133.182901,10.9866198 C133.487315,11.0224791 133.664779,11.3332595 133.701335,11.6028682 C133.810339,12.3957567 133.822303,13.2464186 133.852213,14.0472759 C133.8675,14.4669623 133.853542,14.8912971 133.751849,15.2930539 C133.76049,15.2977023 133.771124,15.2977023 133.78043,15.3016867 C133.85753,15.2611789 133.946594,15.2326243 134.053604,15.2273119 C134.073544,15.2266478 134.093484,15.2299681 134.113423,15.2299681 C134.122064,15.229304 134.128046,15.2239915 134.136687,15.2233275 C134.730227,15.174851 135.204128,15.5427407 135.54244,16.0467628 C135.982444,16.5985973 136.24299,17.3277361 136.148608,17.9121095 C136.147944,17.9194142 136.143956,17.9240626 136.142626,17.9307032 C136.139968,19.0230832 135.335066,19.6957768 134.370646,19.8425342 C134.510889,20.7509693 134.718263,21.6899512 135.029323,22.484832 C135.352347,23.3076033 135.179536,24.1064684 134.16859,24.1071339 C133.227434,24.1077965 132.567428,23.8747112 132.579391,22.8135421 C132.590691,21.7404199 132.635223,20.6679617 132.598002,19.5928473 C132.161986,19.4560508 131.763191,19.261481 131.659504,18.7567948 C131.522584,18.0894138 131.638899,17.2653143 131.884158,16.6364488 C131.939325,16.4936757 132.013102,16.3402777 132.102166,16.1888718 C131.883494,15.644342 131.723311,15.0925075 131.555152,14.4915325 C131.328504,13.6820424 130.8885,12.8433337 130.748921,12.0212265" id="Fill-335" fill="#661F88"></path>
                        <path d="M133.772321,20.3249079 C133.731112,20.1449475 134.035526,20.1549084 133.772321,20.3249079" id="Fill-337" fill="#654E7E"></path>
                        <path d="M131.144859,14.2789667 C130.920204,13.6175621 130.78129,12.9295952 130.744734,12.2323314 C130.699537,11.3783492 132.027525,11.3119432 132.072722,12.1665894 C132.102632,12.752291 132.218947,13.3094379 132.40771,13.8639287 C132.550612,14.2836151 132.694178,14.8467386 132.9627,15.1947065 C133.110254,15.385956 133.124877,15.5791977 133.061734,15.7452128 C133.086991,15.7558378 133.110254,15.75783 133.136176,15.7711112 C133.735033,16.0765792 134.080656,16.8130226 134.06271,17.4631381 C134.057393,17.6670047 134.017513,17.8801682 133.949053,18.0807146 C134.191654,18.4731745 133.971652,18.959267 133.589473,19.2235631 C133.996909,19.4606328 134.077333,20.2256308 133.489774,20.467349 C133.628023,20.4102397 133.711106,20.3650836 133.772254,20.3245759 C133.774913,20.3352009 133.772254,20.3425055 133.777571,20.3537946 C133.804158,20.4162163 133.778236,20.5543409 133.780895,20.6234032 C133.789535,20.8644573 133.806152,20.981332 133.831409,21.221722 C133.898539,21.8685172 133.906515,22.3818362 133.939748,23.0452329 C134.004885,24.3720263 132.677561,24.4371042 132.61176,23.1103108 C132.579192,22.4475782 132.496774,21.5477758 132.453571,20.7037546 C132.428314,20.2083653 132.422333,19.6950463 132.770614,19.3484066 C132.390429,19.2899692 132.045471,19.0814541 131.839427,18.7341504 C131.701843,18.5023932 131.636706,18.2374329 131.604802,17.9498946 C131.380148,17.3236853 131.466553,16.5580232 131.962389,16.1170869 C131.974353,16.1064619 131.986981,16.1051338 131.99828,16.0958369 C132.004927,16.0878682 132.00958,16.0805635 132.015561,16.0725948 C131.955742,16.0320871 131.899246,15.9849388 131.849397,15.9198608 C131.514409,15.484901 131.320993,14.7969341 131.144859,14.2789667" id="Fill-339" fill="#654E7E"></path>
                        <g id="Group-422" transform="translate(113.656627, 93.632568)">
                            <polygon id="Fill-374" fill="#553E2C" points="24.9246988 5.89812134 24.0606426 5.85429333 14.8159056 2.9450431 15.6779679 2.98687893"></polygon>
                            <polygon id="Fill-376" fill="#5F1B7D" points="15.6779014 2.98701174 24.9246323 5.89825415 23.4969456 12.8994468"></polygon>
                            <polygon id="Fill-378" fill="#39104E" points="23.4967462 12.899646 22.6333546 12.8505055 14.8156398 2.94471107 15.677702 2.98721096"></polygon>
                            <polygon id="Fill-382" fill="#634A36" points="15.3741524 8.50602079 14.5120902 8.46020059 10.5759817 3.49103386 11.4373793 3.53353375"></polygon>
                            <polygon id="Fill-402" fill="#4E1669" points="4.57929859 12.6732677 3.71989498 12.6241272 10.5758488 3.49063543 11.4372464 3.53379938"></polygon>
                            <polygon id="Fill-404" fill="#5F1B7D" points="11.4375122 3.53373297 15.3742853 8.50622 4.57956446 12.6732013"></polygon>
                            <path d="M2.70861687,17.7497467 L5.2323257,29.7944809 L8.12890803,15.6413537 L2.70861687,17.7497467 L2.70861687,17.7497467 Z M24.4223498,24.3491826 L29.7190145,22.2514146 L27.2730707,10.3541019 L24.4223498,24.3491826 L24.4223498,24.3491826 Z M11.4375787,3.53353375 L4.57896627,12.6730021 L15.3743518,8.50602079 L11.4375787,3.53353375 L11.4375787,3.53353375 Z M21.1475767,36.3806356 L27.8912032,27.2584328 L17.1995044,31.5270154 L21.1475767,36.3806356 L21.1475767,36.3806356 Z M7.63373735,34.2596255 L16.8997434,36.997548 L9.03949036,27.3626904 L7.63373735,34.2596255 L7.63373735,34.2596255 Z M24.9248317,5.89825415 L15.6781008,2.98701174 L23.4964803,12.8994468 L24.9248317,5.89825415 L24.9248317,5.89825415 Z M22.5420305,17.5697862 L17.9877896,11.8123794 L11.7247112,14.2488183 L10.0012514,22.6810619 L14.5488458,28.2644849 L20.8830426,25.7549992 L20.8883598,25.6985541 L22.5420305,17.5697862 L22.5420305,17.5697862 Z M27.2963337,5.02169394 L31.355404,24.7814862 L20.6730104,39.543557 L5.10670522,34.9548971 L0.9406249,15.2376048 L12.1733558,0.274987564 L27.2032815,5.02102987 L27.2963337,5.02169394 Z" id="Fill-410" fill="#9E7859"></path>
                            <polygon id="Fill-418" fill="#856449" points="0.940558434 15.237472 0.0824841365 15.1863393 11.3118918 0.234347045 12.1732894 0.274854752"></polygon>
                        </g>
                    </g>
                    <g id="Group-513" transform="translate(127.000000, 88.000000)" fill="#A08167">
                        <path d="M75.9057414,9.14629426 C77.71715,10.4708434 79.8820529,11.3127123 82.1334986,11.7927369 C87.2042443,13.3934828 92.8235386,13.6796385 92.1458414,9.28107295 C91.5966271,5.72039262 86.2982071,2.86348279 83.3391071,1.64981066 C80.8493357,0.629343443 76.8803471,-0.498681148 74.6681786,1.76201557 C72.28359,4.19799098 73.49053,7.38022869 75.9057414,9.14629426" id="Fill-511"></path>
                    </g>
                </g>
            </g>
        </g>
    </g>
</svg>