<?xml version="1.0" encoding="UTF-8"?>
<svg width="128px" height="128px" viewBox="0 0 128 128" version="1.1" xmlns="http://www.w3.org/2000/svg" xmlns:xlink="http://www.w3.org/1999/xlink">
    <!-- Generator: Sketch 59.1 (86144) - https://sketch.com -->
    <title>ss-circle-smile</title>
    <desc>Created with Sketch.</desc>
    <defs>
        <circle id="path-1" cx="64" cy="29" r="64"></circle>
        <polygon id="path-3" points="64.5248293 0.0333333333 0.167346679 0.0333333333 0.167346679 56.6506125 64.5248293 56.6506125"></polygon>
    </defs>
    <g id="Backups" stroke="none" stroke-width="1" fill="none" fill-rule="evenodd">
        <g id="Backups---No-History" transform="translate(-726.000000, -398.000000)">
            <g id="ss-circle-smile" transform="translate(726.000000, 398.000000)">
                <g id="Mask" fill="#A5A0D2" fill-rule="nonzero">
                    <circle id="path-1" cx="64" cy="64" r="64"></circle>
                </g>
                <g id="Page-1-Clipped" transform="translate(0.000000, 35.000000)">
                    <mask id="mask-2" fill="white">
                        <use xlink:href="#path-1"></use>
                    </mask>
                    <g id="path-1"></g>
                    <g id="Page-1" mask="url(#mask-2)">
                        <g transform="translate(-31.333333, -45.666667)" id="Group">
                            <g transform="translate(0.000000, 0.333333)">
                                <path d="M144.986733,61.9592333 C144.986733,61.9592333 142.211733,64.6812333 142.160733,65.9692333 C142.109733,67.2572333 144.546733,67.5742333 145.716733,67.8082333 C146.886733,68.0432333 148.804733,68.4922333 148.655733,66.3172333 C148.506733,64.1432333 148.240733,61.7102333 148.240733,61.7102333 L144.986733,61.9592333 Z" id="Fill-1" fill="#661E88"></path>
                                <path d="M145.716633,56.3749333 C145.716633,56.3749333 149.092633,57.0699333 149.891633,57.8149333 C150.690633,58.5589333 150.148633,60.0159333 150.030633,60.7579333 C149.912633,61.5009333 149.574633,62.9829333 148.592633,63.0199333 C147.611633,63.0559333 144.272633,62.0029333 144.272633,62.0029333 L145.716633,56.3749333 Z" id="Fill-3" fill="#654E7E"></path>
                                <path d="M144.304833,58.1276333 C144.391833,57.5836333 145.052833,56.2316333 145.716833,56.3746333 C146.380833,56.5176333 146.080833,58.5896333 145.716833,60.1516333 C145.352833,61.7136333 144.866833,61.9926333 144.272833,62.0036333 C143.677833,62.0146333 143.768833,61.4676333 144.304833,58.1276333" id="Fill-5" fill="#661E88"></path>
                                <path d="M145.333033,57.8677333 C144.564033,57.5787333 143.692033,57.4497333 142.902033,57.1977333 C142.194033,56.9717333 141.401033,56.7067333 140.647033,56.7187333 C140.590033,56.7197333 140.552033,56.7607333 140.535033,56.8107333 C140.414033,56.8617333 140.338033,57.0437333 140.479033,57.1477333 C140.270033,57.8337333 140.020033,58.5547333 139.885033,59.2547333 C139.829033,59.5457333 139.780033,59.6217333 139.986033,59.8147333 C140.064033,59.8867333 140.501033,59.9167333 140.602033,59.9357333 C140.771033,59.9667333 140.939033,59.9997333 141.108033,60.0317333 C142.274033,60.4267333 143.516033,60.7947333 144.680033,60.9927333 C144.818033,61.0167333 144.922033,60.9077333 144.984033,60.7967333 C145.147033,60.7767333 145.251033,60.6477333 145.278033,60.4657333 C145.388033,59.7367333 145.528033,58.9057333 145.533043,58.1757333 C145.534033,58.0407333 145.461033,57.9157333 145.333033,57.8677333" id="Fill-7" fill="#666666"></path>
                                <path d="M143.943433,57.7016333 C143.901433,57.5946333 143.734433,57.6696333 143.769433,57.7736333 C144.054433,58.6006333 143.990433,59.4426333 144.019433,60.3026333 C144.025433,60.4946333 144.293433,60.5086333 144.299433,60.3126333 C144.325433,59.4406333 144.265433,58.5176333 143.943433,57.7016333" id="Fill-9" fill="#989898"></path>
                                <path d="M144.683133,57.8949333 C144.651133,57.7569333 144.464133,57.8129333 144.487133,57.9459333 C144.603133,58.6049333 144.656133,59.3139333 144.598133,59.9819333 C144.579133,60.1999333 144.907133,60.2129333 144.913133,59.9929333 C144.935133,59.2989333 144.841133,58.5699333 144.683133,57.8949333" id="Fill-11" fill="#989898"></path>
                                <path d="M145.326233,58.3627333 C145.314233,58.2367333 145.115233,58.2607333 145.120233,58.3857333 C145.141233,58.9017333 145.124233,59.4037333 145.088233,59.9187333 C145.075233,60.1087333 145.343233,60.1157333 145.361233,59.9287333 C145.412233,59.4017333 145.377233,58.8877333 145.326233,58.3627333" id="Fill-13" fill="#989898"></path>
                                <path d="M146.698333,57.4279333 C146.698333,57.4279333 145.953333,52.6489333 146.106333,51.6729333 C146.259333,50.6969333 148.434333,51.1839333 150.065333,51.6729333 C151.696333,52.1619333 152.623333,52.7299333 151.087333,54.9269333 C149.551333,57.1239333 148.978333,57.8259333 148.978333,57.8259333 L146.698333,57.4279333 Z" id="Fill-15" fill="#654E7E"></path>
                                <path d="M155.403333,136.012833 C125.131333,117.731833 99.3543333,117.375833 94.6733333,117.476833 C89.9913333,117.375833 64.2153333,117.731833 33.9423333,136.012833 C15.0883333,140.970833 0.0283333333,140.761833 0.0283333333,140.761833 C0.0283333333,140.761833 4.57533333,253.484833 94.6733333,253.905833 C184.770333,253.484833 189.317333,140.761833 189.317333,140.761833 C189.317333,140.761833 174.257333,140.970833 155.403333,136.012833" id="Fill-22" fill="#977558"></path>
                                <path d="M94.6729333,117.476933 C87.8769333,117.476933 62.7759333,117.126933 62.7609128,129.030933 C62.7469333,140.934933 69.8869333,145.153933 75.2639333,147.454933 C78.5479333,148.859933 85.0599333,156.895933 89.6319333,162.939933 C92.1629333,166.284933 97.1829333,166.284933 99.7139333,162.939933 C104.285933,156.895933 110.797933,148.859933 114.081933,147.454933 C119.458933,145.153933 126.598933,140.934933 126.584954,129.030933 C126.569933,117.126933 101.468933,117.476933 94.6729333,117.476933" id="Fill-24" fill="#3B3F47"></path>
                                <path d="M70.4907333,56.5991333 C70.4907333,55.5451333 66.1377333,51.8931333 63.8177333,53.0721333 C61.4987333,54.2511333 61.1717333,63.5661333 65.0457333,64.4181333 C68.9197333,65.2711333 70.4907333,63.8621333 70.4907333,63.8621333 L70.4907333,56.5991333 Z" id="Fill-26" fill="#FBC39C"></path>
                                <path d="M119.209933,58.7663333 C121.077933,57.3173333 123.370933,53.2613333 126.189933,56.1633333 C129.007933,59.0663333 128.950933,68.2333333 121.461933,67.2363333 C113.973933,66.2393333 119.209933,58.7663333 119.209933,58.7663333" id="Fill-28" fill="#FBC39C"></path>
                                <path d="M115.577133,135.568833 L96.8711333,149.069833 C95.2781333,150.219833 93.1171333,150.178833 91.5681333,148.968833 L74.4681333,135.606833 C72.0721333,133.735833 70.6731333,130.864833 70.6731333,127.825833 L70.6731333,105.975833 L119.673133,105.975833 L119.673133,127.561833 C119.673133,130.733833 118.149133,133.712833 115.577133,135.568833" id="Fill-30" fill="#FBC39C"></path>
                                <path d="M119.490733,105.633333 L70.4907333,105.633333 L70.4907333,115.617333 C76.4907333,120.078333 86.1407333,125.096333 99.2687333,128.916333 C99.8547333,129.087333 100.972733,129.067333 101.546733,128.856333 C109.000733,126.121333 115.490733,122.709333 119.490733,119.298333 L119.490733,105.633333 Z" id="Fill-32" fill="#BA8F6D"></path>
                                <path d="M114.273333,24.3002333 C114.273333,24.3002333 118.943333,52.5932333 119.210333,55.1422333 C119.477333,57.6902333 119.968333,59.0662333 122.228333,56.3142333 C122.188333,55.4112333 121.396333,49.4862333 121.087333,43.3222333 C120.777333,37.1592333 126.555333,25.0672333 123.409333,17.9922333 C118.592333,17.1072333 114.273333,24.3002333 114.273333,24.3002333" id="Fill-34" fill="#FEC100"></path>
                                <path d="M74.0978333,30.4930333 C74.0978333,30.4930333 63.5338333,98.8420333 63.1948333,103.875033 C62.8598333,108.839033 75.8748333,118.308033 99.0038333,124.558033 C99.6348333,124.729033 100.318833,124.709033 100.936833,124.498033 C119.391833,118.209033 128.695833,108.344033 128.032833,103.143033 C127.357833,97.8520333 117.543833,35.9590333 117.675833,32.1910333 C117.807833,28.4240333 116.847833,18.7800333 116.847833,18.7800333 L81.3298333,14.0940333 L74.0978333,30.4930333 Z" id="Fill-36" fill="#FBC39C"></path>
                                <path d="M123.949233,76.2602333 C123.848233,75.6022333 123.747233,74.9392333 123.645233,74.2742333 C122.334233,74.2672333 120.937233,73.8832333 119.796233,73.5952333 C116.639233,72.7962333 113.412233,72.0552333 110.391233,70.8452333 C107.192233,69.5632333 104.108233,68.1422333 101.163233,66.3292333 C99.7442333,65.4562333 98.3542333,64.5812333 96.8932333,63.7802333 C96.2772333,63.4412333 95.3142333,62.5002333 94.5852333,62.4042333 C92.6842333,62.1552333 90.8702333,65.1212333 89.5952333,66.0162333 C87.0832333,67.7822333 84.0472333,69.1352333 81.1792333,70.1822333 C78.4142333,71.1932333 75.6322333,72.1832333 72.7982333,73.0162333 C71.1122333,73.5122333 69.3872333,73.9162333 67.7222333,74.4792333 C67.6052333,74.5192333 67.4852333,74.5722333 67.3662333,74.6212333 C67.2592333,75.3382333 67.1512333,76.0532333 67.0452333,76.7622333 C69.7102333,76.2742333 72.4752333,75.2082333 74.9822333,74.4082333 C77.6882333,73.5452333 80.3622333,72.6642333 82.9882333,71.5982333 C85.7682333,70.4682333 88.7612333,69.0912333 91.1352333,67.2312333 C92.0742333,66.4962333 93.0572333,64.8232333 94.3072333,64.4552333 C94.3862333,64.5052333 94.5262333,64.5962333 94.7452333,64.7782333 C95.3882333,65.3112333 96.2832333,65.6202333 97.0082333,66.0312333 C100.177233,67.8302333 103.151233,69.8132333 106.455233,71.3872333 C109.158233,72.6752333 111.973233,73.4672333 114.826233,74.3232333 C117.606233,75.1572333 120.928233,76.3662333 123.949233,76.2602333" id="Fill-38" fill="#DEB18A"></path>
                                <path d="M111.823233,33.7638333 C113.993233,33.3188333 115.920233,32.7318333 117.681233,31.8598333 C117.698233,30.9438333 117.665233,29.7668333 117.600233,28.4748333 C115.035233,29.6058333 112.356233,30.4568333 109.585233,31.0098333 C105.070233,31.9108333 101.178233,31.2208333 96.7722333,30.1488333 C92.8502333,29.1948333 89.4612333,26.9708333 86.8512333,23.9188333 C85.6032333,22.4598333 84.1152333,21.2318333 82.9882333,19.6728333 C82.2582333,18.6638333 81.9082333,17.7488333 80.9102333,17.2498333 C80.8692333,16.9238333 80.5722333,16.8978333 80.3662333,17.0388333 C80.3512333,17.0348333 80.3402333,17.0288333 80.3242333,17.0238333 C80.2232333,16.9968333 80.1352333,17.0058333 80.0442333,17.0088333 L79.3332333,18.6218333 C79.4362333,18.7568333 79.5692333,18.8728333 79.7712333,18.9268333 C79.8372333,18.9448333 79.8982333,18.9788333 79.9602333,19.0078333 C79.5962333,21.8518333 79.2422333,24.6918333 78.8202333,27.5318333 C78.5472333,29.3638333 78.1802333,31.2088333 77.7022333,32.9978333 C77.3602333,34.2778333 76.6652333,35.5828333 76.5922333,36.9168333 C76.5382333,37.8918333 77.7372333,38.2668333 78.2652333,37.4738333 C79.8322333,35.1228333 80.7802333,32.3798333 81.2672333,29.6118333 C81.6062333,27.6868333 81.9412333,25.6048333 82.0682333,23.5618333 C82.4342333,23.9628333 82.8142333,24.3598333 83.1822333,24.7798333 C84.5192333,26.3048333 85.7682333,27.6758333 87.4662333,28.8288333 C91.1172333,31.3078333 95.2472333,33.7868333 99.7442333,34.0758333 C103.678233,34.3288333 107.940233,34.5608333 111.823233,33.7638333" id="Fill-40" fill="#DEB18A"></path>
                                <g id="Group-44" transform="translate(66.333333, 0.300000)">
                                    <g id="Fill-42-Clipped">
                                        <mask id="mask-4" fill="white">
                                            <use xlink:href="#path-3"></use>
                                        </mask>
                                        <g id="path-3"></g>
                                        <path d="M13.5529,17.7271333 C13.5139,17.6701333 13.4309,17.7051333 13.4449,17.7721333 C13.8099,19.5571333 15.3359,28.9481333 10.0189,40.8411333 C5.5479,50.3931333 4.6359,51.4561333 4.4509,51.5191333 C4.4179,51.5301333 4.4039,51.5691333 4.4029,51.6041333 L4.3399,56.2521333 C4.3399,56.2801333 4.3249,56.3031333 4.2979,56.3111333 C3.9119,56.4231333 0.9829,57.2331333 1.8599,55.8631333 C2.7979,54.3981333 2.7299,45.8371333 1.9279,43.1751333 C1.1269,40.5161333 -4.3941,17.8281333 9.4199,11.8081333 C9.4519,11.7941333 9.4669,11.7541333 9.4519,11.7211333 C7.7719,8.12213333 5.3699,7.50313333 4.5919,7.39613333 C4.5279,7.38713333 4.5159,7.29913333 4.5769,7.27613333 C5.4999,6.93413333 8.9179,6.01813333 11.2639,10.0901333 C11.2999,10.1521333 11.3889,10.1191333 11.3749,10.0481333 C9.6369,1.58113333 12.1359,0.234133333 12.7329,0.0361333333 C12.7839,0.0191333333 12.8289,0.0701333333 12.8089,0.121133333 C12.4879,0.952133333 10.7009,5.96413333 13.8979,7.02213333 C13.9189,7.02913333 13.9439,7.02513333 13.9609,7.01113333 C21.1379,1.28213333 32.2639,1.48613333 43.6789,7.76713333 C52.4419,12.3191333 63.2849,7.64813333 64.4409,7.12613333 C64.4869,7.10513333 64.5319,7.14613333 64.5239,7.19613333 C64.2389,8.93013333 60.5699,29.4931333 46.2649,31.9401333 C31.5049,34.4651333 18.5579,25.0671333 13.5529,17.7271333" id="Fill-42" fill="#FEF202" fill-rule="nonzero" mask="url(#mask-4)"></path>
                                    </g>
                                </g>
                                <path d="M94.0708333,60.6333333 C94.0708333,60.6333333 92.7878333,71.7773333 92.5918333,73.9073333 C92.3968333,76.0373333 93.8638333,85.8813333 95.0088333,86.1143333 C96.1528333,86.3473333 106.947833,85.5333333 106.947833,85.5333333 C106.947833,85.5333333 98.0018333,88.7173333 95.6268333,89.0023333 C93.2518333,89.2883333 91.3028333,88.0943333 91.3498333,84.7673333 C91.3978333,81.4403333 91.7308333,74.8703333 91.7308333,74.8703333 L93.0618333,60.6333333 L94.0708333,60.6333333 Z" id="Fill-45" fill="#BA8F6D"></path>
                                <path d="M75.2152333,92.2190333 C75.2152333,92.2190333 76.1372333,92.4840333 75.8162333,94.8560333 C75.4942333,96.6940333 74.3692333,97.6190333 74.3692333,97.6190333 C74.3692333,97.6190333 74.0432333,96.7470333 74.3692333,96.4280333 C74.6952333,96.1080333 75.6812333,93.4980333 75.2152333,92.2190333" id="Fill-47" fill="#DEB18A"></path>
                                <path d="M121.462433,82.3630333 C121.335433,82.7270333 120.425433,84.8670333 120.628433,86.3590333 C120.832433,87.8500333 121.462433,87.6910333 121.462433,87.6910333 C121.462433,87.6910333 121.400433,85.6180333 121.462433,85.0290333 C121.524433,84.4410333 121.680433,81.7390333 121.462433,82.3630333" id="Fill-49" fill="#DEB18A"></path>
                                <path d="M82.2864333,97.0310333 C89.1974333,97.2070333 101.741433,94.9190333 114.065433,86.0920333 C117.209433,83.1090333 113.691433,92.0390333 113.052433,94.1700333 C112.413433,96.3010333 103.841433,108.051033 90.1454333,111.558033 L87.9614333,111.878033 C87.9614333,111.878033 90.3584333,110.812033 90.2514333,109.533033 C90.1454333,108.255033 87.0314333,97.6190333 87.0314333,97.6190333 C87.0314333,97.6190333 80.2004333,96.9780333 82.2864333,97.0310333" id="Fill-51" fill="#333333"></path>
                                <path d="M103.176833,77.1423333 C103.176833,77.1423333 114.271833,74.8093333 118.471833,78.4753333 C120.589833,80.2253333 117.475833,78.4753333 117.475833,78.4753333 L105.196833,78.1203333 C105.196833,78.1203333 102.197833,77.3213333 103.176833,77.1423333" id="Fill-53" fill="#DEB18A"></path>
                                <path d="M87.9700333,97.4315333 C87.9700333,97.4315333 90.8350333,105.921533 91.3490333,110.615533 C93.5830333,110.174533 99.0770333,107.380533 104.299033,104.232533 C109.558033,99.9735333 112.675033,95.4245333 113.052033,94.1725333 C112.303033,94.6665333 111.339033,95.4115333 110.024033,96.3275333 C110.928033,95.4705333 112.668033,93.5815333 113.708033,92.2185333 C113.940033,91.5425333 114.197033,90.7855333 114.439033,90.0275333 C114.137033,88.9055333 113.337033,87.2845333 113.337033,87.2845333 C105.020033,94.6705333 87.9700333,97.4315333 87.9700333,97.4315333" id="Fill-55" fill="#F0F2F2"></path>
                                <path d="M123.409233,58.7663333 C123.409233,58.7663333 121.736233,61.7283333 121.943233,63.0863333 C122.150233,64.4433333 124.333233,63.0863333 124.333233,63.0863333 L123.129233,61.2663333 L123.409233,58.7663333 Z" id="Fill-57" fill="#CB916B"></path>
                                <path d="M64.3067333,56.1635333 C64.3067333,56.1635333 66.4177333,56.2065333 67.9387333,58.7665333 C68.8707333,60.7365333 66.9357333,62.4665333 66.9357333,62.4665333 C66.9357333,62.4665333 66.2567333,60.3395333 66.4407333,58.7665333 C66.1007333,56.8045333 64.3067333,56.1635333 64.3067333,56.1635333" id="Fill-59" fill="#CB916B"></path>
                                <path d="M102.980633,34.7026333 C102.980633,34.7026333 104.002633,26.5406333 107.956633,23.4456333 C111.910633,20.3496333 117.020633,21.7256333 118.985633,26.2456333 C119.771633,28.5056333 112.928633,25.1126333 110.012633,28.6276333 C107.095633,32.1416333 102.627633,36.6666333 102.980633,34.7026333" id="Fill-61" fill="#FEC100"></path>
                                <path d="M72.5067333,30.5215333 C72.5067333,30.5215333 83.8457333,35.8755333 88.9847333,36.4655333 C90.8817333,37.0545333 90.7357333,36.6735333 91.3497333,34.7025333 C91.9627333,32.7315333 90.1467333,33.1765333 87.0257333,33.2985333 C83.9057333,33.4195333 77.4197333,27.9185333 72.5067333,30.5215333" id="Fill-63" fill="#FEC100"></path>
                                <path d="M114.439233,90.0276333 C114.136233,88.9056333 113.337233,87.2846333 113.337233,87.2846333 C105.019233,94.6706333 87.9702333,97.4316333 87.9702333,97.4316333 C87.9702333,97.4316333 88.3072333,98.4346333 88.7682333,99.9276333 C94.7692333,99.4006333 105.830233,97.7006333 111.283233,92.2186333 C111.654233,93.1716333 111.345233,94.3336333 110.428233,95.9306333 C111.381233,94.9736333 112.806233,93.3996333 113.707233,92.2186333 C113.939233,91.5426333 114.197233,90.7856333 114.439233,90.0276333" id="Fill-65" fill="#CCCCCB"></path>
                                <path d="M113.429733,102.976333 C113.413733,102.865333 113.390733,102.753333 113.360733,102.643333 C113.127733,102.954333 112.883733,103.245333 112.723733,103.600333 C112.566733,103.946333 112.335733,104.245333 112.094733,104.543333 C111.615733,105.139333 111.036733,105.667333 110.332733,105.982333 C109.563733,106.326333 108.704733,106.395333 107.890733,106.613333 C105.493733,107.253333 103.653733,109.111333 101.596733,110.498333 C100.938733,110.941333 100.250733,111.340333 99.5397333,111.691333 C99.3127333,111.803333 98.6587333,112.094333 98.6137333,112.376333 C98.5357333,112.862333 99.2527333,112.783333 99.5727333,112.693333 C100.963733,112.304333 102.175733,111.559333 103.301733,110.672333 C104.441733,109.774333 105.540733,108.792333 106.850733,108.166333 C107.806733,107.709333 108.845733,107.458333 109.848733,107.116333 C110.851733,106.774333 111.850733,106.320333 112.578733,105.550333 C113.225733,104.866333 113.564733,103.907333 113.429733,102.976333" id="Fill-67" fill="#DEB18A"></path>
                                <path d="M127.414133,41.7117333 C126.899133,41.9997333 126.559133,42.3787333 126.173133,42.8287333 C125.773133,43.2937333 125.265133,43.6837333 125.002133,44.2457333 C124.882133,44.5047333 124.977133,44.8967333 125.321133,44.9037333 C125.893133,44.9147333 126.514133,44.3297333 126.921133,43.9857333 C127.194133,43.7547333 127.444133,43.4687333 127.727133,43.2537333 C127.941133,43.0907333 128.178133,43.0087333 128.296133,42.7397333 C128.544133,42.1747333 128.109133,41.3227333 127.414133,41.7117333" id="Fill-69" fill="#A78A72"></path>
                                <path d="M101.406333,45.2076333 C101.361333,44.7826333 100.890333,44.6626333 100.579333,44.8456333 C100.282333,44.6996333 99.9933333,44.5396333 99.7093333,44.3766333 C99.5003333,44.2176333 99.2773333,44.0786333 99.0273333,43.9856333 C98.2463333,43.6966333 97.6963333,44.9666333 98.3803333,45.3656333 C98.4343333,45.3966333 98.4903333,45.4166333 98.4903333,45.4466333 L98.4903333,45.4486333 C98.4903333,45.4526333 98.5713333,45.4596333 98.5823333,45.4636333 C98.8943333,45.6316333 99.2373333,45.7856333 99.5603333,45.9246333 C99.6133333,45.9496333 99.6803333,45.9736333 99.7333333,45.9956333 C100.016333,46.1166333 100.307333,46.2356333 100.587333,46.3716333 C101.014333,46.5786333 101.391333,46.0926333 101.421333,45.7316333 C101.436333,45.5486333 101.425333,45.3906333 101.406333,45.2076333" id="Fill-71" fill="#A78A72"></path>
                                <path d="M144.986733,61.9592333 C144.986733,61.9592333 142.211733,64.6812333 142.160733,65.9692333 C142.109733,67.2572333 144.546733,67.5742333 145.716733,67.8082333 C146.886733,68.0432333 148.804733,68.4922333 148.655733,66.3172333 C148.506733,64.1432333 148.240733,61.7102333 148.240733,61.7102333 L144.986733,61.9592333 Z" id="Fill-73" fill="#661E88"></path>
                                <path d="M138.109433,52.7423333 L140.511433,53.7163333 C140.821433,53.8423333 141.004433,54.1663333 140.952433,54.4973333 L140.585433,56.8203333 L139.195433,61.4583333 L138.021433,63.0413333 C137.726433,63.4403333 137.234433,63.6413333 136.745433,63.5643333 L134.442433,63.2033333 L138.109433,52.7423333 Z" id="Fill-75" fill="#989898"></path>
                                <path d="M138.936533,61.2053333 C138.898533,61.1453333 138.845533,61.0973333 138.770533,61.0793333 C137.960533,60.8883333 137.109533,60.7713333 136.276533,60.8173333 C136.271533,60.8173333 136.269533,60.8223333 136.264533,60.8223333 C136.125533,60.8193333 135.983533,60.8073314 135.847533,60.8133333 C135.686533,60.8193333 135.586533,60.9383333 135.551533,61.0723333 C135.524533,61.0723333 135.497533,61.0693333 135.470533,61.0703333 C135.316533,61.0733333 135.306533,61.3203333 135.461533,61.3273333 C135.505533,61.3303333 135.549533,61.3373333 135.593533,61.3403333 C135.627533,61.3933333 135.670533,61.4423333 135.742533,61.4673333 C135.779533,61.4803333 135.819533,61.4873333 135.857533,61.4983333 C135.749533,61.6353333 135.747533,61.8583333 135.855533,61.9963333 C135.831533,62.0663333 135.828533,62.1433333 135.838533,62.2163333 C135.625533,62.2673333 135.412533,62.3103333 135.200533,62.3663333 C134.958533,62.4303333 134.905533,62.6793333 134.983533,62.8663333 C134.970533,62.8763333 134.956533,62.8813333 134.943533,62.8913333 C134.839533,62.9763333 134.842533,63.1493333 134.908533,63.2763333 L135.479533,63.3653333 C135.581533,63.3493333 135.682533,63.3353333 135.784533,63.3213333 C135.787533,63.3533333 135.795533,63.3863333 135.806533,63.4173333 L136.744533,63.5643333 C137.234533,63.6413333 137.725533,63.4403333 138.020533,63.0413333 L139.194533,61.4583333 L139.248533,61.2773333 C139.244533,61.2763333 139.243533,61.2713333 139.238533,61.2703333 C139.140533,61.2483333 139.036533,61.2273333 138.936533,61.2053333" id="Fill-77" fill="#666666"></path>
                                <path d="M140.003933,56.6110333 C139.996933,56.6020333 139.986933,56.6070333 139.978933,56.6030333 C140.009933,56.4440333 139.958933,56.2690333 139.777933,56.2240333 C139.024933,56.0350333 138.261933,56.0620333 137.508933,55.9200333 C137.266933,55.8740333 137.153933,56.2410333 137.393933,56.3150333 C138.117933,56.5400333 138.872933,56.5990333 139.589933,56.8690333 C139.676933,56.9020333 139.751933,56.8880333 139.813933,56.8530333 C139.680933,57.1520333 139.595933,57.9980333 139.570933,58.1420333 C139.476933,58.6780333 139.338933,59.1930333 139.179933,59.7110333 C139.171933,59.7250333 139.170933,59.7440333 139.164933,59.7610333 C139.160933,59.7740333 139.157933,59.7880333 139.152933,59.8020333 L139.153933,59.8020333 C139.150933,59.8170333 139.143933,59.8290333 139.142933,59.8450333 C139.141933,59.8590333 139.140933,59.8730333 139.139933,59.8870333 C139.113933,60.2440333 139.422933,60.5260333 139.529933,60.1860333 C139.733933,59.5350333 139.991933,58.6610333 140.050933,57.9840333 C140.087933,57.5560333 140.261933,56.9860333 140.003933,56.6110333" id="Fill-79" fill="#666666"></path>
                                <path d="M138.489333,58.2019333 C138.375333,57.7169333 138.361333,57.1489333 138.134333,56.7019333 C138.080333,56.5979333 137.923333,56.6389333 137.924329,56.7559333 C137.940333,57.9729333 138.243333,59.2009333 138.516333,60.3809333 C138.590333,60.6989333 138.989333,60.5609333 138.957333,60.2649333 C138.882333,59.5679333 138.649333,58.8839333 138.489333,58.2019333" id="Fill-81" fill="#666666"></path>
                                <path d="M137.904833,59.1516333 C137.803833,58.8476333 137.747833,58.5336333 137.654833,58.2286333 C137.571833,57.9586333 137.436833,57.7106333 137.395833,57.4296333 C137.372833,57.2806333 137.156833,57.3126333 137.154833,57.4566333 C137.149833,57.7076333 137.187833,57.9646333 137.234833,58.2206333 C137.098833,58.1866333 136.932833,58.2856333 136.906833,58.4196333 C136.869833,58.6176333 136.800833,59.8606333 136.657833,59.8546333 C136.306833,59.8416333 136.287833,60.4186333 136.636833,60.4406333 C137.080833,60.4686333 137.506833,60.6626333 137.951833,60.6306333 C138.118833,60.6176333 138.242833,60.5006333 138.250833,60.3266333 C138.269833,59.9356333 138.025833,59.5166333 137.904833,59.1516333" id="Fill-83" fill="#666666"></path>
                                <path d="M134.353133,46.9433333 C134.274133,47.0683333 136.448133,48.5493333 137.782133,49.4403333 C138.430133,49.8733333 138.788133,50.6173333 138.716133,51.3933333 C138.508133,53.6243333 137.727133,58.6123333 134.786133,65.1643333 C133.052133,66.8793333 130.766133,66.6933333 130.766133,66.6933333 L134.353133,46.9433333 Z" id="Fill-85" fill="#977558"></path>
                                <path d="M128.255633,41.7841333 C128.255633,41.7841333 133.591633,38.6491333 135.020633,47.3031333 C136.449633,55.9571333 133.187633,65.7611333 129.683633,70.8681333 C127.347633,73.9311333 124.813633,72.1531333 121.086633,72.3121333 C117.359633,72.4711333 128.255633,41.7841333 128.255633,41.7841333" id="Fill-87" fill="#1A1A1A"></path>
                                <path d="M94.4907333,37.9756333 L94.4907333,62.9756333 C94.4907333,62.9756333 109.505733,71.2706333 113.367733,72.3126333 C117.230733,73.3536333 122.217733,74.9816333 123.713733,75.0196333 C125.210733,75.0586333 125.226733,72.9636333 125.397733,72.2746333 C128.325733,68.9056333 137.700733,55.7046333 128.822733,40.8836333 C128.822733,40.8836333 130.637733,39.3046333 128.360733,37.8136333 C126.354733,36.5006333 125.546733,37.7356333 123.589733,38.1896333 C121.633733,38.6426333 121.917733,34.8246333 112.819733,35.4826333 C103.721733,36.1416333 100.490733,37.9756333 94.4907333,37.9756333" id="Fill-89" fill="#333333"></path>
                                <path d="M129.683433,53.0824333 C129.683433,62.3454333 122.174433,69.8534333 112.912433,69.8534333 C103.649433,69.8534333 96.1414333,62.3454333 96.1414333,53.0824333 C96.1414333,43.8204333 103.649433,36.3114333 112.912433,36.3114333 C122.174433,36.3114333 129.683433,43.8204333 129.683433,53.0824333" id="Fill-91" fill="#8B6342"></path>
                                <path d="M128.869633,53.6293333 C128.869633,62.1403333 121.969633,69.0403333 113.458633,69.0403333 C104.948633,69.0403333 98.0486333,62.1403333 98.0486333,53.6293333 C98.0486333,45.1183333 104.948633,38.2193333 113.458633,38.2193333 C121.969633,38.2193333 128.869633,45.1183333 128.869633,53.6293333" id="Fill-93" fill="#977558"></path>
                                <path d="M126.823933,53.6293333 C126.823933,61.0103333 120.839933,66.9943333 113.458933,66.9943333 C106.077933,66.9943333 100.093933,61.0103333 100.093933,53.6293333 C100.093933,46.2483333 106.077933,40.2643333 113.458933,40.2643333 C120.839933,40.2643333 126.823933,46.2483333 126.823933,53.6293333" id="Fill-95" fill="#661E88"></path>
                                <path d="M116.942433,34.7221333 C115.889433,34.5761333 115.921433,35.8571333 115.853433,36.5631333 C115.798433,37.1311333 115.659433,37.7331333 115.696433,38.3081333 C115.713433,38.5501333 115.749433,38.8051333 115.807433,39.0421333 C115.829433,39.1351333 115.931433,39.7221333 116.016433,39.5051333 C115.977433,39.6061333 116.012433,39.7411333 116.081433,39.8201333 L116.101433,39.8421333 C116.256433,40.0181333 116.516433,39.9801333 116.635433,39.7861333 C117.031433,39.1431333 117.025433,38.2431333 117.167433,37.5211333 C117.234433,37.1791333 117.242433,36.8471333 117.261433,36.5001333 C117.277433,36.2121333 117.215433,35.8291333 117.362433,35.5891333 C117.587433,35.2251333 117.345433,34.7781333 116.942433,34.7221333" id="Fill-97" fill="#A78A72"></path>
                                <path d="M132.117233,53.7266333 C131.824233,53.5496333 131.648233,53.6506333 131.342233,53.6996333 C131.103233,53.7376333 130.580233,53.7356333 130.265233,53.7656333 C129.518233,53.8356333 128.485233,53.7986333 127.970233,54.4466333 C127.928233,54.4986333 127.918233,54.5686333 127.963233,54.6236333 C128.379233,55.1256333 129.261233,55.0606333 129.857233,55.1406333 C130.429233,55.2156333 131.312233,55.4686333 131.880233,55.2456333 C132.463233,55.0176333 132.747233,54.1066333 132.117233,53.7266333" id="Fill-99" fill="#A78A72"></path>
                                <path d="M128.553233,63.4816333 C128.399233,62.8236333 127.683233,62.4676333 127.097233,62.2306333 C126.618233,62.0356333 125.953233,61.8116333 125.466233,62.0896333 C125.288233,62.1916333 125.158233,62.4636333 125.226233,62.6676333 C125.385233,63.1446333 125.888233,63.5856333 126.322233,63.8136333 C126.848233,64.0916333 127.394233,64.5746333 128.023233,64.4146333 C128.416233,64.3156333 128.642233,63.8636333 128.553233,63.4816333" id="Fill-101" fill="#A78A72"></path>
                                <path d="M119.364733,69.8681333 C119.276733,69.5281333 119.104733,69.0801333 118.860733,68.6971333 C118.898733,68.6911333 118.903733,68.6271333 118.861733,68.6281333 C118.849733,68.6281333 118.830733,68.6301333 118.814733,68.6321333 C118.580733,68.2851333 118.289733,67.9991333 117.943733,67.9131333 C117.569733,67.8211333 117.238733,68.1561333 117.328733,68.5361333 C117.344733,68.6031333 117.383733,68.6521333 117.410733,68.7091333 C117.416733,68.9581333 117.436733,69.2121333 117.471733,69.4431333 C117.531733,69.8401333 117.758733,70.1591333 117.935733,70.4631333 C118.399733,71.2641333 119.600733,70.7781333 119.364733,69.8681333" id="Fill-103" fill="#A78A72"></path>
                                <path d="M108.932633,68.2437333 C108.893633,67.8977333 108.633633,67.6747333 108.353633,67.8527333 C108.357633,67.8487333 108.361633,67.8447333 108.365633,67.8407333 C108.350633,67.8407333 108.335633,67.8397333 108.320633,67.8397333 C108.081633,67.8317333 107.901633,67.9797333 107.801633,68.1747333 C107.421633,68.6377333 107.288633,69.2817333 107.259633,69.8717333 C107.220633,70.6407333 108.379633,70.9187333 108.550633,70.1087333 C108.631633,69.7197333 108.796633,69.2907333 108.883633,68.8677333 C109.026633,68.6337333 109.017633,68.4177333 108.932633,68.2437333" id="Fill-105" fill="#A78A72"></path>
                                <path d="M101.544433,61.9464333 C101.201433,61.7734333 100.790433,61.9474333 100.681433,62.2784333 C100.638433,62.3034333 100.590433,62.3374333 100.566433,62.3534333 C100.391433,62.4634333 100.224433,62.5844333 100.047433,62.6924333 C99.7464333,62.8764333 99.4094333,63.0484333 99.1124333,63.2524333 C99.0814333,63.2674333 99.0524333,63.2854333 99.0204333,63.2994333 C99.0224333,63.3034333 99.0244333,63.3064333 99.0254333,63.3104333 C98.9824333,63.3434333 98.9294333,63.3674333 98.8894333,63.4024333 C98.3154333,63.9034333 98.9774333,64.8184333 99.6064333,64.4854333 C99.6094333,64.4934333 99.6134333,64.5004333 99.6164333,64.5074333 C100.194433,64.2094333 100.739433,63.8424333 101.281433,63.4824333 C101.754433,63.1674333 102.294433,62.3254333 101.544433,61.9464333" id="Fill-107" fill="#A78A72"></path>
                                <path d="M123.069333,45.9474333 C123.358333,45.7474333 123.646333,45.5454333 123.934333,45.3454333 C123.632333,44.9644333 123.316333,44.5974333 122.975333,44.2524333 C119.699333,46.3174333 116.544333,48.6124333 113.468333,50.9404333 C111.701333,52.2784333 109.867333,53.5034333 108.039333,54.7554333 C106.721333,55.6574333 104.914333,57.4484333 103.264333,58.0084333 C103.231333,57.9794333 103.189333,57.9604333 103.136333,57.9754333 C102.869333,58.0494333 102.855333,58.0504333 102.629333,58.2004333 C102.383333,58.3634333 102.338333,58.7934333 102.531333,58.9964333 C102.330333,59.4114333 102.271333,59.8434333 102.555333,60.2934333 C102.755333,60.6074333 103.110333,60.7984333 103.470333,60.5884333 C107.481333,58.2504333 111.035333,54.9564333 114.821333,52.2664333 C117.621333,50.2764333 120.293333,48.0104333 123.069333,45.9474333" id="Fill-109" fill="#654E7E"></path>
                                <path d="M123.635733,52.1380333 C122.705733,52.2750333 121.811733,53.1660333 121.007733,53.6540333 C119.567733,54.5260333 118.163733,55.4640333 116.789733,56.4370333 C114.112733,58.3320333 111.631733,60.5890333 108.848733,62.3230333 C108.550733,62.5090333 108.697733,63.1520333 109.082733,62.9950333 C111.733733,61.9180333 114.075733,59.2400333 116.317733,57.5290333 C117.660733,56.5030333 119.031733,55.5080333 120.443733,54.5780333 C121.375733,53.9640333 122.600733,52.7420333 123.709733,52.4800333 C123.914733,52.4310333 123.845733,52.1070333 123.635733,52.1380333" id="Fill-111" fill="#654E7E"></path>
                                <path d="M120.525433,57.8451333 C120.499433,57.7711333 120.461433,57.7051333 120.413433,57.6471333 C120.424433,57.6321333 120.438433,57.6181333 120.449433,57.6041333 C120.572433,57.4451333 120.401433,57.1881333 120.229433,57.3471333 C120.176433,57.3971333 120.119433,57.4391333 120.065433,57.4881333 C120.001433,57.4951333 119.936433,57.5151333 119.869433,57.5651333 C118.960433,58.2451333 118.002433,58.8581333 117.096433,59.5431333 C116.805433,59.7621333 116.527433,59.9991333 116.244433,60.2261333 C116.213433,60.2361333 116.183433,60.2391333 116.149433,60.2581333 C115.653433,60.5341333 115.162433,60.8191333 114.675433,61.1131333 C114.515433,61.2101333 114.441433,61.3751333 114.428433,61.5461333 C114.158433,61.8651333 114.506433,62.4221333 114.907433,62.2031333 C114.909433,62.2071333 114.911433,62.2121333 114.914433,62.2171333 C114.962433,62.1861333 115.011433,62.1531333 115.059433,62.1211333 C115.281433,62.0611333 115.488433,61.9781333 115.684433,61.8801333 C115.776433,62.0931333 115.982433,62.2321333 116.229433,62.0631333 C117.121433,61.4541333 117.869433,60.5951333 118.731433,59.9271333 C119.345433,59.4501333 120.022433,59.0281333 120.453433,58.3681333 C120.526433,58.2961333 120.605433,58.2311333 120.676433,58.1581333 C120.808433,58.0231333 120.672433,57.8141333 120.525433,57.8451333" id="Fill-113" fill="#654E7E"></path>
                                <path d="M127.171433,41.6383333 C127.004433,41.5613333 126.807433,41.5723333 126.646433,41.7443333 C126.468433,41.9323333 126.289433,42.1273333 126.107433,42.3203333 C126.051433,42.3693333 125.997433,42.4193333 125.939433,42.4663333 C125.796433,42.5813333 125.628433,42.7913333 125.440433,42.8053333 C125.132433,42.8283333 124.972433,43.0723333 124.975433,43.3193333 C124.911433,43.3893333 124.847433,43.4583333 124.789433,43.5393333 C124.514433,43.9173333 124.987433,44.5453333 125.413433,44.2673333 C125.452433,44.2423333 125.488433,44.2113333 125.527433,44.1843333 C125.946433,44.0883333 126.271433,43.7873333 126.573433,43.4973333 C126.925433,43.1593333 127.297433,42.7923333 127.603433,42.4123333 C127.877433,42.0723333 127.626433,41.4623333 127.171433,41.6383333" id="Fill-115" fill="#A78A72"></path>
                                <path d="M107.110833,38.8318333 C107.042833,38.5238333 106.910833,38.2528333 106.769833,37.9818333 C106.625833,37.4668333 106.465833,36.9518333 106.214833,36.5168333 C106.065833,36.2588333 105.805833,36.1678333 105.571833,36.2078333 C105.524833,36.1778333 105.474833,36.1788333 105.420833,36.2158333 C105.095833,36.1278333 104.773833,36.4768333 104.824833,36.8508333 C104.903833,37.4298333 105.156833,37.9688333 105.372833,38.5068333 C105.449833,38.7008333 105.521833,38.9118333 105.612833,39.1068333 C105.611833,39.3058333 105.706833,39.4958333 105.942833,39.5628333 C105.952833,39.5658333 105.960833,39.5648333 105.970833,39.5678333 C106.023833,39.6078333 106.068833,39.6548333 106.131833,39.6828333 C106.286833,39.7498333 106.408833,39.7058333 106.490833,39.6108333 C106.611833,39.6188333 106.734833,39.5688333 106.838833,39.4868333 C107.050833,39.3468333 107.168833,39.0938333 107.110833,38.8318333" id="Fill-117" fill="#A78A72"></path>
                                <path d="M101.480533,44.2272333 C101.303533,44.0882333 101.084533,44.0222333 100.895533,43.9042333 C100.615533,43.7282333 100.366533,43.5022333 100.103533,43.3042333 C99.6285333,42.9482333 99.1065333,42.5552333 98.5535333,42.3352333 C97.9285333,42.0852333 97.4365333,43.0482333 97.8885333,43.4792333 C98.2425333,43.8162333 98.6295333,44.1272333 99.0345333,44.4132333 C99.3125333,44.6592333 99.6525333,44.8322333 99.9855333,45.0252333 C100.406533,45.2682333 100.784533,45.5432333 101.291533,45.4432333 C101.865533,45.3292333 101.871533,44.5342333 101.480533,44.2272333" id="Fill-119" fill="#A78A72"></path>
                                <path d="M62.0670333,41.7841333 C62.0670333,41.7841333 56.7310333,38.6491333 55.3020333,47.3031333 C53.8730333,55.9571333 57.1350333,65.7611333 60.6390333,70.8681333 C62.9750333,73.9311333 65.5090333,72.1531333 69.2360333,72.3121333 C72.9630333,72.4711333 62.0670333,41.7841333 62.0670333,41.7841333" id="Fill-121" fill="#1A1A1A"></path>
                                <path d="M95.4907333,37.9756333 L95.4907333,62.9756333 C95.4907333,62.9756333 80.6467333,71.2706333 76.7837333,72.3126333 C72.9217333,73.3536333 68.0197333,74.9816333 66.5227333,75.0196333 C65.0267333,75.0586333 65.0537333,72.9636333 64.8817333,72.2746333 C61.9537333,68.9056333 52.6007333,55.7046333 61.4787333,40.8836333 C61.4787333,40.8836333 59.6737333,39.3046333 61.9517333,37.8136333 C63.9567333,36.5006333 64.7707333,37.7356333 66.7267333,38.1896333 C68.6837333,38.6426333 68.2317333,34.8246333 77.3297333,35.4826333 C86.4277333,36.1416333 89.4907333,37.9756333 95.4907333,37.9756333" id="Fill-123" fill="#333333"></path>
                                <path d="M60.6392333,53.0824333 C60.6392333,62.3454333 68.1482333,69.8534333 77.4102333,69.8534333 C86.6732333,69.8534333 94.1822333,62.3454333 94.1822333,53.0824333 C94.1822333,43.8204333 86.6732333,36.3114333 77.4102333,36.3114333 C68.1482333,36.3114333 60.6392333,43.8204333 60.6392333,53.0824333" id="Fill-125" fill="#8B6342"></path>
                                <path d="M61.4531333,53.6293333 C61.4531333,62.1403333 68.3531333,69.0403333 76.8641333,69.0403333 C85.3741333,69.0403333 92.2741333,62.1403333 92.2741333,53.6293333 C92.2741333,45.1183333 85.3741333,38.2193333 76.8641333,38.2193333 C68.3531333,38.2193333 61.4531333,45.1183333 61.4531333,53.6293333" id="Fill-127" fill="#977558"></path>
                                <path d="M63.4988333,53.6293333 C63.4988333,61.0103333 69.4828333,66.9943333 76.8638333,66.9943333 C84.2448333,66.9943333 90.2288333,61.0103333 90.2288333,53.6293333 C90.2288333,46.2483333 84.2448333,40.2643333 76.8638333,40.2643333 C69.4828333,40.2643333 63.4988333,46.2483333 63.4988333,53.6293333" id="Fill-129" fill="#661E88"></path>
                                <path d="M70.5979333,35.7470333 C71.6149333,35.4370333 71.7859333,36.7070333 71.9629333,37.3930333 C72.1069333,37.9460333 72.3389333,38.5180333 72.3929333,39.0920333 C72.4149333,39.3340333 72.4199333,39.5910333 72.3999333,39.8350333 C72.3919333,39.9300333 72.3839333,40.5260333 72.2659333,40.3250333 C72.3199333,40.4180333 72.3069333,40.5570333 72.2509333,40.6450333 L72.2349333,40.6700333 C72.1099333,40.8690333 71.8469333,40.8720333 71.6979333,40.6990333 C71.2069333,40.1260333 71.0709333,39.2380333 70.8169333,38.5460333 C70.6959333,38.2190333 70.6359333,37.8930333 70.5629333,37.5530333 C70.5019333,37.2710333 70.5019333,36.8830333 70.3199333,36.6700333 C70.0409333,36.3450333 70.2089333,35.8650333 70.5979333,35.7470333" id="Fill-131" fill="#A78A72"></path>
                                <path d="M63.6618333,65.9763333 C63.7098333,65.3023333 64.3618333,64.8383333 64.9018333,64.5113333 C65.3448333,64.2443333 65.9658333,63.9173333 66.4908333,64.1153333 C66.6828333,64.1883333 66.8538333,64.4373333 66.8188333,64.6493333 C66.7378333,65.1443333 66.3098333,65.6593333 65.9178333,65.9523333 C65.4418333,66.3103333 64.9788333,66.8733333 64.3318333,66.8143333 C63.9288333,66.7783333 63.6338333,66.3673333 63.6618333,65.9763333" id="Fill-133" fill="#A78A72"></path>
                                <path d="M73.7415333,70.8359333 C73.7755333,70.4859333 73.8745333,70.0169333 74.0555333,69.5999333 C74.0165333,69.5999333 74.0015333,69.5379333 74.0435333,69.5319333 C74.0545333,69.5299333 74.0745333,69.5299333 74.0905333,69.5289333 C74.2665333,69.1499333 74.5085333,68.8209333 74.8375333,68.6819333 C75.1915333,68.5309333 75.5715333,68.8099333 75.5415333,69.1999333 C75.5375333,69.2689333 75.5065333,69.3229333 75.4885333,69.3839333 C75.5215333,69.6299333 75.5415333,69.8839333 75.5445333,70.1179333 C75.5475333,70.5199333 75.3735333,70.8709333 75.2465333,71.1989333 C74.9145333,72.0619333 73.6515333,71.7719333 73.7415333,70.8359333" id="Fill-135" fill="#A78A72"></path>
                                <path d="M83.7875333,67.5886333 C83.7715333,67.2406333 83.9935333,66.9796333 84.2975333,67.1116333 C84.2925333,67.1086333 84.2885333,67.1046333 84.2835333,67.1016333 C84.2985333,67.0986333 84.3135333,67.0956333 84.3285333,67.0926333 C84.5625333,67.0476333 84.7635333,67.1656333 84.8935333,67.3426333 C85.3415333,67.7396333 85.5745333,68.3556333 85.6965333,68.9336333 C85.8555333,69.6866333 84.7545333,70.1436333 84.4585333,69.3696333 C84.3165333,68.9986333 84.0865333,68.6006333 83.9345333,68.1966333 C83.7565333,67.9886333 83.7315333,67.7746333 83.7875333,67.5886333" id="Fill-137" fill="#A78A72"></path>
                                <path d="M90.0916333,60.2062333 C90.4026333,59.9812333 90.8366333,60.0882333 90.9966333,60.3982333 C91.0426333,60.4162333 91.0946333,60.4422333 91.1216333,60.4542333 C91.3116333,60.5352333 91.4956333,60.6282333 91.6876333,60.7072333 C92.0136333,60.8422333 92.3736333,60.9582333 92.6986333,61.1132333 C92.7316333,61.1222333 92.7636333,61.1362333 92.7976333,61.1452333 C92.7956333,61.1482333 92.7946333,61.1522333 92.7936333,61.1562333 C92.8416333,61.1822333 92.8976333,61.1972333 92.9426333,61.2252333 C93.5886333,61.6302333 93.0786333,62.6382333 92.4056333,62.4082333 C92.4036333,62.4162333 92.4006333,62.4242333 92.3986333,62.4322333 C91.7816333,62.2282333 91.1856333,61.9522333 90.5926333,61.6812333 C90.0756333,61.4452333 89.4116333,60.6992333 90.0916333,60.2062333" id="Fill-139" fill="#A78A72"></path>
                                <path d="M91.2374333,50.8446333 C91.3374333,50.5166333 91.5844333,50.4466333 91.8544333,50.4046333 C92.2334333,50.1866333 92.7004333,50.0766333 93.0994333,49.9676333 C93.5584333,49.8416333 94.1014333,49.6266333 94.5614333,49.8686333 C95.1684333,50.1866333 95.1794333,51.0536333 94.4894333,51.2756333 C93.8754333,51.4736333 93.2534333,51.5606333 92.6214333,51.6766333 C92.2284333,51.7486333 91.8414333,51.8676333 91.4854333,51.6166333 C91.2504333,51.4496333 91.1554333,51.1156333 91.2374333,50.8446333" id="Fill-141" fill="#A78A72"></path>
                                <path d="M87.0961333,45.9474333 C87.3851333,45.7474333 86.6731333,45.5454333 86.9611333,45.3454333 C86.9491333,45.3294333 86.9361333,45.3134333 86.9241333,45.2984333 C86.4201333,44.6664333 85.4981333,44.5644333 84.8361333,45.0274333 C82.1801333,46.8844333 80.1911333,48.9004333 77.4951333,50.9404333 C75.7281333,52.2784333 73.8941333,53.5034333 72.0661333,54.7554333 C70.7481333,55.6574333 68.9411333,57.4484333 67.2911333,58.0084333 C67.2581333,57.9794333 67.2161333,57.9604333 67.1631333,57.9754333 C66.8961333,58.0494333 66.8821333,58.0504333 66.6561333,58.2004333 C66.4101333,58.3634333 66.3651333,58.7934333 66.5581333,58.9964333 C66.3571333,59.4114333 66.2981333,59.8434333 66.5821333,60.2934333 C66.7821333,60.6074333 67.1371333,60.7984333 67.4971333,60.5884333 C71.5081333,58.2504333 75.0621333,54.9564333 78.8481333,52.2664333 C81.6481333,50.2764333 84.3201333,48.0104333 87.0961333,45.9474333" id="Fill-143" fill="#654E7E"></path>
                                <path d="M87.6626333,52.1380333 C86.7326333,52.2750333 85.8386333,53.1660333 85.0346333,53.6540333 C83.5946333,54.5260333 82.1906333,55.4640333 80.8166333,56.4370333 C78.1396333,58.3320333 75.6586333,60.5890333 72.8756333,62.3230333 C72.5776333,62.5090333 72.7246333,63.1520333 73.1096333,62.9950333 C75.7606333,61.9180333 78.1026333,59.2400333 80.3446333,57.5290333 C81.6876333,56.5030333 83.0586333,55.5080333 84.4706333,54.5780333 C85.4026333,53.9640333 86.6276333,52.7420333 87.7366333,52.4800333 C87.9416333,52.4310333 87.8726333,52.1070333 87.6626333,52.1380333" id="Fill-145" fill="#654E7E"></path>
                                <path d="M84.5522333,57.8451333 C84.5262333,57.7711333 84.4882333,57.7051333 84.4402333,57.6471333 C84.4512333,57.6321333 84.4652333,57.6181333 84.4762333,57.6041333 C84.5992333,57.4451333 84.4282333,57.1881333 84.2562333,57.3471333 C84.2032333,57.3971333 84.1462333,57.4391333 84.0922333,57.4881333 C84.0282333,57.4951333 83.9632333,57.5151333 83.8962333,57.5651333 C82.9872333,58.2451333 82.0292333,58.8581333 81.1232333,59.5431333 C80.8322333,59.7621333 80.5542333,59.9991333 80.2712333,60.2261333 C80.2402333,60.2361333 80.2102333,60.2391333 80.1762333,60.2581333 C79.6802333,60.5341333 79.1892333,60.8191333 78.7022333,61.1131333 C78.5422333,61.2101333 78.4682333,61.3751333 78.4552333,61.5461333 C78.1852333,61.8651333 78.5332333,62.4221333 78.9342333,62.2031333 C78.9362333,62.2071333 78.9382333,62.2121333 78.9412333,62.2171333 C78.9892333,62.1861333 79.0382333,62.1531333 79.0862333,62.1211333 C79.3082333,62.0611333 79.5152333,61.9781333 79.7112333,61.8801333 C79.8032333,62.0931333 80.0092333,62.2321333 80.2562333,62.0631333 C81.1482333,61.4541333 81.8962333,60.5951333 82.7582333,59.9271333 C83.3722333,59.4501333 84.0492333,59.0281333 84.4802333,58.3681333 C84.5532333,58.2961333 84.6322333,58.2311333 84.7032333,58.1581333 C84.8352333,58.0231333 84.6992333,57.8141333 84.5522333,57.8451333" id="Fill-147" fill="#654E7E"></path>
                                <path d="M61.5859333,44.1880333 C61.7379333,44.0850333 61.9349333,44.0660333 62.1219333,44.2100333 C62.3259333,44.3680333 62.5339333,44.5320333 62.7439333,44.6940333 C62.8069333,44.7330333 62.8689333,44.7750333 62.9339333,44.8120333 C63.0919333,44.9030333 63.2909333,45.0840333 63.4789333,45.0680333 C63.7869333,45.0420333 63.9839333,45.2580333 64.0199333,45.5020333 C64.0939333,45.5610333 64.1679333,45.6200333 64.2379333,45.6900333 C64.5679333,46.0200333 64.2009333,46.7150333 63.7359333,46.5080333 C63.6929333,46.4890333 63.6529333,46.4640333 63.6109333,46.4440333 C63.1819333,46.4140333 62.8139333,46.1690333 62.4699333,45.9300333 C62.0679333,45.6510333 61.6429333,45.3480333 61.2809333,45.0210333 C60.9579333,44.7280333 61.1089333,44.0860333 61.5859333,44.1880333" id="Fill-149" fill="#A78A72"></path>
                                <path d="M80.9541333,38.2569333 C80.9731333,37.9419333 81.0611333,37.6539333 81.1571333,37.3629333 C81.2181333,36.8329333 81.2941333,36.2989333 81.4741333,35.8289333 C81.5811333,35.5509333 81.8231333,35.4209333 82.0611333,35.4229333 C82.1021333,35.3869333 82.1521333,35.3799333 82.2111333,35.4069333 C82.5181333,35.2689333 82.8911333,35.5629333 82.8991333,35.9409333 C82.9121333,36.5249333 82.7481333,37.0969333 82.6191333,37.6619333 C82.5731333,37.8659333 82.5361333,38.0859333 82.4771333,38.2929333 C82.5091333,38.4889333 82.4451333,38.6909333 82.2221333,38.7949333 C82.2131333,38.7989333 82.2051333,38.7999333 82.1951333,38.8039333 C82.1501333,38.8519333 82.1131333,38.9059333 82.0541333,38.9429333 C81.9121333,39.0339333 81.7851333,39.0089333 81.6891333,38.9289333 C81.5711333,38.9549333 81.4411333,38.9249333 81.3261333,38.8609333 C81.0941333,38.7569333 80.9381333,38.5249333 80.9541333,38.2569333" id="Fill-151" fill="#A78A72"></path>
                                <path d="M87.3640333,42.6982333 C87.5170333,42.5332333 87.7220333,42.4332333 87.8910333,42.2862333 C88.1400333,42.0692333 88.3500333,41.8062333 88.5790333,41.5692333 C88.9910333,41.1442333 89.4450333,40.6732333 89.9560333,40.3682333 C90.5350333,40.0232333 91.1720333,40.8962333 90.7930333,41.3942333 C90.4970333,41.7822333 90.1640333,42.1502333 89.8090333,42.4972333 C89.5730333,42.7832333 89.2650333,43.0072333 88.9660333,43.2512333 C88.5890333,43.5572333 88.2590333,43.8882333 87.7430333,43.8692333 C87.1580333,43.8472333 87.0260333,43.0632333 87.3640333,42.6982333" id="Fill-153" fill="#A78A72"></path>
                                <path d="M141.310133,58.1688333 C141.238133,57.7778333 141.206133,57.3468333 140.973133,57.0148333 C140.920133,56.9398333 140.823133,57.0348333 140.856133,57.1058333 C141.048133,57.5088333 141.025133,58.1048333 141.087133,58.5488333 C141.154133,59.0328333 141.158133,59.5288333 141.260133,60.0058333 C141.306133,60.2248333 141.579133,60.1268333 141.560133,59.9268333 C141.507133,59.3328333 141.418133,58.7558333 141.310133,58.1688333" id="Fill-155" fill="#989898"></path>
                                <path d="M142.048833,58.2916333 C142.003833,57.9796333 141.941833,57.5016333 141.694833,57.2726333 C141.596833,57.1826333 141.462833,57.3266333 141.551833,57.4176333 C141.819833,57.6886333 141.818833,58.3466333 141.837833,58.6826333 C141.860833,59.0866333 141.861833,59.4916333 141.852833,59.8966333 C141.846833,60.1116333 142.164833,60.1216333 142.160833,59.9076333 C142.150833,59.3696333 142.125833,58.8256333 142.048833,58.2916333" id="Fill-157" fill="#989898"></path>
                                <path d="M142.405833,57.4143333 C142.346833,57.3373333 142.229833,57.4373333 142.277833,57.5143333 C142.759833,58.2753333 142.586833,59.2643333 142.687833,60.1183333 C142.712833,60.3303333 143.047833,60.2903333 143.034833,60.0793333 C142.983833,59.2173333 142.947833,58.1293333 142.405833,57.4143333" id="Fill-159" fill="#989898"></path>
                                <path d="M143.347233,57.3050333 C143.271233,57.1550333 143.073233,57.2860333 143.138233,57.4280333 C143.525233,58.2700333 143.260233,59.3430333 143.401233,60.2370333 C143.428233,60.4100333 143.688233,60.3780333 143.684233,60.2060333 C143.667233,59.3180333 143.759233,58.1180333 143.347233,57.3050333" id="Fill-161" fill="#989898"></path>
                                <path d="M140.818433,58.3308333 C140.800433,58.1248333 140.512433,58.0998333 140.509433,58.3198333 C140.506433,58.6798333 140.476433,59.0278333 140.423433,59.3838333 C140.385433,59.6508333 140.797433,59.6738333 140.819433,59.3978333 C140.847433,59.0368333 140.849433,58.6918333 140.818433,58.3308333" id="Fill-163" fill="#989898"></path>
                                <path d="M98.9385333,52.8821333 C98.7885333,52.5741333 98.5335333,52.5441333 98.2595333,52.5451333 C97.8515333,52.3891333 97.3725333,52.3541333 96.9615333,52.3091333 C96.4885333,52.2571333 95.9175333,52.1311333 95.5025333,52.4411333 C94.9535333,52.8521333 95.0795333,53.7091333 95.7945333,53.8201333 C96.4325333,53.9181333 97.0605333,53.9061333 97.7025333,53.9211333 C98.1025333,53.9301333 98.5035333,53.9871333 98.8145333,53.6831333 C99.0215333,53.4821333 99.0625333,53.1371333 98.9385333,52.8821333" id="Fill-165" fill="#A78A72"></path>
                                <path d="M85.1125333,53.6293333 C85.1125333,58.1853333 81.4195333,61.8783333 76.8635333,61.8783333 C72.3075333,61.8783333 68.6145333,58.1853333 68.6145333,53.6293333 C68.6145333,49.0733333 72.3075333,45.3803333 76.8635333,45.3803333 C81.4195333,45.3803333 85.1125333,49.0733333 85.1125333,53.6293333 L85.1125333,53.6293333 Z" id="Stroke-167" stroke="#A78A72" stroke-width="1.5"></path>
                                <path d="M85.1125333,53.6293333 C85.1125333,58.1853333 81.4195333,61.8783333 76.8635333,61.8783333 C72.3075333,61.8783333 68.6145333,58.1853333 68.6145333,53.6293333 C68.6145333,49.0733333 72.3075333,45.3803333 76.8635333,45.3803333 C81.4195333,45.3803333 85.1125333,49.0733333 85.1125333,53.6293333" id="Fill-169" fill="#FFFFFF"></path>
                                <path d="M75.2642333,62.2606333 C75.2642333,65.5406333 72.6052333,68.2006333 69.3242333,68.2006333 C66.0442333,68.2006333 63.3852333,65.5406333 63.3852333,62.2606333 C63.3852333,58.9806333 66.0442333,56.3206333 69.3242333,56.3206333 C72.6052333,56.3206333 75.2642333,58.9806333 75.2642333,62.2606333 L75.2642333,62.2606333 Z" id="Stroke-171" stroke="#A78A72" stroke-width="1.5"></path>
                                <path d="M75.2642333,62.2606333 C75.2642333,65.5406333 72.6052333,68.2006333 69.3242333,68.2006333 C66.0442333,68.2006333 63.3852333,65.5406333 63.3852333,62.2606333 C63.3852333,58.9806333 66.0442333,56.3206333 69.3242333,56.3206333 C72.6052333,56.3206333 75.2642333,58.9806333 75.2642333,62.2606333" id="Fill-173" fill="#FFFFFF"></path>
                                <path d="M64.0717333,59.4919333 L58.4337333,54.1979333 L61.7537333,42.8539333 C61.9037333,42.3429333 62.5197333,42.1429333 62.9377333,42.4739333 C65.0157333,44.1219333 70.1017333,48.1669333 70.1817333,48.3429333" id="Stroke-175" stroke="#C0B17C" stroke-width="1.5"></path>
                                <line x1="60.6392333" y1="53.8966333" x2="50.6372333" y2="63.4976333" id="Stroke-177" stroke="#C0B17C" stroke-width="1.5"></line>
                                <path d="M61.2686333,49.5488333 C60.7886333,49.2168333 59.5836333,49.2848333 58.7826333,49.6778333 C58.9726333,49.4208333 59.1626333,49.1628333 59.3516333,48.9058333 C59.4316333,48.8498333 60.5626333,48.6598333 60.7336333,48.9228333 C60.7876333,49.0058333 60.9256333,48.9608333 60.8936333,48.8558333 C60.5566333,47.7478333 57.8696333,48.5148333 58.1006333,49.6858333 C58.1246333,49.8088333 58.1986333,49.9148333 58.3026333,50.0058333 C58.1236333,50.1818333 58.0116333,50.3878333 58.0126333,50.6268333 C58.0126333,50.6958333 58.0236333,50.7578333 58.0376333,50.8168333 C57.6346333,51.0208333 57.3856333,51.3208333 57.4706333,51.7448333 C57.5046333,51.9188333 57.5996333,52.0598333 57.7186333,52.1848333 C57.5476333,52.2758333 57.4136333,52.3698333 57.3456333,52.4568333 C57.0366333,52.8588333 57.1576333,53.2128333 57.4906333,53.4818333 C56.7806333,54.4878333 58.2646333,54.7218333 58.9326333,54.5748333 C59.2636333,54.5018333 59.1466333,53.9888333 58.8136333,54.0278333 C58.3546333,54.1758333 58.1976333,54.1128333 58.2986333,53.8698333 C59.1016333,54.0998333 60.0966333,54.0618333 60.4536333,53.6018333 C60.5366333,53.4948333 60.5766333,53.3248333 60.4666333,53.2148333 C60.0016333,52.7488333 58.8526333,52.7188333 58.0896333,53.0378333 C58.0266333,52.9378333 58.0226333,52.8088333 58.1276333,52.6328333 C58.1476333,52.5988333 58.2086333,52.5658333 58.2886333,52.5338333 C59.1286333,52.8458333 60.3616333,52.7338333 60.8476333,52.3538333 C60.9206333,52.2968333 60.9376333,52.1758333 60.9206333,52.0918333 C60.7856333,51.4058333 59.3416333,51.5748333 58.3166333,51.9288333 C58.2396333,51.8878333 58.1756333,51.8428333 58.1466333,51.7898333 C58.0346333,51.5828333 58.1606333,51.4198333 58.4056333,51.2958333 C59.1436333,51.7268333 60.7046333,51.4268333 61.1766333,51.0188333 C61.2756333,50.9338333 61.2696333,50.7138333 61.1456333,50.6498333 C60.7636333,50.4518333 59.6256333,50.3858333 58.7126333,50.5888333 C58.7166333,50.5068333 58.7656333,50.4078333 58.8726333,50.2888333 C59.7586333,50.5438333 61.1126333,50.4028333 61.3396333,49.8938333 C61.3926333,49.7748333 61.3866333,49.6308333 61.2686333,49.5488333" id="Fill-179" fill="#C0B17C"></path>
                                <path d="M58.1787333,58.0285333 C57.5637333,57.5835333 57.0547333,57.0255333 56.5197333,56.4895333 C56.3407333,56.3105333 56.0907333,56.5855333 56.2507333,56.7625333 C56.7657333,57.3285333 57.2697333,58.0475333 57.9357333,58.4455333 C58.2017333,58.6045333 58.4127333,58.1985333 58.1787333,58.0285333" id="Fill-181" fill="#C0B17C"></path>
                                <path d="M58.4478333,57.5861333 C57.9478333,57.1461333 57.5078333,56.7051333 57.0878333,56.1881333 C56.9548333,56.0251333 56.7418333,56.2621333 56.8658333,56.4121333 C57.2928333,56.9291333 57.7268333,57.4431333 58.1798333,57.9361333 C58.3998333,58.1751333 58.7038333,57.7601333 58.4478333,57.5861333" id="Fill-183" fill="#C0B17C"></path>
                                <path d="M59.6436333,56.3833333 C59.2416333,55.9133333 58.7636333,55.4683333 58.3106333,55.0473333 C58.1866333,54.9323333 58.0276333,55.1063333 58.1306333,55.2283333 C58.2936333,55.4223333 58.4446333,55.6243333 58.5956333,55.8253333 C58.4456333,55.6683333 58.2966333,55.5103333 58.1476333,55.3513333 C57.9996333,55.1953333 57.8156333,55.4213333 57.9266333,55.5763333 C58.2546333,56.0373333 58.5776333,56.4973333 58.9486333,56.9233333 C58.9166333,56.9113333 58.8826333,56.9063333 58.8486333,56.9083333 C58.3266333,56.6213333 57.8736333,56.0583333 57.4976333,55.6353333 C57.3806333,55.5043333 57.2066333,55.6993333 57.3126333,55.8223333 C57.4456333,55.9773333 57.5816333,56.1303333 57.7146333,56.2853333 C57.5876333,56.1813333 57.4566333,56.0813333 57.3336333,55.9733333 C57.2106333,55.8673333 57.0626333,56.0883333 57.1646333,56.1953333 C57.6716333,56.7253333 58.2146333,57.2293333 58.6976333,57.7823333 C58.9136333,58.0613333 59.3106333,57.6303333 59.0686333,57.4063333 C59.0646333,57.4023333 59.0596333,57.3983333 59.0556333,57.3943333 C59.1216333,57.3143333 59.1506333,57.1963333 59.1036333,57.1073333 C59.3406333,57.3453333 59.6396333,57.0593333 59.5676333,56.7943333 C59.6896333,56.7133333 59.7646333,56.5253333 59.6436333,56.3833333" id="Fill-185" fill="#C0B17C"></path>
                                <path d="M61.4346333,56.0571333 C61.5346333,55.8611333 61.3186333,55.6151333 61.1116333,55.7821333 C61.0716333,55.8151333 61.0306333,55.8531333 60.9896333,55.8871333 C61.0646333,55.8071333 61.1326333,55.7201333 61.2086333,55.6411333 C61.3856333,55.4571333 61.1346333,55.1321333 60.9406333,55.3271333 C60.4726333,55.7991333 59.8016333,56.3671333 59.5736333,57.0131333 C59.5356333,57.1221333 59.5826333,57.2711333 59.6816333,57.3341333 C59.7026333,57.3471333 59.7236333,57.3611333 59.7446333,57.3741333 C59.8166333,57.4211333 59.8846333,57.4131333 59.9446333,57.3881333 C59.9656333,57.5971333 60.1806333,57.6981333 60.3386333,57.5981333 C60.4566333,57.8351333 60.7706333,57.7011333 60.7886333,57.4701333 C60.7796333,57.5871333 60.8166333,57.4481333 60.8576333,57.3911333 C60.9446333,57.2681333 61.0216333,57.1351333 61.1066333,57.0111333 C61.2626333,56.7821333 61.4166333,56.5651333 61.6296333,56.3871333 C61.7846333,56.2581333 61.6176333,55.9651333 61.4346333,56.0571333" id="Fill-187" fill="#A9944B"></path>
                                <path d="M62.2534333,57.2707333 C62.2374333,57.2857333 62.2214333,57.3047333 62.2054333,57.3207333 C62.2164333,57.1487333 62.0374333,56.9827333 61.8734333,57.1367333 C61.7944333,57.2117333 61.6784333,57.3177333 61.5634333,57.4387333 C61.6784333,57.2457333 61.8234333,57.0667333 61.9674333,56.8927333 C62.1544333,56.6667333 61.8804333,56.2837333 61.6494333,56.5227333 C61.2374333,56.9487333 60.8034333,57.3967333 60.8014333,58.0237333 C60.8014333,58.2667333 61.0024333,58.3417333 61.1624333,58.2797333 C61.1844333,58.3577333 61.2224333,58.4317333 61.3054333,58.4967333 C61.3804333,58.5557333 61.4484333,58.5397333 61.5054333,58.5027333 C61.5024333,58.5337333 61.4884333,58.5637333 61.4874333,58.5967333 C61.4864333,58.8627333 61.8244333,58.9277333 61.9164333,58.6747333 C62.0614333,58.2747333 62.2614333,57.9297333 62.5464333,57.6127333 C62.7314333,57.4077333 62.4694333,57.0577333 62.2534333,57.2707333" id="Fill-189" fill="#A9944B"></path>
                                <path d="M62.1133333,42.1857333 C62.0823333,42.2047333 62.0663333,42.2387333 62.0563333,42.2747333 C62.0213333,42.3177333 61.9993333,42.3727333 62.0103333,42.4427333 C62.0333333,42.5777333 62.0603333,42.6347333 62.1793333,42.7007333 C62.2573333,42.7437333 62.3223333,42.7317333 62.3893333,42.6787333 C62.6313333,42.4877333 62.4083333,41.9997333 62.1133333,42.1857333" id="Fill-191" fill="#A9944B"></path>
                                <path d="M61.4600333,41.9069333 C61.4620333,41.9009333 61.4650333,41.8959333 61.4680333,41.8909333 C61.5120333,41.9349333 61.5780333,41.9489333 61.6320333,41.8849333 C62.1020333,41.3259333 62.7760333,42.0739333 62.7610333,42.5929333 C62.7330333,43.5039333 61.5040333,42.9659333 61.7290333,42.4549333 C61.8230333,42.2419333 61.6590333,41.9219333 61.4600333,41.9069333 M63.0230333,41.1739333 C62.2930333,40.7189333 61.1450333,40.6889333 60.9930333,41.7139333 C60.9840333,41.7719333 61.0020333,41.8189333 61.0320333,41.8559333 C60.8660333,42.2939333 60.9310333,42.8879333 61.1540333,43.2289333 C61.6420333,43.9729333 62.7990333,44.1189333 63.4090333,43.4479333 C64.0030333,42.7939333 63.7450333,41.6229333 63.0230333,41.1739333" id="Fill-193" fill="#A9944B"></path>
                                <path d="M70.3032333,47.4635333 C70.2132333,47.6245333 70.0772333,47.7685333 69.9302333,47.9065333 C69.9652333,47.8595333 70.0022333,47.8135333 70.0372333,47.7665333 C70.1452333,47.6225333 69.9272333,47.4055333 69.7962333,47.5495333 C69.5962333,47.7695333 69.3952333,47.9845333 69.2192333,48.2215333 C69.1492333,48.3155333 69.2032333,48.4305333 69.2872333,48.4895333 C69.0722333,48.7205333 69.4222333,49.1185333 69.6182333,48.8655333 C69.9292333,48.4645333 70.3852333,48.0775333 70.5812333,47.6025333 C70.6502333,47.4345333 70.3962333,47.2965333 70.3032333,47.4635333" id="Fill-195" fill="#A9944B"></path>
                                <path d="M69.6069333,46.9108333 C69.4059333,47.2338333 68.9579333,47.4118333 68.6819333,47.6708333 C68.4929333,47.8478333 68.7119333,48.2538333 68.9549333,48.0848333 C69.2869333,47.8548333 69.8459333,47.4428333 69.8989333,47.0078333 C69.9189333,46.8378333 69.6919333,46.7738333 69.6069333,46.9108333" id="Fill-197" fill="#A9944B"></path>
                            </g>
                        </g>
                    </g>
                </g>
            </g>
        </g>
    </g>
</svg>