<?xml version="1.0" encoding="UTF-8"?>
<svg width="118px" height="111px" viewBox="0 0 118 111" version="1.1" xmlns="http://www.w3.org/2000/svg" xmlns:xlink="http://www.w3.org/1999/xlink">
    <title>68C4D5C1-C86A-4501-BE5A-A1E7588FDA00</title>
    <defs>
        <rect id="path-1" x="0" y="0" width="118" height="111" rx="4"></rect>
        <polygon id="path-3" points="0.103977413 0.0443021148 27.5706027 0.0443021148 27.5706027 24.1743289 0.103977413 24.1743289"></polygon>
    </defs>
    <g id="Dashboard" stroke="none" stroke-width="1" fill="none" fill-rule="evenodd">
        <g id="Dashboard-Pro---Uninstall-SNapshot-3.X" transform="translate(-220.000000, -162.000000)">
            <g id="Notification" transform="translate(190.000000, 132.000000)">
                <g id="Graphic" transform="translate(30.000000, 30.000000)">
                    <mask id="mask-2" fill="white">
                        <use xlink:href="#path-1"></use>
                    </mask>
                    <g id="Mask" opacity="0.416782924"></g>
                    <g id="graphic" mask="url(#mask-2)">
                        <g transform="translate(-27.000000, 9.000000)">
                            <path d="M58.46976,62.1207236 C58.46976,62.1207236 54.2116267,61.5205151 51.6695467,62.1207236 C49.79392,62.5637447 35.93152,66.0286813 38.60032,79.7316662 C41.2686933,93.4346511 52.9230933,96.8787145 58.46976,95.1564698 L58.46976,62.1207236 Z" id="Fill-5" stroke="none" fill="#8C704F" fill-rule="evenodd"></path>
                            <path d="M57.222272,93.3418296 C57.222272,93.3418296 52.0928853,103.892549 47.686272,110.352564 C43.2800853,116.812579 38.397312,115.845174 36.9684053,120.838534 C33.032832,118.174443 28.5357653,114.167657 28.3501653,101.444857 C28.164992,88.7224822 36.757632,79.843742 42.786432,76.3310955 C48.8148053,72.818023 57.222272,93.3418296 57.222272,93.3418296" id="Fill-7" stroke="none" fill="#8C704F" fill-rule="evenodd"></path>
                            <path d="M30.5964373,125.824183 C28.6824107,119.93115 29.845504,113.981887 30.2734507,112.559959 C30.6757973,111.224506 29.9432107,109.206204 29.9180373,107.767663 C29.8523307,103.917639 30.3681707,100.153663 31.080704,96.3692402 C31.7416107,92.8578716 34.1403307,89.3350015 36.0731307,86.3757054 C36.9332907,85.0585695 38.302464,84.059642 39.309824,82.8494275 C40.478464,81.4458172 40.591104,79.8658505 41.2212907,78.2535091 C42.2171307,75.7057115 44.806144,73.6605725 47.1890773,75.6793006 C48.2548907,76.5828082 48.993024,78.8792764 50.4965973,78.9542492 C51.3580373,78.9968474 52.7156907,78.2505272 53.542144,77.9936601 C54.6126507,77.6609683 55.5743573,77.4177326 56.6687573,77.1808867 C57.320704,77.0394607 58.0430507,76.891219 58.4697173,76.7617205 L58.4697173,95.1564698 C58.0430507,95.3920378 56.9512107,95.526648 56.0018773,95.5560408 C54.2542507,99.0001042 50.785024,105.72508 47.6289707,110.352521 C45.896704,112.892225 44.120064,114.28263 42.4795307,115.339917 C43.2709973,117.555449 44.4703573,121.989068 43.8606507,127.505533 C42.9945173,135.349137 33.045504,142.75824 31.0465707,151.452104 C29.1564373,150.765847 29.586944,151.610144 27.5137707,151.452104 C25.0079573,151.261264 33.6091307,138.596397 30.5964373,125.824183" id="Fill-11" stroke="none" fill="#3F225E" fill-rule="evenodd"></path>
                            <path d="M111.607296,142.878836 C111.607296,142.878836 110.632789,125.068108 111.044096,122.985056 C111.454976,120.902005 115.111936,108.584313 118.547029,104.615866 C121.982123,100.647419 136.298923,79.2729263 133.659563,67.787603 C131.019776,56.3022798 112.030123,59.7961831 106.387029,56.3299686 C100.743083,52.8633281 94.6170027,45.6544369 89.3540693,47.5696514 C84.091136,49.4848659 70.671616,57.8443341 70.671616,57.8443341 C70.671616,57.8443341 48.822016,62.7942435 46.827776,67.0029444 C44.8331093,71.2116453 51.529216,95.0355335 54.971136,99.3089837 L58.4126293,103.582008 C58.4126293,103.582008 59.0987093,109.237769 63.6320427,111.553407 C62.7130027,116.061147 62.4928427,116.411304 65.134336,132.987537 C70.274816,139.228597 80.832256,157.671482 80.832256,157.671482 L111.607296,142.878836 Z" id="Fill-13" stroke="none" fill="#977558" fill-rule="evenodd"></path>
                            <path d="M54.971008,99.3088985 C54.9705813,99.3080465 54.969728,99.3071946 54.9688747,99.3063426 C54.8822613,99.1981432 54.7926613,99.0741825 54.7013547,98.9417021 C54.6889813,98.9233849 54.676608,98.9059196 54.6633813,98.8867505 C54.5759147,98.757252 54.4867413,98.614974 54.3958613,98.4646024 C54.3787947,98.4360616 54.3621547,98.4079468 54.345088,98.3789801 C54.254208,98.2260526 54.1624747,98.0633275 54.0694613,97.8903789 C54.053248,97.8609861 54.0370347,97.8298894 54.0208213,97.7996447 C53.9243947,97.6186024 53.826688,97.4294665 53.7277013,97.229255 C53.7187413,97.2117897 53.710208,97.1934725 53.701248,97.1760073 C53.601408,96.9723879 53.500288,96.759823 53.397888,96.5383124 C53.3906347,96.5216991 53.382528,96.5059378 53.3752747,96.4888985 C53.2715947,96.2631281 53.1666347,96.0267082 53.0608213,95.7834725 C53.0463147,95.7502459 53.0322347,95.7178713 53.017728,95.6842187 C52.914048,95.443539 52.8095147,95.1943396 52.704128,94.9383245 C52.6891947,94.902116 52.6742613,94.8659076 52.6597547,94.8296991 C52.551808,94.5655903 52.4438613,94.2955178 52.3350613,94.0169257 C52.327808,93.9973305 52.3197013,93.9768834 52.312448,93.9572882 C52.0811947,93.3634695 51.8486613,92.739406 51.616128,92.0897837 C51.6118613,92.0778562 51.6075947,92.0667807 51.603328,92.0548532 C51.4889813,91.7340888 51.374208,91.4065088 51.260288,91.0742429 C51.252608,91.0516659 51.244928,91.0290888 51.2368213,91.0065118 C51.1224747,90.673394 51.0085547,90.3351644 50.8946347,89.991823 L50.8822613,89.9530586 C50.5289813,88.8838441 50.1803947,87.7707535 49.8437547,86.6355118 C49.8424747,86.630826 49.8411947,86.6265662 49.8399147,86.6218804 C49.728128,86.2457384 49.618048,85.8670405 49.509248,85.4870647 C48.7416747,82.8021009 48.0504747,80.0374785 47.521408,77.4726417 C47.9203413,77.7972399 48.316288,78.1252459 48.7275947,78.4443063 C52.124288,81.0777263 57.2656213,78.6355722 60.907648,77.6511281 C62.7691947,77.1480435 64.6840747,76.7463426 66.6194347,76.7203577 C67.372928,76.7105601 68.2019413,76.7105601 68.9375147,76.8928804 C69.6829013,77.0777565 70.3173547,77.3917051 71.115648,77.4257837 C72.8278613,77.4986266 74.492288,76.8413366 76.0850347,76.3011915 C81.883008,74.3352852 88.053888,73.6447686 94.177408,73.6296055 C99.065728,73.6179317 103.942101,74.0281523 108.801835,74.5218653 C113.324501,74.9806477 117.866368,75.4896961 122.087808,77.2958592 C124.859861,78.4822187 127.407915,79.6102187 129.865088,81.3921009 C130.361301,81.7516296 130.708181,82.1213819 131.182635,82.5000798 C129.640235,86.4527656 127.589675,90.4212127 125.456341,93.9117082 L125.456341,93.9117082 C125.029675,94.7168139 124.663168,95.4963607 124.205781,96.2443849 C124.204928,96.2456628 124.272341,96.2473668 124.271061,96.2486447 C124.122581,96.4918804 124.008661,96.7312822 123.861461,96.9677021 C123.855915,96.9766477 123.867435,96.9855934 123.861461,96.994539 C123.420288,97.7037988 122.996181,98.380684 122.577621,99.0200828 C122.560981,99.0452157 122.549035,99.0703486 122.532395,99.0959076 C122.403115,99.2931372 122.276821,99.4873849 122.150101,99.6773728 C122.144128,99.6871704 122.138581,99.696968 122.132181,99.7063396 C121.865515,100.106763 121.606528,100.489294 121.355221,100.854361 C121.332181,100.888013 121.309568,100.92124 121.286955,100.954466 C121.185835,101.100578 121.086421,101.243708 120.988715,101.383856 C120.964821,101.417509 120.941355,101.452013 120.917461,101.48524 C120.684501,101.817932 120.459648,102.132306 120.245461,102.427086 C120.221995,102.459886 120.198528,102.491835 120.174635,102.52421 C120.093995,102.634965 120.014208,102.743164 119.936981,102.848382 C119.907541,102.887146 119.878955,102.925911 119.850795,102.964249 C119.773141,103.068189 119.697621,103.169146 119.623381,103.266696 C119.603328,103.293533 119.582421,103.321222 119.562368,103.347633 C119.471061,103.468185 119.382315,103.583627 119.296981,103.69353 C119.277781,103.718237 119.259861,103.740814 119.240661,103.765095 C119.174955,103.849439 119.110528,103.930802 119.049088,104.008331 C119.022635,104.041131 118.997461,104.072654 118.971861,104.104176 C118.917675,104.171482 118.865621,104.235379 118.815275,104.29672 C118.791808,104.324835 118.767915,104.353802 118.745728,104.380639 C118.677888,104.462001 118.613035,104.539104 118.552448,104.609391 C118.550741,104.611521 118.548608,104.614077 118.546901,104.615781 C116.507435,106.971886 114.389461,112.271953 112.919168,116.625062 C112.841941,116.85424 112.766421,117.080436 112.692608,117.304077 C111.808555,119.983503 111.197568,122.204146 111.043968,122.985397 C110.966741,123.376022 110.938581,124.319146 110.943275,125.594536 C110.947115,126.657361 110.974421,127.950642 111.015381,129.346584 C111.187755,135.208521 111.607168,142.87875 111.607168,142.87875 L80.832128,157.671397 C80.832128,157.671397 80.3269547,156.789189 79.4838613,155.344684 C79.3635413,155.138509 79.235968,154.920406 79.1024213,154.69208 C78.9014613,154.34959 78.6864213,153.983672 78.4585813,153.59688 C75.0409813,147.796285 68.7485013,137.375491 65.134208,132.987877 C63.1531947,120.555596 62.7819947,117.250403 63.1075413,114.473427 C63.1480747,114.126252 63.1997013,113.78717 63.2607147,113.439569 C63.3618347,112.86066 63.488128,112.257895 63.6319147,111.553747 C61.7899947,110.612753 60.5833813,109.120965 59.7995947,107.68072 C59.6191147,107.348454 59.4603947,107.018744 59.3221547,106.699684 C58.584448,104.996182 58.4125013,103.581923 58.4125013,103.581923 L54.971008,99.3088985 Z" id="Fill-15" stroke="none" fill="#661F88" fill-rule="evenodd"></path>
                            <path d="M76.5652053,54.0955233 C77.270912,52.9210912 78.882432,52.386058 80.1863253,52.3558133 C82.1980587,52.3093813 83.7929387,51.9528344 85.8050987,51.964336 C89.0242987,51.9826532 92.243072,52.0009704 95.462272,52.0192876 C97.9668053,52.033771 100.043819,52.128339 101.949312,54.030774 C103.173845,55.8058405 102.141739,57.7772846 100.677845,58.5342544 C95.7549653,61.0794961 81.1719253,62.6828918 76.6006187,65.8790338 C76.0647253,66.2538979 75.197312,66.0920248 75.135872,65.5173752 C74.745472,61.8539311 74.5180587,60.8716169 74.6447787,59.0092242 C74.7949653,56.7953964 75.416192,56.0081819 76.5652053,54.0955233" id="Fill-23" stroke="none" fill="#3C3F48" fill-rule="evenodd"></path>
                            <g id="Group-118" stroke="none" stroke-width="1" fill="none" fill-rule="evenodd" transform="translate(63.146667, 71.520653)">
                                <polygon id="Fill-44" fill="#9E7758" points="1.37809067 9.09181631 1.732224 8.99852628 1.87515733 17.7579915 1.52145067 17.8580973"></polygon>
                                <polygon id="Fill-46" fill="#805F46" points="4.93602133 17.3737133 5.28759467 17.2740335 3.09367467 21.4537677 2.74039467 21.5564293"></polygon>
                                <polygon id="Fill-48" fill="#A27B5B" points="2.740608 21.5565997 3.09346133 21.4535121 10.1040213 26.1052341 9.75543467 26.2121556"></polygon>
                                <polygon id="Fill-50" fill="#651F87" points="4.93602133 17.3737133 5.28759467 17.2740335 10.103808 26.1054897 9.755648 26.2124112"></polygon>
                                <polygon id="Fill-52" fill="#43125A" points="1.37809067 9.09181631 1.732224 8.99852628 6.38161067 9.16593716 6.03003733 9.25922719"></polygon>
                                <polygon id="Fill-54" fill="#4A1465" points="6.030208 9.25926979 6.38135467 9.16597976 1.875328 17.7580341 1.52162133 17.8581399"></polygon>
                                <polygon id="Fill-56" fill="#AA805F" points="6.43729067 14.5245335 6.78801067 14.4269837 9.574144 19.5298205 9.22513067 19.6312042"></polygon>
                                <polygon id="Fill-58" fill="#AA805F" points="10.8576853 22.6240251 11.204992 22.5196595 13.651072 27.0031187 13.3046187 27.1113181"></polygon>
                                <polygon id="Fill-60" fill="#805F46" points="9.143936 9.37138822 9.49294933 9.27767221 6.78830933 14.4269411 6.43716267 14.5244909"></polygon>
                                <polygon id="Fill-62" fill="#765741" points="9.225216 19.631332 9.57380267 19.5295224 15.1174827 19.7552927 14.7723093 19.8575284"></polygon>
                                <polygon id="Fill-64" fill="#331A4D" points="14.7822933 19.823535 15.1274667 19.7212994 15.1172267 19.754952 14.77248 19.8576136"></polygon>
                                <polygon id="Fill-66" fill="#57402F" points="10.5943467 2.07372236 10.9425067 1.98554411 4.00746667 6.15249879 3.65418667 6.24365891"></polygon>
                                <polygon id="Fill-68" fill="#73553F" points="3.65435733 6.24348852 4.00721067 6.1523284 13.3524907 6.47564864 13.0056107 6.56723474"></polygon>
                                <polygon id="Fill-70" fill="#651F87" points="10.5943467 2.07372236 10.9429333 1.98554411 13.3527467 6.47581903 13.00544 6.56740514"></polygon>
                                <polygon id="Fill-72" fill="#28133E" points="9.13728 9.38259154 9.48629333 9.28887553 14.9595733 9.47417764 14.6139733 9.56831964"></polygon>
                                <polygon id="Fill-74" fill="#3F225D" points="14.6139307 9.56836224 14.9599573 9.47422024 17.775104 14.7227429 17.4316373 14.8211447"></polygon>
                                <polygon id="Fill-76" fill="#2D1744" points="17.431424 14.8211447 17.7753173 14.7227429 15.127424 19.7212142 14.7822507 19.8234498"></polygon>
                                <polygon id="Fill-78" fill="#2F0E42" points="20.2972587 23.0212958 20.6390187 22.9160782 13.6544853 27.0148758 13.3084587 27.1226492"></polygon>
                                <polygon id="Fill-80" fill="#45125D" points="10.8576853 22.6240251 11.204992 22.5196595 20.6390187 22.9162486 20.2972587 23.0214662"></polygon>
                                <polygon id="Fill-82" fill="#AA805F" points="14.1256107 2.92611208 14.472064 2.83750785 19.3057707 11.8406347 18.9627307 11.9364807"></polygon>
                                <polygon id="Fill-84" fill="#765741" points="17.899776 19.9847266 18.2432427 19.8824909 22.9574827 20.0741828 22.6174293 20.1768444"></polygon>
                                <polygon id="Fill-86" fill="#601C7F" points="14.1256107 2.92611208 14.472064 2.83750785 21.6033707 7.49945347 21.262464 7.59231752"></polygon>
                                <polygon id="Fill-88" fill="#4A1464" points="21.2622933 7.59214713 21.6036267 7.49928308 19.3056 11.8404644 18.96256 11.9367363"></polygon>
                                <polygon id="Fill-90" fill="#7E5E45" points="22.4960427 11.3290731 22.8365227 11.2332272 18.2430293 19.8823631 17.8999893 19.9845988"></polygon>
                                <polygon id="Fill-92" fill="#5E1B7C" points="22.4960427 11.3290731 22.8365227 11.2332272 22.957696 20.074055 22.617216 20.1771426"></polygon>
                                <path d="M1.37809067,9.09181631 L1.52145067,17.8580973 L6.03003733,9.25922719 L1.37809067,9.09181631 L1.37809067,9.09181631 Z M22.6171307,20.1767166 L22.4959573,11.3290731 L17.899904,19.9845988 L22.6171307,20.1767166 L22.6171307,20.1767166 Z M10.5945173,2.07376495 L3.65435733,6.24327553 L13.0056107,6.56744773 L10.5945173,2.07376495 L10.5945173,2.07376495 Z M13.304704,27.1112755 L20.297344,23.0214236 L10.8577707,22.6239825 L13.304704,27.1112755 L13.304704,27.1112755 Z M2.74043733,21.5564719 L9.75569067,26.2120278 L4.936064,17.3737559 L2.74043733,21.5564719 L2.74043733,21.5564719 Z M21.262464,7.59193414 L14.1256107,2.92615468 L18.9627307,11.9365233 L21.262464,7.59193414 L21.262464,7.59193414 Z M17.431424,14.8212725 L14.6137173,9.56849003 L9.14385067,9.37126042 L6.43707733,14.5243631 L9.225344,19.6314598 L14.7724373,19.8572302 L14.7822507,19.8235776 L17.431424,14.8212725 L17.431424,14.8212725 Z M23.2993707,7.66733293 L23.378304,7.69715166 L23.577984,22.4075837 L12.4172373,29.0925172 L0.627157333,21.2604145 L0.363050667,6.91036314 L11.700864,0.0869854985 L23.2993707,7.66733293 Z" id="Fill-94" fill="#8A674D"></path>
                                <polygon id="Fill-96" fill="#50176C" points="4.93602133 17.3737133 9.755648 26.2124112 2.74039467 21.5564293"></polygon>
                                <polygon id="Fill-98" fill="#50176C" points="6.030208 9.25926979 1.52162133 17.8581399 1.37826133 9.09185891"></polygon>
                                <polygon id="Fill-100" fill="#50176C" points="10.5943467 2.07372236 13.00544 6.56740514 3.65418667 6.24365891"></polygon>
                                <polygon id="Fill-102" fill="#30194B" points="14.6139307 9.56836224 17.4316373 14.8211447 14.782464 19.8234498 14.772224 19.8575284 9.22513067 19.631332 6.43729067 14.5246613 9.13723733 9.38263414"></polygon>
                                <polygon id="Fill-104" fill="#50176C" points="20.2972587 23.0212958 13.3084587 27.1226492 10.8576853 22.6238547"></polygon>
                                <polygon id="Fill-106" fill="#563F2E" points="23.578112 22.4074985 23.9177387 22.3027069 12.763392 28.9833807 12.4173653 29.092432"></polygon>
                                <polygon id="Fill-108" fill="#50176C" points="14.1256107 2.92611208 21.262464 7.59231752 18.9627307 11.9364807"></polygon>
                                <polygon id="Fill-110" fill="#50176C" points="22.4960427 11.3290731 22.617216 20.1771426 17.8999893 19.9845988"></polygon>
                                <polygon id="Fill-112" fill="#A0795A" points="11.7010347 0.0869429003 12.048768 0.00046858006 23.6395947 7.57442628 23.2995413 7.66729033"></polygon>
                                <polygon id="Fill-114" fill="#9D7658" points="23.3780907 7.69698127 23.718144 7.60411722 23.917824 22.3030477 23.5781973 22.4074133"></polygon>
                                <polygon id="Fill-116" fill="#936E52" points="23.2993707 7.66724773 23.6398507 7.57438369 23.7179307 7.60420242 23.378304 7.69706647"></polygon>
                            </g>
                            <path d="M116.574379,59.2929707 C116.574379,59.2929707 120.931925,58.6842426 123.510272,59.2929707 C125.411925,59.7419556 139.450539,63.256306 136.744192,77.1526867 C134.038272,91.0494934 124.741632,94.9472275 119.116459,93.2011278 L116.574379,59.2929707 Z" id="Fill-119" stroke="none" fill="#977558" fill-rule="evenodd"></path>
                            <path d="M119.823531,89.7781505 C119.823531,89.7781505 123.120384,101.654951 127.588437,108.206552 C132.057344,114.757727 137.009237,113.776691 138.458197,118.840764 C142.449664,116.138761 147.010304,112.07532 147.198037,99.1727547 C147.386197,86.2706157 138.671957,77.2666369 132.558251,73.7041505 C126.444544,70.1412381 119.823531,89.7781505 119.823531,89.7781505" id="Fill-121" stroke="none" fill="#977558" fill-rule="evenodd"></path>
                            <path d="M144.920619,123.896657 C146.861525,117.920558 145.681792,111.887376 145.247872,110.445002 C144.840405,109.090805 145.583232,107.043963 145.607979,105.584975 C145.674965,101.680851 145.151872,97.8632012 144.429525,94.0255305 C143.758805,90.464748 141.326379,86.8916121 139.365845,83.8905698 C138.493739,82.5551166 137.105792,81.5421317 136.083925,80.3148779 C134.898645,78.8912465 134.784299,77.2887027 134.145152,75.6537843 C133.135232,73.0697782 130.509952,70.9956725 128.093739,73.0433674 C127.012139,73.9592284 126.263339,76.2880713 124.738859,76.3643221 C123.865045,76.4077722 120.098005,76.3068145 115.707179,75.4318477 L116.574165,92.7957208 C117.006805,93.0342707 118.154112,93.1710109 119.116245,93.2008296 C120.888619,96.693455 124.426539,103.513425 127.627392,108.206467 C129.383979,110.781953 131.195605,112.191953 132.859179,113.26415 C132.057045,115.511204 130.845739,120.007443 131.463552,125.601863 C132.342485,133.556648 142.434005,141.070543 144.461525,149.887089 C146.378112,149.190609 145.942912,150.047259 148.045099,149.887089 C150.586325,149.693694 141.865259,136.849488 144.920619,123.896657" id="Fill-126" stroke="none" fill="#661F88" fill-rule="evenodd"></path>
                            <polygon id="Fill-174" stroke="none" fill="#FBC29C" fill-rule="evenodd" points="78.0964267 56.7867915 77.872 61.8542719 99.0030933 56.799145 99.0030933 45.2942266 78.0964267 45.2942266"></polygon>
                            <path d="M78.0964267,45.2940562 L99.0030933,45.2940562 L99.0030933,49.5470592 C96.4430933,51.4473644 92.4797867,53.5849414 86.8785067,55.2126181 C86.62848,55.285035 86.07424,55.2765154 85.8293333,55.1866332 C82.64896,54.0215728 79.8030933,52.5681227 78.0964267,51.1150985 L78.0964267,45.2940562 Z" id="Fill-176" stroke="none" fill="#BA8F6D" fill-rule="evenodd"></path>
                            <path d="M76.8164267,24.4063758 C76.8164267,23.9573909 74.7872,22.4012792 73.79776,22.9039378 C72.8078933,23.4061704 72.7541333,27.3741915 74.4074667,27.7371281 C76.0608,28.1004906 76.8164267,27.5002822 76.8164267,27.5002822 L76.8164267,24.4063758 Z" id="Fill-178" stroke="none" fill="#FBC29C" fill-rule="evenodd"></path>
                            <path d="M97.259776,25.3294785 C98.0567893,24.7126568 99.035136,22.9844483 100.237909,24.2206477 C101.440683,25.4572731 101.415936,29.3622489 98.221056,28.937545 C95.026176,28.5128411 97.259776,25.3294785 97.259776,25.3294785" id="Fill-180" stroke="none" fill="#FBC29C" fill-rule="evenodd"></path>
                            <path d="M78.0118613,13.2856931 C78.0118613,13.2856931 73.5045547,42.4011281 73.3599147,44.5450949 C73.217408,46.6596689 78.770048,50.6932912 88.6384213,53.3556779 C88.907648,53.4285208 89.199488,53.4195752 89.4635947,53.330119 C97.3373013,50.651119 101.307435,46.4488079 101.024555,44.2328502 C100.736555,41.979406 96.5488213,15.61411 96.6051413,14.0090103 C96.6614613,12.4043366 96.2518613,8.29616737 96.2518613,8.29616737 L81.0975147,6.30001631 L78.0118613,13.2856931 Z" id="Fill-182" stroke="none" fill="#FBC29C" fill-rule="evenodd"></path>
                            <path d="M97.4693547,19.7521831 C97.456128,19.6968054 97.445888,19.6397239 97.427968,19.5851982 C97.3072213,19.2184278 96.8037547,19.1357873 96.680448,19.5592133 C96.1483947,21.3858236 96.0272213,23.2912405 95.598848,25.135316 C95.1666347,26.9964308 93.193728,30.1065245 90.875648,29.1902375 C90.7352747,29.1382677 90.6213547,29.1727722 90.536448,29.2460411 C90.1264213,29.0569051 89.7449813,28.7966302 89.4168747,28.4762918 C88.9872213,28.0566997 88.6249813,27.5272042 88.2251947,27.0756634 C88.1833813,27.0292314 88.1381547,26.9793915 88.0925013,26.9299776 C88.1035947,26.850745 88.100608,26.7706604 88.0741547,26.7007994 C88.0255147,26.5717269 87.9478613,26.5001619 87.8390613,26.4460622 C87.7003947,26.3012284 87.611648,26.1538387 87.3833813,26.0635305 C87.368448,26.0579927 87.354368,26.0550109 87.3394347,26.0494731 C87.1568213,25.7951619 87.0096213,25.5302012 86.9545813,25.2626846 C86.9456213,25.2171045 86.9149013,25.1966574 86.8811947,25.1872858 C86.839808,25.1310562 86.7920213,25.0833462 86.7365547,25.0560834 C86.7497813,24.8805789 86.7536213,24.7046483 86.7339947,24.5299958 C86.683648,24.0801589 86.0696747,24.2079535 86.0351147,24.6075245 C85.993728,25.0799384 85.8781013,25.5715215 85.721088,26.0660864 C85.2483413,26.7642707 84.844288,27.4748085 84.391168,28.2343341 C84.3160747,28.3599988 84.2345813,28.5103704 84.1483947,28.6671317 C84.103168,28.6999323 84.0587947,28.7335849 84.0131413,28.7659595 C83.4921813,29.0671287 82.788608,29.2307057 82.115328,29.2503009 C82.0176213,29.2192042 81.922048,29.1855517 81.8290347,29.1463613 C81.7936213,29.0914097 81.742848,29.0454036 81.6617813,29.0275124 C81.5913813,29.0117511 81.5243947,28.9908779 81.457408,28.9700048 C81.0486613,28.754884 80.6629547,28.4941831 80.2610347,28.2662828 C79.5958613,27.6869474 79.047168,26.9261438 78.399488,26.3923885 C78.3581013,26.2292375 78.3171413,26.0656604 78.2911147,25.9016574 C78.1238613,24.8503341 78.1558613,23.4002918 77.595648,22.4742073 C77.4667947,22.2616423 77.2125013,22.2565305 77.0610347,22.3779353 C76.965888,22.1368296 76.862208,21.9029656 76.738048,21.6874187 C76.6979413,21.6175577 76.606208,21.6290592 76.580608,21.704458 C76.331008,22.4345909 76.525568,23.4335184 76.695808,24.172597 C76.9027413,25.0692888 77.1160747,26.0000592 77.4066347,26.8733221 C77.9045547,28.3706483 79.0143147,30.4839444 80.4662613,31.2592314 C81.8409813,31.9923462 83.3547947,31.856884 84.2973013,30.6458175 C84.503808,30.5086514 84.702208,30.328461 84.8886613,30.0899112 C85.523968,29.2762858 85.9625813,28.2266665 86.3670613,27.1991982 C86.3717547,27.1953644 86.377728,27.1906785 86.382848,27.1872707 C86.3977813,27.1757692 86.4139947,27.1617118 86.430208,27.1480804 C86.6328747,27.1587299 86.8624213,27.2869505 87.2029013,27.6136785 C87.5455147,27.9425366 87.836928,28.4814036 88.1411413,28.8635094 C88.7474347,29.624739 89.3443413,30.2948085 90.2032213,30.7770199 C91.547648,31.5322858 93.2701013,31.6375033 94.5714347,30.7267541 C96.2623147,29.5433764 96.6898347,27.3721468 97.0281813,25.4688598 C97.1177813,24.9649233 97.1685547,24.4614127 97.2099413,23.9579021 C97.360128,23.1293674 97.417728,22.2961468 97.5184213,21.4561106 C97.5977813,20.7949867 97.868288,20.2429142 97.4693547,19.7521831" id="Fill-184" stroke="none" fill="#DEB08A" fill-rule="evenodd"></path>
                            <g id="Group-188" stroke="none" stroke-width="1" fill="none" fill-rule="evenodd" transform="translate(74.666667, 0.381680)">
                                <mask id="mask-4" fill="white">
                                    <use xlink:href="#path-3"></use>
                                </mask>
                                <g id="Clip-187"></g>
                                <path d="M5.74020267,7.482329 C5.74020267,7.482329 6.832896,11.8009332 4.307456,17.4396553 C1.95950933,22.4474982 1.91172267,21.9780662 1.91172267,21.9780662 L1.88398933,24.0244831 C1.88398933,24.0244831 0.425642667,24.4632444 0.825856,23.839181 C1.22606933,23.2151175 1.19748267,19.5682867 0.855296,18.433897 C0.512682667,17.2995073 -1.84891733,7.60884562 4.07748267,5.06104804 C3.21134933,3.18374592 1.88398933,3.18374592 1.88398933,3.18374592 C1.88398933,3.18374592 3.758336,2.27683051 4.92100267,4.49065831 C4.007936,0.253416616 5.51748267,0.0442595166 5.51748267,0.0442595166 C5.51748267,0.0442595166 4.46702933,2.55840453 5.97742933,3.0384861 C9.03918933,0.588238369 13.792256,0.672156798 18.669056,3.3511568 C22.622976,5.40225952 27.5706027,3.05808127 27.5706027,3.05808127 C27.5706027,3.05808127 26.1446827,12.5596069 19.772416,13.6484166 C13.399296,14.7363743 7.81892267,10.6243713 5.74020267,7.482329" id="Fill-186" fill="#FDF103" mask="url(#mask-4)"></path>
                            </g>
                            <path d="M95.153536,10.6476299 C95.153536,10.6476299 97.1460693,22.699935 97.2599893,23.7857628 C97.3734827,24.8711647 97.5834027,25.4573157 98.5476693,24.2850136 C98.5306027,23.899926 98.1926827,21.3764094 98.060416,18.7506571 C97.928576,16.1253308 100.393856,10.974358 99.0515627,7.96011027 C96.9963093,7.5835423 95.153536,10.6476299 95.153536,10.6476299" id="Fill-189" stroke="none" fill="#FDF103" fill-rule="evenodd"></path>
                            <path d="M86.5339307,26.1248719 C86.5339307,26.1248719 85.9865173,30.8720139 85.9028907,31.7793553 C85.819264,32.6866967 86.4456107,36.8800622 86.9337173,36.97889 C87.4222507,37.0781438 92.0281173,36.7318205 92.0281173,36.7318205 C92.0281173,36.7318205 88.2111573,38.0881468 87.197824,38.2095517 C86.1849173,38.3313825 85.3524907,37.8227601 85.3729707,36.4055184 C85.393024,34.9882767 85.535104,32.1895758 85.535104,32.1895758 L86.103424,26.1248719 L86.5339307,26.1248719 Z" id="Fill-191" stroke="none" fill="#BA8F6D" fill-rule="evenodd"></path>
                            <path d="M78.48896,39.5796798 C78.48896,39.5796798 78.8823467,39.6929909 78.7453867,40.702994 C78.608,41.4863746 78.128,41.8799819 78.128,41.8799819 C78.128,41.8799819 77.9889067,41.5089517 78.128,41.3726375 C78.2666667,41.2363233 78.6877867,40.1245106 78.48896,39.5796798" id="Fill-193" stroke="none" fill="#DEB08A" fill-rule="evenodd"></path>
                            <path d="M98.2210133,35.3812024 C98.1664,35.5362598 97.77856,36.447861 97.8651733,37.083426 C97.9517867,37.7189909 98.2210133,37.6508338 98.2210133,37.6508338 C98.2210133,37.6508338 98.19456,36.7677734 98.2210133,36.5172961 C98.2474667,36.2663927 98.3140267,35.1153897 98.2210133,35.3812024" id="Fill-195" stroke="none" fill="#DEB08A" fill-rule="evenodd"></path>
                            <path d="M81.506048,41.6297175 C84.4543147,41.7046903 89.806848,40.7300438 95.065088,36.9699018 C96.4061013,35.6991979 94.9055147,39.503216 94.6328747,40.4109834 C94.359808,41.3187508 90.702848,46.3240378 84.8587947,47.8179562 L83.9269547,47.9538444 C83.9269547,47.9538444 84.9496747,47.5001737 84.904448,46.9553429 C84.8587947,46.4109381 83.5301547,41.8801949 83.5301547,41.8801949 C83.5301547,41.8801949 80.6155947,41.6071405 81.506048,41.6297175" id="Fill-197" stroke="none" fill="#333333" fill-rule="evenodd"></path>
                            <path d="M90.418944,33.1572789 C90.418944,33.1572789 95.1528107,32.1634631 96.9452373,33.7251127 C97.8484907,34.470581 96.5198507,33.7251127 96.5198507,33.7251127 L91.2812373,33.5738891 C91.2812373,33.5738891 90.0012373,33.2335296 90.418944,33.1572789" id="Fill-199" stroke="none" fill="#DEB08A" fill-rule="evenodd"></path>
                            <path d="M83.930624,41.8002807 C83.930624,41.8002807 85.153024,45.4168668 85.3727573,47.4164257 C86.325504,47.2285677 88.6696107,46.0383743 90.8980907,44.6973834 C93.141504,42.8831266 94.471424,40.945335 94.6322773,40.4120057 C94.312704,40.6224408 93.901824,40.9393713 93.3407573,41.3299967 C93.7260373,40.9649302 94.4684373,40.1598245 94.9121707,39.5796372 C95.0111573,39.2912474 95.1212373,38.9692051 95.2244907,38.6463109 C95.0952107,38.1683592 94.754304,37.4778426 94.754304,37.4778426 C91.2052907,40.6241447 83.930624,41.8002807 83.930624,41.8002807" id="Fill-201" stroke="none" fill="#F0F1F1" fill-rule="evenodd"></path>
                            <path d="M99.0514347,25.3294785 C99.0514347,25.3294785 98.3376213,26.5912369 98.4259413,27.1697202 C98.5142613,27.7482036 99.4456747,27.1697202 99.4456747,27.1697202 L98.931968,26.3944332 L99.0514347,25.3294785 Z" id="Fill-203" stroke="none" fill="#CA916B" fill-rule="evenodd"></path>
                            <path d="M73.834368,24.2208181 C73.834368,24.2208181 74.7350613,24.2391353 75.384448,25.3296489 C75.7816747,26.1688332 74.9560747,26.9057819 74.9560747,26.9057819 C74.9560747,26.9057819 74.666368,25.9997184 74.7448747,25.3296489 C74.599808,24.4938725 73.834368,24.2208181 73.834368,24.2208181" id="Fill-205" stroke="none" fill="#CA916B" fill-rule="evenodd"></path>
                            <path d="M90.3351893,15.0788637 C90.3351893,15.0788637 90.7712427,11.6019997 92.4587093,10.2835858 C94.1457493,8.96474592 96.3255893,9.55089698 97.1639893,11.476335 C97.4993493,12.4390541 94.580096,10.9941236 93.3355093,12.4910239 C92.0909227,13.9879242 90.184576,15.9154921 90.3351893,15.0788637" id="Fill-207" stroke="none" fill="#FEC000" fill-rule="evenodd"></path>
                            <path d="M77.33312,13.2977483 C77.33312,13.2977483 82.1710933,15.5784553 84.36416,15.8297846 C85.17312,16.0811139 85.1108267,15.9183888 85.3728,15.0787785 C85.6343467,14.2391683 84.85952,14.4287302 83.52832,14.480274 C82.1962667,14.5322438 79.4293333,12.1889175 77.33312,13.2977483" id="Fill-209" stroke="none" fill="#FEC000" fill-rule="evenodd"></path>
                            <path d="M95.2243627,38.6463961 C95.0950827,38.1684444 94.754176,37.4779278 94.754176,37.4779278 C91.2051627,40.6242299 83.930496,41.8003659 83.930496,41.8003659 C83.930496,41.8003659 84.0747093,42.2276257 84.2714027,42.8631906 C86.8314027,42.6391242 91.5511893,41.914955 93.8778027,39.5797224 C94.036096,39.9856831 93.9038293,40.480674 93.5130027,41.1609671 C93.919616,40.7533024 94.527616,40.0828069 94.9124693,39.5792964 C95.0110293,39.2913326 95.1211093,38.9692903 95.2243627,38.6463961" id="Fill-211" stroke="none" fill="#CBCBCB" fill-rule="evenodd"></path>
                            <path d="M94.7935147,44.1620946 C94.786688,44.1148106 94.7768747,44.0675266 94.7640747,44.0202426 C94.6646613,44.152723 94.5605547,44.2766837 94.492288,44.4279073 C94.425728,44.575723 94.3267413,44.7026656 94.2243413,44.8296082 C94.0195413,45.0834934 93.7725013,45.3084118 93.472128,45.4425961 C93.144448,45.5895598 92.7775147,45.6189526 92.430208,45.7113906 C91.407488,45.984019 90.6224213,46.7754934 89.744768,47.3663302 C89.4640213,47.5550402 89.1704747,47.7250069 88.8671147,47.8745266 C88.7702613,47.9226625 88.4912213,48.0461973 88.4720213,48.1663242 C88.4387413,48.3737773 88.7446613,48.3401248 88.8816213,48.3017864 C89.474688,48.1360795 89.9922347,47.818297 90.4722347,47.4404511 C90.9590613,47.0579193 91.4275413,46.6396051 91.9864747,46.3729405 C92.394368,46.1782668 92.8376747,46.0713453 93.2656213,45.9256595 C93.693568,45.7799737 94.1202347,45.5870039 94.4304213,45.2585719 C94.7064747,44.9672003 94.8515413,44.5586837 94.7935147,44.1620946" id="Fill-213" stroke="none" fill="#DEB08A" fill-rule="evenodd"></path>
                            <path d="M100.760192,18.0646985 C100.540459,18.1873813 100.395819,18.3488284 100.230699,18.5400943 C100.060032,18.7386018 99.8432853,18.9047347 99.7314987,19.1441366 C99.679872,19.2544659 99.7204053,19.4214508 99.8671787,19.4240066 C100.111232,19.4291184 100.376192,19.179919 100.549845,19.0333813 C100.666325,18.9349795 100.772992,18.8131486 100.893739,18.7215625 C100.985045,18.6517015 101.086165,18.616771 101.136512,18.5026079 C101.242325,18.2615021 101.056725,17.8985656 100.760192,18.0646985" id="Fill-215" stroke="none" fill="#A78A73" fill-rule="evenodd"></path>
                            <path d="M89.6635307,19.5537607 C89.6443307,19.3727184 89.4433707,19.3220266 89.3106773,19.3999813 C89.184384,19.3373619 89.0606507,19.2696308 88.939904,19.1997698 C88.850304,19.1320387 88.7551573,19.0728272 88.6484907,19.0332109 C88.3156907,18.9101021 88.2521173,19.4515251 88.5439573,19.6210659 C88.567424,19.6342713 88.763264,19.6427909 88.763264,19.6555704 L88.763264,19.6564224 C88.763264,19.6581263 88.6254507,19.6611082 88.6305707,19.6628121 C88.7636907,19.734377 88.8242773,19.8004042 88.961664,19.8591897 C88.9842773,19.8698393 88.9701973,19.8800628 88.9928107,19.8894344 C89.1135573,19.9414042 89.216384,19.9916701 89.335424,20.0496036 C89.5176107,20.1382079 89.6677973,19.9311807 89.6805973,19.7769752 C89.687424,19.6990205 89.672064,19.6317154 89.6635307,19.5537607" id="Fill-217" stroke="none" fill="#A78A73" fill-rule="evenodd"></path>
                            <path d="M108.258091,26.6895535 C108.258091,26.6895535 107.074091,27.8490761 107.052331,28.3977408 C107.030571,28.9468314 108.070357,29.0814417 108.569131,29.1815474 C109.068331,29.2812272 109.886677,29.4724931 109.823104,28.5464085 C109.759957,27.6198979 109.646464,26.583484 109.646464,26.583484 L108.258091,26.6895535 Z" id="Fill-219" stroke="none" fill="#661F88" fill-rule="evenodd"></path>
                            <path d="M108.569344,24.3109133 C108.569344,24.3109133 110.009771,24.6069707 110.350677,24.9239012 C110.691584,25.2412577 110.460331,25.8619133 110.409984,26.1779918 C110.359637,26.4940704 110.214997,27.1258015 109.796437,27.1415628 C109.377877,27.1568982 107.953237,26.7083393 107.953237,26.7083393 L108.569344,24.3109133 Z" id="Fill-221" stroke="none" fill="#654E7E" fill-rule="evenodd"></path>
                            <path d="M107.966848,25.0574039 C108.004395,24.8256698 108.285995,24.2497423 108.569301,24.3110837 C108.852608,24.3715731 108.724608,25.2542076 108.569301,25.9195912 C108.413995,26.5849749 108.206635,26.7038239 107.953195,26.7085097 C107.699755,26.7131955 107.738155,26.4801834 107.966848,25.0574039" id="Fill-223" stroke="none" fill="#661F88" fill-rule="evenodd"></path>
                            <path d="M108.405632,24.9467338 C108.077525,24.8236251 107.705472,24.7690994 107.368405,24.661326 C107.066325,24.5650541 106.727979,24.4521689 106.406272,24.4572807 C106.382379,24.4577066 106.366165,24.4755979 106.358485,24.496045 C106.306859,24.5181961 106.274859,24.5957248 106.334592,24.6400269 C106.245419,24.9322505 106.138752,25.2393834 106.081579,25.5375707 C106.057259,25.6615314 106.036352,25.693906 106.124245,25.7761205 C106.157525,25.8072172 106.344405,25.8195707 106.387499,25.8276644 C106.459179,25.8408698 106.530859,25.8549272 106.602965,25.8685586 C107.100459,26.0368215 107.630805,26.1935828 108.127445,26.2779272 C108.185899,26.2877248 108.230699,26.2421447 108.256725,26.1944347 C108.326272,26.1859151 108.371072,26.1309634 108.382165,26.0538607 C108.429099,25.742894 108.488832,25.389329 108.49097,25.0783622 C108.491392,25.0204287 108.460672,24.967181 108.405632,24.9467338" id="Fill-225" stroke="none" fill="#666666" fill-rule="evenodd"></path>
                            <path d="M105.32352,22.7633637 L106.347947,23.1782701 C106.481067,23.2319438 106.559147,23.3699619 106.536533,23.5109619 L106.380373,24.5009438 L105.78688,26.4762218 L105.285973,27.150977 C105.160107,27.3205178 104.950187,27.4061402 104.741547,27.3733396 L103.758933,27.2195601 L105.32352,22.7633637 Z" id="Fill-227" stroke="none" fill="#989898" fill-rule="evenodd"></path>
                            <path d="M105.676459,26.3686187 C105.660672,26.3430598 105.637632,26.3226127 105.606059,26.314945 C105.260032,26.2335825 104.896939,26.1833166 104.541525,26.2033378 C104.539392,26.2033378 104.538539,26.2054677 104.536405,26.2054677 C104.477099,26.2041897 104.416939,26.1990779 104.358485,26.2012079 C104.289792,26.2037637 104.247125,26.2544556 104.232192,26.3119631 C104.220672,26.3119631 104.209152,26.3106852 104.197632,26.3111112 C104.132352,26.3123891 104.127659,26.4176066 104.193792,26.4205885 C104.212565,26.4218665 104.231339,26.4248483 104.250112,26.4261263 C104.264619,26.4482773 104.282965,26.4695764 104.314112,26.480226 C104.329899,26.4853378 104.346965,26.4883196 104.362752,26.4934314 C104.316672,26.5517909 104.315819,26.6467849 104.362325,26.7055704 C104.351659,26.7353891 104.350379,26.7677637 104.354645,26.7988604 C104.263765,26.8210115 104.173312,26.8389027 104.082859,26.8631837 C103.979179,26.8904465 103.956992,26.99609 103.989845,27.0761746 C103.984299,27.0800085 103.978325,27.0825644 103.973205,27.0868242 C103.928405,27.1230326 103.929685,27.1967275 103.958272,27.2504012 L104.201472,27.2887396 C104.244992,27.2819239 104.288085,27.2759601 104.331605,27.2695704 C104.332885,27.2836278 104.336299,27.2976852 104.340992,27.3104647 L104.741632,27.37351 C104.950272,27.4063106 105.160192,27.3202622 105.286059,27.1507215 L105.786965,26.4759662 L105.809579,26.3992894 C105.808299,26.3984375 105.807872,26.3967335 105.805739,26.3963076 C105.763499,26.386936 105.719552,26.3779903 105.676459,26.3686187" id="Fill-229" stroke="none" fill="#666666" fill-rule="evenodd"></path>
                            <path d="M106.131883,24.4113598 C106.128896,24.407526 106.124629,24.4096559 106.121643,24.407952 C106.134869,24.3402208 106.112683,24.265674 106.035456,24.2465048 C105.714176,24.1659943 105.388629,24.1779218 105.067776,24.1170063 C104.964096,24.0974112 104.915883,24.2537465 105.018709,24.2856952 C105.327189,24.3811151 105.649323,24.406674 105.955669,24.5212631 C105.992363,24.5353205 106.024363,24.5293568 106.051243,24.5144474 C105.994069,24.642242 105.958229,25.0021967 105.947136,25.0635381 C105.907456,25.2918644 105.848576,25.511245 105.780309,25.7319036 C105.777323,25.7378674 105.776469,25.745961 105.773909,25.7532027 C105.772203,25.7591665 105.770923,25.7647042 105.768789,25.770668 L105.769216,25.770668 C105.767936,25.7774837 105.765376,25.7821695 105.764523,25.7889852 C105.764096,25.7953749 105.763669,25.8009127 105.763243,25.8068764 C105.752149,25.958952 105.883989,26.0795048 105.929643,25.934245 C106.016683,25.6569308 106.126763,25.2846227 106.151936,24.9966589 C106.168149,24.8139127 106.241963,24.571103 106.131883,24.4113598" id="Fill-231" stroke="none" fill="#666666" fill-rule="evenodd"></path>
                            <path d="M105.485611,25.0892248 C105.437397,24.8826236 105.430997,24.6406659 105.334144,24.450252 C105.311531,24.4059498 105.244117,24.4234151 105.244963,24.473255 C105.251371,24.9916749 105.380651,25.5147807 105.497131,26.0174393 C105.528704,26.1529015 105.698944,26.094116 105.685291,25.9680254 C105.653717,25.671116 105.553877,25.3793184 105.485611,25.0892248" id="Fill-233" stroke="none" fill="#666666" fill-rule="evenodd"></path>
                            <path d="M105.236437,25.4935668 C105.192917,25.3640683 105.169451,25.230736 105.129344,25.1003855 C105.093931,24.9853704 105.036757,24.8801529 105.018837,24.760026 C105.009451,24.6965547 104.917291,24.7101861 104.916011,24.7715275 C104.913877,24.8784489 104.930517,24.9879263 104.950571,25.0969776 C104.892544,25.0824943 104.821291,25.1246665 104.810624,25.182174 C104.794837,25.2660924 104.765397,25.7955879 104.704384,25.793458 C104.554624,25.7874943 104.546517,26.0332858 104.695424,26.0426574 C104.884864,26.0545849 105.066624,26.1376514 105.256491,26.123594 C105.327744,26.1180562 105.380651,26.0682163 105.384064,25.9945215 C105.391744,25.8275366 105.288064,25.6494761 105.236437,25.4935668" id="Fill-235" stroke="none" fill="#666666" fill-rule="evenodd"></path>
                            <path d="M103.721045,20.2931801 C103.687339,20.3464278 104.614912,20.976881 105.184085,21.3572828 C105.460139,21.5413069 105.613739,21.8582375 105.582592,22.1887994 C105.493845,23.139165 105.160192,25.2639625 103.905792,28.0549958 C103.165952,28.7859807 102.190592,28.7063221 102.190592,28.7063221 L103.721045,20.2931801 Z" id="Fill-237" stroke="none" fill="#977558" fill-rule="evenodd"></path>
                            <path d="M101.11936,18.0954544 C101.11936,18.0954544 103.396053,16.7600012 104.00576,20.4464483 C104.615467,24.1328955 103.22368,28.3092218 101.72864,30.4847112 C100.731947,31.7894937 99.6512,31.0320979 98.0605867,31.099829 C96.4704,31.1675601 101.11936,18.0954544 101.11936,18.0954544" id="Fill-239" stroke="none" fill="#1A1A1A" fill-rule="evenodd"></path>
                            <path d="M87.0564267,16.4730598 L87.0564267,27.1226066 C87.0564267,27.1226066 93.29088,30.6561263 94.9390933,31.0999994 C96.58688,31.5434465 98.6289067,32.236519 99.2676267,32.2531323 C99.90592,32.2697456 99.8696533,31.3773136 99.94304,31.0838121 C101.19232,29.6486792 105.17056,24.0252924 101.382613,17.7118151 C101.382613,17.7118151 102.146347,17.0391897 101.174827,16.4040508 C100.31936,15.8443106 99.9690667,16.3708242 99.13408,16.563794 C98.29952,16.7571897 98.5892267,15.1307909 94.70784,15.411087 C90.8260267,15.6918091 89.6164267,16.4730598 87.0564267,16.4730598" id="Fill-241" stroke="none" fill="#333333" fill-rule="evenodd"></path>
                            <path d="M101.728512,22.908368 C101.728512,26.8538121 98.524672,30.05251 94.5728853,30.05251 C90.620672,30.05251 87.4172587,26.8538121 87.4172587,22.908368 C87.4172587,18.9624979 90.620672,15.764226 94.5728853,15.764226 C98.524672,15.764226 101.728512,18.9624979 101.728512,22.908368" id="Fill-243" stroke="none" fill="#8B6343" fill-rule="evenodd"></path>
                            <path d="M101.381461,23.1412949 C101.381461,26.7668266 98.437888,29.7056755 94.8061013,29.7056755 C91.1747413,29.7056755 88.231168,26.7668266 88.231168,23.1412949 C88.231168,19.5157631 91.1747413,16.5764882 94.8061013,16.5764882 C98.437888,16.5764882 101.381461,19.5157631 101.381461,23.1412949" id="Fill-245" stroke="none" fill="#977558" fill-rule="evenodd"></path>
                            <path d="M100.508544,23.1412949 C100.508544,26.2854671 97.9557973,28.8345426 94.806144,28.8345426 C91.6569173,28.8345426 89.1041707,26.2854671 89.1041707,23.1412949 C89.1041707,19.9971227 91.6569173,17.4480471 94.806144,17.4480471 C97.9557973,17.4480471 100.508544,19.9971227 100.508544,23.1412949" id="Fill-247" stroke="none" fill="#661F88" fill-rule="evenodd"></path>
                            <path d="M96.2922667,15.0871704 C95.8429867,15.024977 95.85664,15.5706598 95.8276267,15.870977 C95.80416,16.1133607 95.7448533,16.3698018 95.7610667,16.6143154 C95.7678933,16.717829 95.7832533,16.8264544 95.808,16.9274121 C95.8178133,16.9670284 95.8609067,17.2170798 95.8971733,17.1246417 C95.8805333,17.1676659 95.8954667,17.2251734 95.9253333,17.258826 L95.93344,17.2681976 C95.9995733,17.3431704 96.1105067,17.3265571 96.16128,17.2443426 C96.33024,16.9700103 96.32768,16.5870526 96.3886933,16.2794937 C96.41728,16.1338079 96.4206933,15.9923819 96.4283733,15.8445662 C96.4352,15.7218834 96.4087467,15.5583063 96.4714667,15.4564967 C96.5674667,15.3010133 96.4642133,15.1110254 96.2922667,15.0871704" id="Fill-249" stroke="none" fill="#A78A73" fill-rule="evenodd"></path>
                            <path d="M102.766848,23.1827003 C102.641835,23.1073015 102.566741,23.1503257 102.436181,23.1711988 C102.334208,23.1873861 102.111061,23.1865341 101.976661,23.1993136 C101.657941,23.2291323 101.217195,23.213371 100.997461,23.4894073 C100.979968,23.5115583 100.975275,23.541377 100.994901,23.564806 C101.172395,23.7786489 101.548288,23.7509601 101.802581,23.7850387 C102.046635,23.8169873 102.423381,23.9247607 102.666155,23.8301927 C102.914901,23.7326429 103.035648,23.3445734 102.766848,23.1827003" id="Fill-251" stroke="none" fill="#A78A73" fill-rule="evenodd"></path>
                            <path d="M101.246464,27.3381109 C101.180757,27.0578148 100.875264,26.9061653 100.625237,26.8052076 C100.420864,26.7221411 100.137131,26.6267211 99.929344,26.7451441 C99.8529707,26.7885943 99.7979307,26.9044613 99.826944,26.9917876 C99.8943573,27.194555 100.109397,27.382413 100.294571,27.4795369 C100.518997,27.5979598 100.751957,27.8037091 101.020331,27.7359779 C101.187584,27.6933798 101.284437,27.500836 101.246464,27.3381109" id="Fill-253" stroke="none" fill="#A78A73" fill-rule="evenodd"></path>
                            <path d="M97.3260373,30.0587293 C97.288064,29.9138955 97.2146773,29.7230556 97.1105707,29.5599045 C97.1272107,29.5573486 97.129344,29.5300858 97.1109973,29.5305118 C97.106304,29.5305118 97.0981973,29.5313637 97.090944,29.5322157 C96.9915307,29.3844 96.8673707,29.2625692 96.7193173,29.2259347 C96.5601707,29.1867444 96.4185173,29.3294483 96.457344,29.4913215 C96.463744,29.5198622 96.4808107,29.5407353 96.4923307,29.5650163 C96.4948907,29.6706598 96.503424,29.7792852 96.5179307,29.877687 C96.5435307,30.0468018 96.6408107,30.183116 96.715904,30.3121885 C96.914304,30.6534 97.4267307,30.4463728 97.3260373,30.0587293" id="Fill-255" stroke="none" fill="#A78A73" fill-rule="evenodd"></path>
                            <path d="M92.8747947,29.3667218 C92.8581547,29.219332 92.7472213,29.1243381 92.6281813,29.2001628 C92.629888,29.1984589 92.6315947,29.196755 92.6333013,29.1950511 C92.6264747,29.1950511 92.6200747,29.1946251 92.6136747,29.1946251 C92.5117013,29.1912172 92.435328,29.2542625 92.3922347,29.337329 C92.2301013,29.5345586 92.1733547,29.8093169 92.1609813,30.0602202 C92.1443413,30.3878003 92.638848,30.5062233 92.711808,30.1611779 C92.746368,29.995471 92.816768,29.8122988 92.853888,29.6325344 C92.9149013,29.5332807 92.9110613,29.4408426 92.8747947,29.3667218" id="Fill-257" stroke="none" fill="#A78A73" fill-rule="evenodd"></path>
                            <path d="M89.7227093,26.6841435 C89.5763627,26.6104486 89.400576,26.6845695 89.354496,26.8259955 C89.3361493,26.836219 89.3156693,26.8511284 89.3050027,26.8575181 C89.2307627,26.9043761 89.1595093,26.9559199 89.0839893,27.002352 C88.9555627,27.0803066 88.811776,27.1535755 88.685056,27.2404758 C88.6718293,27.2468656 88.659456,27.2545332 88.6458027,27.260497 C88.646656,27.2622009 88.6470827,27.2634789 88.647936,27.2651828 C88.6291627,27.2788142 88.606976,27.2894637 88.5899093,27.3043731 C88.3450027,27.51779 88.627456,27.9075634 88.8958293,27.7661375 C88.8971093,27.7691193 88.8983893,27.7721012 88.900096,27.7750831 C89.1462827,27.6481405 89.378816,27.4918051 89.610496,27.3384517 C89.8123093,27.2042674 90.0422827,26.8455906 89.7227093,26.6841435" id="Fill-259" stroke="none" fill="#A78A73" fill-rule="evenodd"></path>
                            <path d="M98.9064533,19.8688595 C99.02976,19.7836631 99.15264,19.6976148 99.27552,19.6124184 C99.1466667,19.4505453 99.01184,19.293784 98.8663467,19.1468202 C97.4685867,20.0264728 96.1224533,21.0045272 94.8100267,21.995787 C94.0561067,22.5657508 93.2736,23.0875785 92.4936533,23.6209079 C91.9313067,24.0047175 91.1607467,24.768077 90.45632,25.0066269 C90.44224,24.9942734 90.42432,24.9861798 90.4017067,24.9925695 C90.2877867,25.0240921 90.2818133,25.0245181 90.1853867,25.0884154 C90.0804267,25.1582764 90.0616533,25.3410227 90.144,25.427497 C90.0578133,25.6042795 90.03264,25.7883036 90.1538133,25.9799955 C90.2391467,26.1141798 90.3906133,26.1951163 90.5442133,26.1056601 C92.2555733,25.1097145 93.7723733,23.7065302 95.3873067,22.560639 C96.5819733,21.712935 97.7220267,20.7476601 98.9064533,19.8688595" id="Fill-261" stroke="none" fill="#654E7E" fill-rule="evenodd"></path>
                            <path d="M99.1481173,22.5060707 C98.7513173,22.5644302 98.370304,22.9439801 98.0268373,23.1518592 C97.412864,23.5233154 96.8133973,23.9228864 96.2271573,24.3369408 C95.0853973,25.1446024 94.0264107,26.1060435 92.8389973,26.8446961 C92.7118507,26.9239287 92.7745707,27.197835 92.9388373,27.1309559 C94.0703573,26.6717474 95.069184,25.531394 96.0261973,24.802539 C96.598784,24.3654816 97.183744,23.9416296 97.7861973,23.5454665 C98.1838507,23.2839136 98.706944,22.7633637 99.1796907,22.6517565 C99.2671573,22.6308834 99.2377173,22.4928653 99.1481173,22.5060707" id="Fill-263" stroke="none" fill="#654E7E" fill-rule="evenodd"></path>
                            <path d="M97.8210133,24.9371918 C97.80992,24.9056692 97.7937067,24.8771284 97.7732267,24.8528474 C97.77792,24.8464577 97.7838933,24.840494 97.7885867,24.8345302 C97.8410667,24.7667991 97.7681067,24.6573218 97.69472,24.7250529 C97.6721067,24.746352 97.6477867,24.7642432 97.6247467,24.7851163 C97.5978667,24.7880982 97.5697067,24.7966178 97.54112,24.8179169 C97.15328,25.1071586 96.7445333,25.3687115 96.3579733,25.6605091 C96.2338133,25.7537991 96.1156267,25.8547568 95.99488,25.9514547 C95.9812267,25.9557145 95.9684267,25.9569924 95.95392,25.9650861 C95.7422933,26.0826571 95.5328,26.2040619 95.3250133,26.3293006 C95.2567467,26.3706208 95.2251733,26.4409079 95.2196267,26.5137508 C95.1044267,26.649639 95.2529067,26.8869109 95.424,26.7931949 C95.4248533,26.7953248 95.4261333,26.7974547 95.4269867,26.7995846 C95.4474667,26.7863792 95.4683733,26.7723218 95.4888533,26.7586903 C95.584,26.7331314 95.6718933,26.6977749 95.75552,26.6560287 C95.7952,26.7467628 95.8826667,26.8059743 95.9880533,26.7339834 C96.3690667,26.4745604 96.6882133,26.108642 97.0555733,25.8240861 C97.3175467,25.6204668 97.6064,25.4411284 97.79072,25.1595544 C97.82144,25.1293097 97.8551467,25.1016208 97.88544,25.0705242 C97.94176,25.0130166 97.8837333,24.9239864 97.8210133,24.9371918" id="Fill-265" stroke="none" fill="#654E7E" fill-rule="evenodd"></path>
                            <path d="M100.656853,18.033261 C100.5856,18.0004604 100.501547,18.0051462 100.432853,18.0784151 C100.356907,18.1584997 100.280533,18.2415662 100.20288,18.3237807 C100.178987,18.3446538 100.15552,18.3663789 100.1312,18.3864 C100.070187,18.4349619 99.9985067,18.5244181 99.9182933,18.5303819 C99.78688,18.5401795 99.7186133,18.644545 99.7198933,18.7493366 C99.69216,18.7787293 99.66528,18.808548 99.6401067,18.8430526 C99.5232,19.0040737 99.7245867,19.2715903 99.9067733,19.1531674 C99.9234133,19.1425178 99.9387733,19.1293124 99.9549867,19.1178109 C100.13376,19.0769166 100.272853,18.9486961 100.40128,18.8251613 C100.551893,18.6811795 100.710613,18.5248441 100.841173,18.362971 C100.957653,18.2185631 100.850987,17.9582882 100.656853,18.033261" id="Fill-267" stroke="none" fill="#A78A73" fill-rule="evenodd"></path>
                            <path d="M92.0977067,16.8379133 C92.0686933,16.7062849 92.0123733,16.5912698 91.9522133,16.4754027 C91.8907733,16.256448 91.8225067,16.0366414 91.7154133,15.8513393 C91.6514133,15.741436 91.5409067,15.7030976 91.4410667,15.7201369 C91.4210133,15.7073574 91.3992533,15.7077834 91.37664,15.7231187 C91.2375467,15.6856323 91.1005867,15.834726 91.1223467,15.9940432 C91.1560533,16.2406867 91.264,16.4702909 91.35616,16.6994692 C91.3890133,16.7816837 91.4193067,16.8719918 91.45856,16.9550583 C91.4581333,17.0398287 91.4986667,17.1207653 91.59936,17.1488801 C91.6036267,17.150158 91.60704,17.149732 91.6113067,17.15101 C91.6334933,17.1680492 91.6526933,17.1884964 91.68,17.2004239 C91.7461333,17.2289647 91.7981867,17.2102215 91.8331733,17.1697532 C91.8848,17.172735 91.93728,17.151436 91.9816533,17.1169314 C92.07168,17.057294 92.1224533,16.9495205 92.0977067,16.8379133" id="Fill-269" stroke="none" fill="#A78A73" fill-rule="evenodd"></path>
                            <path d="M89.6951893,19.1360855 C89.6196693,19.076874 89.5262293,19.0487592 89.4455893,18.9984934 C89.3261227,18.9235205 89.2203093,18.8272486 89.1076693,18.7429042 C88.9050027,18.5916807 88.6822827,18.4242698 88.446336,18.3301278 C88.1796693,18.2236323 87.9697493,18.6338529 88.1626027,18.8174511 C88.3136427,18.9610069 88.4787627,19.0934873 88.6515627,19.2157441 C88.770176,19.3201097 88.9152427,19.3938045 89.0577493,19.476019 C89.2369493,19.5799586 89.3982293,19.6966776 89.6145493,19.6540795 C89.859456,19.6055175 89.8624427,19.2668619 89.6951893,19.1360855" id="Fill-271" stroke="none" fill="#A78A73" fill-rule="evenodd"></path>
                            <path d="M72.8789333,18.0954544 C72.8789333,18.0954544 70.60224,16.7600012 69.9921067,20.4464483 C69.3828267,24.1328955 70.7746133,28.3092218 72.2696533,30.4847112 C73.2663467,31.7894937 74.3470933,31.0320979 75.9377067,31.099829 C77.5278933,31.1675601 72.8789333,18.0954544 72.8789333,18.0954544" id="Fill-273" stroke="none" fill="#1A1A1A" fill-rule="evenodd"></path>
                            <path d="M87.4830933,16.4730598 L87.4830933,27.1226066 C87.4830933,27.1226066 80.9777067,30.6561263 79.32992,31.0999994 C77.6817067,31.5434465 75.5044267,32.236519 74.8661333,32.2531323 C74.22784,32.2697456 74.19584,31.3773136 74.12288,31.0838121 C72.8736,29.6486792 68.8612267,24.0252924 72.6491733,17.7118151 C72.6491733,17.7118151 71.8683733,17.0391897 72.84032,16.4040508 C73.6962133,15.8443106 74.0379733,16.3708242 74.8725333,16.563794 C75.7070933,16.7571897 75.6836267,15.1307909 79.5650133,15.411087 C83.4472533,15.6918091 84.9230933,16.4730598 87.4830933,16.4730598" id="Fill-275" stroke="none" fill="#333333" fill-rule="evenodd"></path>
                            <path d="M72.2697813,22.908368 C72.2697813,26.8538121 75.4736213,30.05251 79.425408,30.05251 C83.3771947,30.05251 86.5810347,26.8538121 86.5810347,22.908368 C86.5810347,18.9624979 83.3771947,15.764226 79.425408,15.764226 C75.4736213,15.764226 72.2697813,18.9624979 72.2697813,22.908368" id="Fill-277" stroke="none" fill="#8B6343" fill-rule="evenodd"></path>
                            <path d="M72.6168747,23.1412949 C72.6168747,26.7668266 75.560448,29.7056755 79.1922347,29.7056755 C82.8235947,29.7056755 85.767168,26.7668266 85.767168,23.1412949 C85.767168,19.5157631 82.8235947,16.5764882 79.1922347,16.5764882 C75.560448,16.5764882 72.6168747,19.5157631 72.6168747,23.1412949" id="Fill-279" stroke="none" fill="#977558" fill-rule="evenodd"></path>
                            <path d="M73.489792,23.1412949 C73.489792,26.2854671 76.0425387,28.8345426 79.192192,28.8345426 C82.3414187,28.8345426 84.8941653,26.2854671 84.8941653,23.1412949 C84.8941653,19.9971227 82.3414187,17.4480471 79.192192,17.4480471 C76.0425387,17.4480471 73.489792,19.9971227 73.489792,23.1412949" id="Fill-281" stroke="none" fill="#661F88" fill-rule="evenodd"></path>
                            <path d="M76.518528,15.5237592 C76.9528747,15.3917048 77.025408,15.9327018 77.100928,16.2249254 C77.162368,16.4604934 77.2617813,16.704155 77.2843947,16.9486686 C77.2937813,17.0517562 77.2959147,17.1612335 77.2873813,17.2647471 C77.2843947,17.3056414 77.2805547,17.5595266 77.230208,17.4739042 C77.2536747,17.5135205 77.2477013,17.572732 77.223808,17.6102184 L77.217408,17.620868 C77.163648,17.7056384 77.0518613,17.7069163 76.988288,17.6332215 C76.778368,17.3891338 76.720768,17.010436 76.611968,16.7160825 C76.560768,16.5767864 76.535168,16.4379163 76.5035947,16.2930825 C76.477568,16.1729556 76.477568,16.0076746 76.4003413,15.9169405 C76.2808747,15.7784964 76.3525547,15.5740251 76.518528,15.5237592" id="Fill-283" stroke="none" fill="#A78A73" fill-rule="evenodd"></path>
                            <path d="M73.5593813,28.4007653 C73.5798613,28.1136535 73.8576213,27.9159979 74.088448,27.7767018 C74.2774613,27.6629647 74.5424213,27.5236686 74.7664213,27.608439 C74.8483413,27.6391097 74.9208747,27.7451792 74.906368,27.8354873 C74.8713813,28.0463483 74.688768,28.265729 74.5219413,28.3909677 C74.3184213,28.5430432 74.1208747,28.782871 73.845248,28.7577381 C73.6733013,28.7424027 73.5474347,28.5673242 73.5593813,28.4007653" id="Fill-285" stroke="none" fill="#A78A73" fill-rule="evenodd"></path>
                            <path d="M77.8597973,30.4709946 C77.874304,30.3219009 77.9169707,30.1221154 77.9937707,29.944481 C77.9771307,29.944481 77.9707307,29.9180701 77.9886507,29.9155142 C77.993344,29.9146622 78.0018773,29.9146622 78.0091307,29.9142363 C78.0837973,29.7523631 78.1874773,29.6126411 78.327424,29.5534296 C78.478464,29.4891063 78.641024,29.6079553 78.628224,29.7740882 C78.6260907,29.803481 78.6132907,29.826484 78.605184,29.8524689 C78.619264,29.9572604 78.628224,30.0654598 78.6290773,30.1651396 C78.630784,30.3363843 78.5561173,30.4859039 78.5023573,30.625626 C78.3602773,30.9932483 77.8213973,30.8697136 77.8597973,30.4709946" id="Fill-287" stroke="none" fill="#A78A73" fill-rule="evenodd"></path>
                            <path d="M82.146432,29.0875758 C82.1391787,28.9397601 82.2338987,28.8281529 82.364032,28.8843825 C82.3618987,28.8831045 82.3597653,28.8818266 82.3580587,28.8801227 C82.3644587,28.8788447 82.370432,28.8775668 82.3772587,28.8762888 C82.476672,28.8571196 82.5628587,28.9078115 82.6183253,28.9827843 C82.809472,29.1518991 82.9084587,29.4143039 82.960512,29.6605215 C83.028352,29.9812858 82.5590187,30.1759595 82.4327253,29.8462495 C82.3721387,29.6882103 82.2740053,29.5186695 82.2087253,29.3465728 C82.1332053,29.2579686 82.122112,29.1668085 82.146432,29.0875758" id="Fill-289" stroke="none" fill="#A78A73" fill-rule="evenodd"></path>
                            <path d="M84.8360107,25.9428498 C84.9691307,25.8470039 85.1538773,25.892584 85.222144,26.0246384 C85.241344,26.032306 85.2639573,26.0433816 85.2754773,26.0484934 C85.356544,26.0829979 85.4350507,26.1226142 85.5169707,26.1562668 C85.656064,26.2137743 85.8092373,26.2631882 85.9483307,26.3292154 C85.9628373,26.3334752 85.976064,26.339013 85.990144,26.3428468 L85.988864,26.3479586 C86.009344,26.3586082 86.033664,26.3649979 86.052864,26.3773514 C86.328064,26.549448 86.110464,26.9788378 85.8233173,26.8812879 C85.822464,26.8842698 85.8216107,26.8876776 85.8203307,26.8910855 C85.5566507,26.8041852 85.302784,26.6866142 85.0497707,26.5711731 C84.829184,26.4706414 84.5454507,26.1528589 84.8360107,25.9428498" id="Fill-291" stroke="none" fill="#A78A73" fill-rule="evenodd"></path>
                            <path d="M85.3247573,21.9551057 C85.3678507,21.8153837 85.4732373,21.7859909 85.5880107,21.7676737 C85.7497173,21.6748097 85.9493973,21.6275257 86.1192107,21.5815196 C86.3150507,21.5278459 86.5471573,21.4362598 86.7429973,21.5393474 C87.001984,21.6748097 87.0062507,22.044136 86.7122773,22.1387039 C86.4507307,22.2230483 86.185344,22.2601088 85.9156907,22.3095227 C85.747584,22.3401934 85.582464,22.3904592 85.4305707,22.2835378 C85.3307307,22.2128248 85.2897707,22.0705468 85.3247573,21.9551057" id="Fill-293" stroke="none" fill="#A78A73" fill-rule="evenodd"></path>
                            <path d="M83.5581013,19.8688595 C83.6809813,19.7836631 83.3771947,19.6976148 83.5005013,19.6124184 C83.4953813,19.6056027 83.4898347,19.599213 83.484288,19.5923973 C83.269248,19.3236027 82.876288,19.2797266 82.5938347,19.4769562 C81.4601813,20.2680045 80.611968,21.126784 79.4616747,21.995787 C78.7077547,22.5657508 77.925248,23.0875785 77.1453013,23.6209079 C76.5829547,24.0047175 75.811968,24.768077 75.1075413,25.0066269 C75.0934613,24.9942734 75.075968,24.9861798 75.0533547,24.9925695 C74.9394347,25.0240921 74.9334613,25.0245181 74.8370347,25.0884154 C74.7320747,25.1582764 74.7128747,25.3410227 74.7952213,25.427497 C74.7094613,25.6042795 74.684288,25.7883036 74.8054613,25.9799955 C74.8907947,26.1141798 75.0422613,26.1951163 75.1954347,26.1056601 C76.9072213,25.1097145 78.4235947,23.7065302 80.0389547,22.560639 C81.2336213,21.712935 82.3736747,20.7476601 83.5581013,19.8688595" id="Fill-295" stroke="none" fill="#654E7E" fill-rule="evenodd"></path>
                            <path d="M83.7997653,22.5060707 C83.4029653,22.5644302 83.0215253,22.9439801 82.6784853,23.1518592 C82.0640853,23.5233154 81.4650453,23.9228864 80.8788053,24.3369408 C79.7366187,25.1446024 78.677632,26.1060435 77.4906453,26.8446961 C77.363072,26.9239287 77.4262187,27.197835 77.5904853,27.1309559 C78.7215787,26.6717474 79.720832,25.531394 80.6774187,24.802539 C81.250432,24.3654816 81.835392,23.9416296 82.4378453,23.5454665 C82.8354987,23.2839136 83.3581653,22.7633637 83.8313387,22.6517565 C83.9183787,22.6308834 83.8893653,22.4928653 83.7997653,22.5060707" id="Fill-297" stroke="none" fill="#654E7E" fill-rule="evenodd"></path>
                            <path d="M82.472704,24.9371918 C82.4616107,24.9056692 82.4453973,24.8771284 82.4249173,24.8528474 C82.429184,24.8464577 82.4351573,24.840494 82.4402773,24.8345302 C82.4927573,24.7667991 82.4197973,24.6573218 82.3464107,24.7250529 C82.3233707,24.746352 82.2994773,24.7642432 82.2764373,24.7851163 C82.2491307,24.7880982 82.2209707,24.7966178 82.1928107,24.8179169 C81.8049707,25.1071586 81.396224,25.3687115 81.0092373,25.6605091 C80.885504,25.7537991 80.7668907,25.8547568 80.646144,25.9514547 C80.6329173,25.9557145 80.6196907,25.9569924 80.6056107,25.9650861 C80.393984,26.0826571 80.1844907,26.2040619 79.9762773,26.3293006 C79.9080107,26.3706208 79.876864,26.4409079 79.8713173,26.5137508 C79.7561173,26.649639 79.9041707,26.8869109 80.0756907,26.7931949 C80.076544,26.7953248 80.0773973,26.7974547 80.0786773,26.7995846 C80.0991573,26.7863792 80.1196373,26.7723218 80.1401173,26.7586903 C80.235264,26.7331314 80.323584,26.6977749 80.4072107,26.6560287 C80.446464,26.7467628 80.5339307,26.8059743 80.639744,26.7339834 C81.0203307,26.4745604 81.3394773,26.108642 81.707264,25.8240861 C81.9692373,25.6204668 82.2580907,25.4411284 82.441984,25.1595544 C82.4731307,25.1293097 82.5068373,25.1016208 82.5371307,25.0705242 C82.5934507,25.0130166 82.535424,24.9239864 82.472704,24.9371918" id="Fill-299" stroke="none" fill="#654E7E" fill-rule="evenodd"></path>
                            <path d="M72.673536,19.1194296 C72.7383893,19.0755535 72.8224427,19.0670338 72.9022293,19.1288012 C72.9892693,19.1961063 73.078016,19.2659674 73.167616,19.3349764 C73.1949227,19.3515897 73.2209493,19.369481 73.2486827,19.3852423 C73.316096,19.4235807 73.4010027,19.5011094 73.4816427,19.4942937 C73.6126293,19.4832181 73.696256,19.5752302 73.7120427,19.6791698 C73.743616,19.7043027 73.7751893,19.7294356 73.805056,19.7588284 C73.945856,19.8998284 73.7892693,20.1958858 73.5908693,20.1072816 C73.5725227,20.0996139 73.555456,20.0889644 73.5371093,20.0804447 C73.354496,20.0676653 73.1974827,19.9628737 73.0507093,19.86149 C72.8791893,19.7426411 72.6982827,19.6135686 72.5434027,19.4742725 C72.4055893,19.3494598 72.470016,19.0759795 72.673536,19.1194296" id="Fill-301" stroke="none" fill="#A78A73" fill-rule="evenodd"></path>
                            <path d="M80.9372587,16.5928885 C80.945792,16.4587042 80.9824853,16.3360215 81.023872,16.2120607 C81.0503253,15.9862903 81.082752,15.758816 81.159552,15.5586045 C81.2047787,15.4401816 81.308032,15.3848039 81.409152,15.3860819 C81.427072,15.3703205 81.4484053,15.3673387 81.4740053,15.3788402 C81.6045653,15.3200547 81.763712,15.4452934 81.7671253,15.6063145 C81.772672,15.8550879 81.7026987,16.0987495 81.6480853,16.3394293 C81.628032,16.4263296 81.6122453,16.5200456 81.5866453,16.6082239 C81.6007253,16.6917163 81.5734187,16.7781906 81.4786987,16.8220668 C81.474432,16.8237707 81.4710187,16.8237707 81.466752,16.8259006 C81.447552,16.8463477 81.4317653,16.8693508 81.4070187,16.8855381 C81.3460053,16.9238764 81.2918187,16.9132269 81.2508587,16.8791483 C81.200512,16.8902239 81.1450453,16.8774444 81.0959787,16.8501816 C80.9974187,16.8058795 80.930432,16.7070517 80.9372587,16.5928885" id="Fill-303" stroke="none" fill="#A78A73" fill-rule="evenodd"></path>
                            <path d="M83.6722773,18.4848444 C83.7371307,18.4145574 83.825024,18.3719592 83.8971307,18.3093399 C84.002944,18.2169018 84.092544,18.1048686 84.1906773,18.0043369 C84.366464,17.8228686 84.5601707,17.6226571 84.7781973,17.4923066 C85.0252373,17.3453429 85.297024,17.7172251 85.1353173,17.929364 C85.009024,18.094645 84.866944,18.2514063 84.7154773,18.3992221 C84.614784,18.5210529 84.482944,18.6164728 84.3557973,18.7204124 C84.194944,18.8507628 84.054144,18.9913369 83.833984,18.9832432 C83.584384,18.9742976 83.528064,18.6403278 83.6722773,18.4848444" id="Fill-305" stroke="none" fill="#A78A73" fill-rule="evenodd"></path>
                            <path d="M106.689365,25.0750822 C106.658645,24.9085233 106.644992,24.7249251 106.545152,24.5834991 C106.522539,24.5515505 106.481579,24.5920187 106.495659,24.6222634 C106.577152,24.7935082 106.567765,25.0482453 106.593792,25.2369553 C106.622805,25.4431305 106.624512,25.6544175 106.667605,25.8576109 C106.687659,25.9509009 106.804139,25.9091547 106.796032,25.8239583 C106.773419,25.5709251 106.735445,25.3251335 106.689365,25.0750822" id="Fill-307" stroke="none" fill="#989898" fill-rule="evenodd"></path>
                            <path d="M107.004373,25.1273076 C106.985173,24.9944012 106.95872,24.7903559 106.853333,24.693232 C106.81152,24.6548937 106.754347,24.716661 106.79232,24.7549994 C106.906667,24.8704405 106.906667,25.1507366 106.914347,25.2938665 C106.924587,25.4659631 106.924587,25.6384858 106.920747,25.8110085 C106.918187,25.9025946 107.053867,25.9068544 107.05216,25.8156943 C107.04832,25.586516 107.037227,25.3547819 107.004373,25.1273076" id="Fill-309" stroke="none" fill="#989898" fill-rule="evenodd"></path>
                            <path d="M107.156864,24.7535085 C107.131691,24.7207079 107.081344,24.763306 107.102251,24.7961066 C107.307904,25.1202789 107.234091,25.5415749 107.276757,25.9053634 C107.287851,25.9956716 107.430784,25.9786323 107.425237,25.8887502 C107.403051,25.5215538 107.388117,25.0580855 107.156864,24.7535085" id="Fill-311" stroke="none" fill="#989898" fill-rule="evenodd"></path>
                            <path d="M107.558528,24.707119 C107.526101,24.6432218 107.441621,24.6990254 107.469355,24.7595148 C107.634475,25.1181915 107.521408,25.5752701 107.581568,25.9560979 C107.593088,26.0297927 107.704021,26.0161613 107.702315,25.9424665 C107.695061,25.5646205 107.733888,25.0534423 107.558528,24.707119" id="Fill-313" stroke="none" fill="#989898" fill-rule="evenodd"></path>
                            <path d="M107.812693,24.8760208 C107.794773,24.8308668 107.72352,24.8623894 107.738453,24.9066915 C107.860053,25.2589785 107.832747,25.6176553 107.84512,25.9839997 C107.84768,26.0653622 107.962027,26.071752 107.964587,25.9878335 C107.976107,25.6168033 107.95008,25.2231961 107.812693,24.8760208" id="Fill-315" stroke="none" fill="#989898" fill-rule="evenodd"></path>
                            <path d="M108.128512,24.9584057 C108.114859,24.8991943 108.034645,24.9230492 108.044885,24.9801308 C108.094379,25.2608529 108.116992,25.562874 108.091819,25.8474299 C108.084139,25.940294 108.224085,25.9458317 108.226645,25.8521157 C108.236032,25.5564843 108.195499,25.2459435 108.128512,24.9584057" id="Fill-317" stroke="none" fill="#989898" fill-rule="evenodd"></path>
                            <path d="M108.402688,25.1576375 C108.397568,25.1039637 108.312661,25.1141873 108.315221,25.167435 C108.323755,25.3876677 108.316501,25.6010846 108.301141,25.8204653 C108.295595,25.9014018 108.409941,25.9039577 108.417621,25.8247251 C108.439808,25.6002326 108.424448,25.3812779 108.402688,25.1576375" id="Fill-319" stroke="none" fill="#989898" fill-rule="evenodd"></path>
                            <path d="M106.47936,25.1441338 C106.47168,25.0559556 106.3488,25.045732 106.34752,25.139448 C106.34624,25.2928015 106.33344,25.4410432 106.310827,25.5926927 C106.294613,25.7064299 106.4704,25.7162275 106.479787,25.5986565 C106.491733,25.444877 106.492587,25.2974873 106.47936,25.1441338" id="Fill-321" stroke="none" fill="#989898" fill-rule="evenodd"></path>
                            <path d="M108.988117,24.7593444 C108.988117,24.7593444 108.670251,22.723577 108.735531,22.3078187 C108.801237,21.8924864 109.728811,22.0995136 110.424704,22.3078187 C111.120597,22.5161239 111.516544,22.7580816 110.861184,23.6943897 C110.205824,24.6298459 109.960917,24.9288852 109.960917,24.9288852 L108.988117,24.7593444 Z" id="Fill-323" stroke="none" fill="#654E7E" fill-rule="evenodd"></path>
                            <path d="M88.6106027,22.8230864 C88.5466027,22.691884 88.4378027,22.6791045 88.320896,22.6795305 C88.146816,22.6130773 87.9428693,22.597742 87.7670827,22.5785728 C87.5652693,22.5568477 87.3216427,22.503174 87.144576,22.6352284 C86.910336,22.8103069 86.964096,23.1753734 87.2691627,23.2226574 C87.541376,23.2644036 87.8093227,23.2592918 88.0836693,23.2656816 C88.2539093,23.2695154 88.4250027,23.2937964 88.5581227,23.1642979 C88.646016,23.0782495 88.6635093,22.9312858 88.6106027,22.8230864" id="Fill-325" stroke="none" fill="#A78A73" fill-rule="evenodd"></path>
                            <path d="M82.711424,23.1412949 C82.711424,25.0820683 81.1361707,26.6552193 79.1922773,26.6552193 C77.2479573,26.6552193 75.672704,25.0820683 75.672704,23.1412949 C75.672704,21.2005215 77.2479573,19.6273704 79.1922773,19.6273704 C81.1361707,19.6273704 82.711424,21.2005215 82.711424,23.1412949 Z" id="Stroke-327" stroke="#A78A73" stroke-width="0.5" fill="none"></path>
                            <path d="M82.711424,23.1412949 C82.711424,25.0820683 81.1361707,26.6552193 79.1922773,26.6552193 C77.2479573,26.6552193 75.672704,25.0820683 75.672704,23.1412949 C75.672704,21.2005215 77.2479573,19.6273704 79.1922773,19.6273704 C81.1361707,19.6273704 82.711424,21.2005215 82.711424,23.1412949" id="Fill-329" stroke="none" fill="#FFFFFF" fill-rule="evenodd"></path>
                            <path d="M78.5097813,26.8181148 C78.5097813,28.2153353 77.3752747,29.3480211 75.975808,29.3480211 C74.575488,29.3480211 73.4409813,28.2153353 73.4409813,26.8181148 C73.4409813,25.4208943 74.575488,24.2877825 75.975808,24.2877825 C77.3752747,24.2877825 78.5097813,25.4208943 78.5097813,26.8181148 Z" id="Stroke-331" stroke="#A78A73" stroke-width="0.5" fill="none"></path>
                            <path d="M78.5097813,26.8181148 C78.5097813,28.2153353 77.3752747,29.3480211 75.975808,29.3480211 C74.575488,29.3480211 73.4409813,28.2153353 73.4409813,26.8181148 C73.4409813,25.4208943 74.575488,24.2877825 75.975808,24.2877825 C77.3752747,24.2877825 78.5097813,25.4208943 78.5097813,26.8181148" id="Fill-333" stroke="none" fill="#FFFFFF" fill-rule="evenodd"></path>
                            <path d="M73.7343573,25.638571 L71.328384,23.383423 L72.745344,18.5510846 C72.8089173,18.3334079 73.0721707,18.2482115 73.2500907,18.3892115 C74.136704,19.0912296 76.3067307,20.8143263 76.340864,20.8892991" id="Stroke-335" stroke="#BFB07C" stroke-width="0.5" fill="none"></path>
                            <line x1="72.2697813" y1="23.2550746" x2="68.0022613" y2="27.3449266" id="Stroke-337" stroke="#BFB07C" stroke-width="0.5" fill="none"></line>
                            <path d="M72.538112,21.4030758 C72.3337387,21.2612239 71.8191787,21.2906166 71.4774187,21.4580275 C71.5584853,21.3485502 71.639552,21.2386468 71.720192,21.1291695 C71.7543253,21.1053145 72.2368853,21.0243779 72.310272,21.1364112 C72.333312,21.1717677 72.3917653,21.1525985 72.378112,21.1078704 C72.2343253,20.6358825 71.087872,20.9626106 71.186432,21.4614353 C71.196672,21.5138311 71.2282453,21.5589852 71.2726187,21.5977495 C71.1962453,21.6722964 71.1484587,21.7604746 71.1488853,21.8622843 C71.1488853,21.8912511 71.1535787,21.9176619 71.1599787,21.9436468 C70.9876053,22.0301211 70.8813653,22.1574897 70.917632,22.338532 C70.9321387,22.4126529 70.972672,22.4727163 71.0234453,22.525964 C70.9504853,22.5647284 70.893312,22.6047707 70.8642987,22.6418311 C70.7324587,22.8130758 70.7840853,22.9638734 70.9261653,23.0784625 C70.6236587,23.5070003 71.2564053,23.6066801 71.5414187,23.5440607 C71.6826453,23.51339 71.6327253,23.2944353 71.4906453,23.3110486 C71.2948053,23.374094 71.2278187,23.3468311 71.270912,23.2433175 C71.6135253,23.3417193 72.0380587,23.325532 72.1903787,23.1295804 C72.225792,23.0840003 72.2432853,23.0115834 72.1959253,22.9647254 C71.9975253,22.7662178 71.5072853,22.7530124 71.1817387,22.8893266 C71.1548587,22.8467284 71.1535787,22.7917767 71.197952,22.7163779 C71.2064853,22.7023205 71.232512,22.6882631 71.267072,22.6746317 C71.6250453,22.8071121 72.151552,22.7602541 72.3584853,22.597955 C72.389632,22.573674 72.3968853,22.5221302 72.389632,22.4863477 C72.3324587,22.1941242 71.7159253,22.2661151 71.278592,22.4164867 C71.2457387,22.3994474 71.218432,22.3802782 71.2064853,22.3577012 C71.158272,22.269523 71.212032,22.2000879 71.316992,22.1472662 C71.6314453,22.3308644 72.297472,22.2026438 72.4988587,22.0292692 C72.5410987,21.9930607 72.5385387,21.8993447 72.485632,21.8720819 C72.3226453,21.7877375 71.8370987,21.7596227 71.447552,21.846523 C71.4492587,21.8111665 71.4701653,21.7689943 71.5158187,21.7183024 C71.8938453,21.8269278 72.4719787,21.7668644 72.5684053,21.5500396 C72.5910187,21.4993477 72.5884587,21.4380063 72.538112,21.4030758" id="Fill-339" stroke="none" fill="#BFB07C" fill-rule="evenodd"></path>
                            <path d="M71.2197973,25.0151891 C70.9573973,24.8256272 70.7406507,24.5879293 70.5119573,24.359603 C70.435584,24.2833523 70.3289173,24.4009233 70.397184,24.4758961 C70.6169173,24.7170018 70.8319573,25.0232828 71.1161173,25.1928236 C71.2296107,25.2605547 71.3196373,25.087606 71.2197973,25.0151891" id="Fill-341" stroke="none" fill="#BFB07C" fill-rule="evenodd"></path>
                            <path d="M71.334784,24.8267347 C71.121024,24.6397287 70.9337173,24.4514447 70.7545173,24.2312121 C70.6977707,24.161777 70.6068907,24.2627347 70.6597973,24.326632 C70.841984,24.5468647 71.0271573,24.7658193 71.2204373,24.9762544 C71.3138773,25.0776381 71.4440107,24.9008556 71.334784,24.8267347" id="Fill-343" stroke="none" fill="#BFB07C" fill-rule="evenodd"></path>
                            <path d="M71.8447787,24.3144489 C71.6732587,24.1142375 71.469312,23.9246755 71.276032,23.7453372 C71.2231253,23.6963492 71.155712,23.7704701 71.199232,23.8224399 C71.2687787,23.9050804 71.3332053,23.9911287 71.397632,24.0767511 C71.333632,24.0098719 71.2700587,23.9421408 71.2064853,23.8748356 C71.1433387,23.8083825 71.0652587,23.9046544 71.112192,23.9706816 C71.2521387,24.1670592 71.389952,24.3630109 71.548672,24.5444792 C71.534592,24.5393674 71.5200853,24.5368115 71.5055787,24.5380894 C71.2832853,24.4158326 71.0895787,24.1760048 70.929152,23.9958145 C70.879232,23.9400109 70.804992,24.0230773 70.8502187,24.0754731 C70.907392,24.1415003 70.964992,24.2066755 71.0217387,24.2727027 C70.967552,24.2284006 70.9116587,24.1858024 70.8591787,24.1397964 C70.8066987,24.0946423 70.743552,24.1887843 70.787072,24.2343644 C71.003392,24.4601347 71.235072,24.6748296 71.441152,24.9103976 C71.533312,25.0292465 71.7026987,24.8456483 71.599872,24.7498024 C71.5977387,24.7485245 71.5956053,24.7468205 71.5938987,24.7451166 C71.6224853,24.7110381 71.634432,24.6607722 71.6143787,24.6228598 C71.7154987,24.7242435 71.843072,24.6024127 71.812352,24.4895275 C71.864832,24.455023 71.8964053,24.3749384 71.8447787,24.3144489" id="Fill-345" stroke="none" fill="#BFB07C" fill-rule="evenodd"></path>
                            <path d="M72.6089387,24.1754937 C72.652032,24.0920012 72.5594453,23.9872097 72.471552,24.0583486 C72.4540587,24.072406 72.4365653,24.0885934 72.419072,24.1030767 C72.451072,24.0689982 72.4800853,24.0319378 72.512512,23.9982852 C72.588032,23.9199045 72.4809387,23.7814604 72.3981653,23.8649529 C72.1984853,24.0655903 71.912192,24.307548 71.8153387,24.5827323 C71.7991253,24.6287384 71.818752,24.6926356 71.860992,24.7194725 C71.869952,24.7254363 71.878912,24.730974 71.8882987,24.7365118 C71.9190187,24.7565329 71.9476053,24.7531251 71.9732053,24.7424755 C71.9821653,24.8315057 72.0738987,24.8749559 72.141312,24.8323577 C72.1916587,24.9328894 72.325632,24.8758079 72.333312,24.777832 C72.3298987,24.8272459 72.3452587,24.7680344 72.362752,24.7437535 C72.399872,24.6913577 72.4327253,24.6347021 72.468992,24.5818804 C72.535552,24.4847565 72.6012587,24.3918924 72.6921387,24.3160677 C72.758272,24.261116 72.6874453,24.1363033 72.6089387,24.1754937" id="Fill-347" stroke="none" fill="#A9944B" fill-rule="evenodd"></path>
                            <path d="M72.9585493,24.6923801 C72.9517227,24.6991958 72.944896,24.7072894 72.9380693,24.7136792 C72.9427627,24.6404103 72.8659627,24.5696973 72.796416,24.6352985 C72.7622827,24.6672471 72.713216,24.7124012 72.6641493,24.763945 C72.713216,24.6817305 72.7750827,24.6054798 72.8365227,24.5317849 C72.9163093,24.435087 72.7994027,24.271936 72.7008427,24.3737456 C72.5246293,24.5556399 72.3398827,24.7460538 72.3390293,25.0131444 C72.3390293,25.117084 72.4247893,25.1490326 72.4926293,25.1226218 C72.5024427,25.1554224 72.518656,25.186945 72.5540693,25.2146338 C72.5860693,25.2397668 72.614656,25.233377 72.6394027,25.2171897 C72.6381227,25.2308211 72.6317227,25.2431746 72.6317227,25.257232 C72.6308693,25.3705432 72.7750827,25.398232 72.814336,25.2904586 C72.8766293,25.1200659 72.9619627,24.9731021 73.0835627,24.8380659 C73.162496,24.7507396 73.0507093,24.6016459 72.9585493,24.6923801" id="Fill-349" stroke="none" fill="#A9944B" fill-rule="evenodd"></path>
                            <path d="M72.8985173,18.2664435 C72.8857173,18.2749631 72.878464,18.2890205 72.8741973,18.3043559 C72.859264,18.3226731 72.8498773,18.3461021 72.8545707,18.3759208 C72.864384,18.4334284 72.875904,18.4577094 72.9266773,18.4858242 C72.9599573,18.5041414 72.9876907,18.4990296 73.0162773,18.4764526 C73.1195307,18.39509 73.0248107,18.1872109 72.8985173,18.2664435" id="Fill-351" stroke="none" fill="#A9944B" fill-rule="evenodd"></path>
                            <path d="M72.619776,18.1476798 C72.621056,18.1455498 72.6219093,18.142994 72.6231893,18.140864 C72.6419627,18.1600332 72.6701227,18.165571 72.6931627,18.1387341 C72.893696,17.9001843 73.1812693,18.2188187 73.1748693,18.4403293 C73.1629227,18.8279728 72.638976,18.5987946 72.734976,18.3811178 C72.774656,18.2903837 72.7046827,18.1540695 72.619776,18.1476798 M73.286656,17.835435 C72.9751893,17.6420393 72.4858027,17.6292598 72.4205227,18.0658912 C72.4166827,18.0901722 72.4243627,18.1101934 72.4371627,18.1259547 C72.366336,18.3125347 72.394496,18.565568 72.489216,18.7108278 C72.6974293,19.0277583 73.1910827,19.0903776 73.4513493,18.8045438 C73.705216,18.5259517 73.5947093,18.0267009 73.286656,17.835435" id="Fill-353" stroke="none" fill="#A9944B" fill-rule="evenodd"></path>
                            <path d="M76.3931307,20.5146906 C76.3547307,20.5832737 76.2962773,20.6446151 76.233984,20.7034006 C76.2489173,20.6833795 76.2642773,20.6637843 76.2792107,20.6437631 C76.3257173,20.5828477 76.232704,20.4895577 76.176384,20.5513251 C76.0914773,20.6450411 76.0057173,20.7366272 75.9301973,20.8375849 C75.9007573,20.8776272 75.9233707,20.9266151 75.9592107,20.951748 C75.867904,21.0501498 76.0172373,21.2196906 76.100864,21.1119172 C76.2335573,20.9410985 76.4276907,20.7762435 76.5113173,20.5739021 C76.541184,20.5027631 76.4328107,20.4435517 76.3931307,20.5146906" id="Fill-355" stroke="none" fill="#A9944B" fill-rule="evenodd"></path>
                            <path d="M76.0960427,20.2792505 C76.0102827,20.4168426 75.819136,20.4926674 75.701376,20.6029967 C75.620736,20.6783955 75.714176,20.8513441 75.817856,20.7797792 C75.9595093,20.6813773 76.1975893,20.5058728 76.2202027,20.3205707 C76.2291627,20.2485798 76.1323093,20.2208909 76.0960427,20.2792505" id="Fill-357" stroke="none" fill="#A9944B" fill-rule="evenodd"></path>
                        </g>
                    </g>
                </g>
            </g>
        </g>
    </g>
</svg>