<?xml version="1.0" encoding="UTF-8"?>
<svg width="30px" height="30px" viewBox="0 0 30 30" version="1.1" xmlns="http://www.w3.org/2000/svg" xmlns:xlink="http://www.w3.org/1999/xlink">
    <!-- Generator: Sketch 59.1 (86144) - https://sketch.com -->
    <title>WPMUDEV destination</title>
    <desc>Created with Sketch.</desc>
    <g id="Symbols" stroke="none" stroke-width="1" fill="none" fill-rule="evenodd">
        <g id="WPMUDEV-destination">
            <rect id="Rectangle" fill="#17A8E3" fill-rule="evenodd" x="0" y="0" width="30" height="30" rx="4"></rect>
            <circle id="Oval" fill="#FFFFFF" fill-rule="evenodd" cx="15" cy="15" r="8"></circle>
            <path d="M20,10 L18.555915,11.1365285 L18.555915,17.0397497 L18.555915,17.0671265 L18.555915,17.0945033 C18.555915,17.1922776 18.5227972,17.278319 18.4565619,17.3510631 C18.3903265,17.4245893 18.3094578,17.4613525 18.2131854,17.4613525 C18.1169131,17.4613525 18.0321934,17.4245893 17.9605668,17.3510631 C17.8881701,17.278319 17.8519716,17.1922776 17.8519716,17.0945033 L17.8519716,17.0671265 L17.8519716,17.0397497 L17.8519716,13.9594681 C17.8519716,13.3978525 17.677141,12.9207139 17.3282501,12.5296167 C16.9793592,12.1385195 16.5580715,11.9429709 16.0651571,11.9429709 C15.5714726,11.9429709 15.1501849,12.1385195 14.8012939,12.5296167 C14.452403,12.9207139 14.2775724,13.3978525 14.2775724,13.9594681 L14.2775724,17.0397497 L14.2775724,17.0671265 L14.2775724,17.0945033 C14.2775724,17.1922776 14.2444547,17.278319 14.1782193,17.3510631 C14.1119839,17.4245893 14.0311152,17.4613525 13.9348429,17.4613525 C13.8385705,17.4613525 13.7546211,17.4245893 13.6822243,17.3510631 C13.6098275,17.278319 13.5736291,17.1922776 13.5736291,17.0945033 L13.5736291,17.0671265 L13.5736291,17.0397497 L13.5736291,13.9594681 C13.5736291,13.3978525 13.3995687,12.9207139 13.0506777,12.5296167 C12.7010166,12.1385195 12.2804991,11.9429709 11.7868145,11.9429709 C11.5341959,11.9429709 11.2992914,11.9985067 11.0828712,12.1080139 C10.866451,12.2183034 10.6792976,12.3590983 10.5229513,12.5296167 C10.366605,12.7251653 10.2402957,12.9426154 10.1440234,13.1804025 C10.0477511,13.4189718 10,13.6724028 10,13.9414776 L10,13.9594681 L10,21 L11.444085,19.8626893 L11.444085,13.9594681 L11.444085,13.9234872 C11.444085,13.8257129 11.4772027,13.7396715 11.5434381,13.6661452 C11.6089033,13.5934011 11.6967036,13.5503804 11.8045286,13.5378653 C11.900801,13.5503804 11.9824399,13.5934011 12.0486753,13.6661452 C12.1149107,13.7396715 12.1480283,13.8257129 12.1480283,13.9234872 L12.1480283,13.9414776 L12.1480283,13.9594681 L12.1480283,17.0397497 C12.1480283,17.6021475 12.3220887,18.0785039 12.6709797,18.4696011 C13.0198706,18.8606983 13.4411583,19.0562469 13.9348429,19.0562469 C14.1874615,19.0562469 14.422366,19.0014933 14.6387862,18.8912038 C14.8552064,18.7816967 15.0423598,18.6409017 15.1987061,18.4696011 C15.3550523,18.2740525 15.4813617,18.0573846 15.577634,17.8188153 C15.6739063,17.5802461 15.7216574,17.3330726 15.7216574,17.0765128 L15.7216574,17.0397497 L15.7216574,13.9594681 C15.7101047,13.9477352 15.7039433,13.9383489 15.7039433,13.9320913 L15.7039433,13.9047145 C15.7039433,13.8069402 15.7401417,13.721681 15.8125385,13.6481547 C15.8841651,13.5746285 15.9688848,13.5378653 16.0651571,13.5378653 C16.1614294,13.5378653 16.2453789,13.5746285 16.3177757,13.6481547 C16.3901725,13.721681 16.4256007,13.8069402 16.4256007,13.9047145 C16.4256007,13.9172296 16.42252,13.9266159 16.4171288,13.9320913 C16.4109673,13.9383489 16.4078866,13.9477352 16.4078866,13.9594681 L16.4078866,17.0397497 C16.4078866,17.6021475 16.5827172,18.0785039 16.9316081,18.4696011 C17.2804991,18.8606983 17.7017868,19.0562469 18.1947011,19.0562469 C18.4596426,19.0562469 18.7007085,19.0014933 18.9171287,18.8912038 C19.133549,18.7816967 19.3199322,18.6409017 19.4762785,18.4696011 C19.6326248,18.2740525 19.7566235,18.0573846 19.8467344,17.8188153 C19.9368453,17.5802461 19.9822859,17.3268151 19.9822859,17.0577402 L19.9822859,17.0397497 L20,10 Z" id="Fill-1" fill="#17A8E3" fill-rule="nonzero"></path>
        </g>
    </g>
</svg>